<?xml version="1.0" standalone="no"?>
<!DOCTYPE svg PUBLIC "-//W3C//DTD SVG 20010904//EN"
 "http://www.w3.org/TR/2001/REC-SVG-20010904/DTD/svg10.dtd">
<svg version="1.0" xmlns="http://www.w3.org/2000/svg"
 width="1016.000000pt" height="1016.000000pt" viewBox="0 0 1016.000000 1016.000000"
 preserveAspectRatio="xMidYMid meet">
<metadata>
Created by potrace 1.14, written by Peter Selinger 2001-2017
</metadata>
<g transform="translate(0.000000,1016.000000) scale(0.100000,-0.100000)"
fill="#000000" stroke="none">
<path d="M4280 9749 c-627 -50 -1193 -205 -1730 -473 -1212 -606 -2090 -1702
-2414 -3014 -96 -387 -130 -678 -130 -1102 0 -424 34 -715 130 -1102 275
-1113 960 -2089 1908 -2722 l100 -66 -140 -137 c-301 -298 -642 -475 -960
-499 l-82 -7 -6 -45 c-13 -93 -10 -100 36 -113 110 -29 183 -40 298 -46 160
-7 271 11 472 77 296 98 515 224 748 433 47 42 90 77 96 77 6 0 65 -24 131
-54 429 -193 941 -327 1443 -378 188 -19 708 -16 895 6 389 45 752 129 1091
251 1445 525 2534 1737 2900 3231 95 390 128 667 128 1094 0 224 -5 348 -18
465 -84 764 -337 1468 -748 2083 -48 72 -67 109 -63 122 11 35 181 283 268
390 195 242 451 448 707 568 201 94 467 164 685 179 l110 8 0 75 0 75 -55 7
c-113 15 -460 11 -565 -6 -417 -69 -687 -165 -960 -344 -168 -109 -361 -281
-506 -451 l-55 -63 -74 77 c-207 215 -484 448 -729 613 -647 438 -1345 693
-2121 777 -174 19 -630 27 -790 14z m5699 -690 c47 -1 51 -2 26 -9 -16 -4 -72
-13 -124 -20 -243 -32 -509 -123 -721 -247 -159 -93 -278 -188 -430 -342 -223
-225 -406 -489 -565 -816 -141 -291 -119 -226 -763 -2235 -121 -377 -329
-1025 -462 -1440 -133 -415 -286 -893 -340 -1061 -162 -501 -200 -655 -221
-893 -6 -66 -14 -152 -17 -191 l-7 -70 -189 420 c-104 231 -231 515 -283 630
-53 116 -124 275 -160 355 -36 80 -85 188 -109 240 -63 141 -540 1200 -589
1310 -23 52 -98 217 -165 365 -67 149 -138 307 -157 353 -20 45 -39 82 -43 82
-6 0 -55 -114 -360 -840 -167 -396 -438 -1040 -600 -1425 -81 -192 -200 -476
-265 -630 -208 -496 -227 -538 -286 -656 -192 -385 -512 -805 -779 -1021 -237
-193 -569 -350 -855 -403 -113 -21 -306 -16 -415 10 l-75 19 45 8 c166 31 258
55 354 93 451 181 844 569 1219 1203 75 126 205 382 262 516 36 82 37 90 25
125 -12 36 -215 588 -290 791 -21 58 -93 254 -160 435 -67 182 -139 377 -160
435 -21 58 -117 319 -213 580 -96 261 -241 655 -322 875 -466 1269 -439 1204
-552 1326 -92 98 -249 192 -370 221 -29 7 -53 16 -53 20 0 5 445 8 990 8 653
0 990 -3 990 -10 0 -5 -8 -10 -17 -10 -31 0 -119 -58 -152 -99 -44 -56 -82
-142 -88 -203 -7 -72 14 -163 82 -353 75 -212 146 -410 245 -690 45 -126 106
-297 135 -380 189 -533 252 -712 405 -1145 73 -206 136 -379 140 -383 4 -5 28
40 53 100 25 59 269 646 543 1303 273 657 570 1370 659 1584 89 215 167 392
174 394 6 2 22 -20 35 -50 14 -29 92 -201 174 -383 82 -181 247 -546 367 -810
368 -813 551 -1216 709 -1565 84 -184 181 -399 217 -477 35 -79 66 -143 70
-143 3 0 217 741 476 1648 259 906 492 1704 517 1775 180 494 488 958 831
1254 311 269 583 397 1031 487 167 34 292 46 423 40 57 -2 129 -4 160 -5z"/>
</g>
</svg>
