<svg width="127" height="117" viewBox="0 0 127 117" fill="none" xmlns="http://www.w3.org/2000/svg">
<circle cx="57.5" cy="57.5" r="57.5" fill="#387742"/>
<path d="M114.602 9.336C117.546 8.568 119.946 8.184 121.802 8.184C123.658 8.184 125.13 8.248 126.218 8.376V9.336C117.834 9.784 111.114 13.624 106.058 20.856C103.434 24.568 101.322 28.888 99.7219 33.816L81.6739 90.072C80.5859 93.592 80.0419 96.856 80.0419 99.864C80.0419 100.184 80.0419 100.472 80.0419 100.728H79.0819L58.2499 54.456L41.1619 95.064C39.4339 99.288 36.9059 103.384 33.5779 107.352C29.9939 111.576 25.6419 114.36 20.5219 115.704C19.3059 116.088 18.0259 116.28 16.6819 116.28C15.3379 116.28 13.8979 116.056 12.3619 115.608L12.4579 114.648C14.8259 114.52 17.0979 113.88 19.2739 112.728C21.5139 111.576 23.4659 110.168 25.1299 108.504C26.7939 106.904 28.3939 105.016 29.9299 102.84C32.4259 99.32 34.5379 95.48 36.2659 91.32L16.7779 38.328C15.9459 36.472 14.7619 35.096 13.2259 34.2C11.6899 33.24 10.1219 32.76 8.52188 32.76H7.75388V31.8H37.0339V32.76H36.1699C34.8259 32.76 33.8019 33.208 33.0979 34.104C32.4579 34.936 32.1379 35.736 32.1379 36.504C32.1379 37.272 32.2659 38.008 32.5219 38.712L44.3299 72.024L61.7059 30.264L62.5699 30.36L81.6739 72.504L92.7139 33.816C94.3139 28.248 96.8419 23.32 100.298 19.032C104.33 13.976 109.098 10.744 114.602 9.336Z" fill="white"/>
<path d="M114.602 9.336L114.726 9.82041L114.728 9.81981L114.602 9.336ZM126.218 8.376H126.718V7.93137L126.276 7.87942L126.218 8.376ZM126.218 9.336L126.245 9.83529L126.718 9.81V9.336H126.218ZM106.058 20.856L106.466 21.1446L106.468 21.1425L106.058 20.856ZM99.7219 33.816L99.2463 33.6616L99.2458 33.6633L99.7219 33.816ZM81.6739 90.072L81.1978 89.9192L81.1962 89.9243L81.6739 90.072ZM80.0419 100.728V101.228H80.5419V100.728H80.0419ZM79.0819 100.728L78.626 100.933L78.7586 101.228H79.0819V100.728ZM58.2499 54.456L58.7058 54.2507L58.2344 53.2037L57.789 54.2621L58.2499 54.456ZM41.1619 95.064L40.701 94.8701L40.6991 94.8747L41.1619 95.064ZM33.5779 107.352L33.9591 107.675L33.961 107.673L33.5779 107.352ZM20.5219 115.704L20.3949 115.22L20.383 115.224L20.3713 115.227L20.5219 115.704ZM12.3619 115.608L11.8644 115.558L11.823 115.972L12.2219 116.088L12.3619 115.608ZM12.4579 114.648L12.4309 114.149L12.003 114.172L11.9604 114.598L12.4579 114.648ZM19.2739 112.728L19.0452 112.283L19.0399 112.286L19.2739 112.728ZM25.1299 108.504L24.7833 108.144L24.7763 108.15L25.1299 108.504ZM29.9299 102.84L29.522 102.551L29.5214 102.552L29.9299 102.84ZM36.2659 91.32L36.7276 91.5118L36.8027 91.3311L36.7351 91.1474L36.2659 91.32ZM16.7779 38.328L17.2471 38.1554L17.2412 38.1392L17.2341 38.1235L16.7779 38.328ZM13.2259 34.2L12.9609 34.624L12.9673 34.628L12.9739 34.6319L13.2259 34.2ZM7.75388 32.76H7.25388V33.26H7.75388V32.76ZM7.75388 31.8V31.3H7.25388V31.8H7.75388ZM37.0339 31.8H37.5339V31.3H37.0339V31.8ZM37.0339 32.76V33.26H37.5339V32.76H37.0339ZM33.0979 34.104L32.7047 33.7951L32.7016 33.7991L33.0979 34.104ZM32.5219 38.712L32.9932 38.5449L32.9918 38.5411L32.5219 38.712ZM44.3299 72.024L43.8586 72.1911L44.2925 73.4153L44.7915 72.2161L44.3299 72.024ZM61.7059 30.264L61.7611 29.7671L61.3883 29.7256L61.2442 30.0719L61.7059 30.264ZM62.5699 30.36L63.0253 30.1536L62.9078 29.8945L62.6251 29.8631L62.5699 30.36ZM81.6739 72.504L81.2185 72.7104L81.7809 73.9511L82.1547 72.6412L81.6739 72.504ZM92.7139 33.816L92.2333 33.6779L92.2331 33.6788L92.7139 33.816ZM100.298 19.032L100.687 19.3458L100.689 19.3437L100.298 19.032ZM114.728 9.81981C117.654 9.05665 120.007 8.684 121.802 8.684V7.684C119.885 7.684 117.438 8.07935 114.476 8.85219L114.728 9.81981ZM121.802 8.684C123.65 8.684 125.1 8.74788 126.159 8.87257L126.276 7.87942C125.16 7.74811 123.666 7.684 121.802 7.684V8.684ZM125.718 8.376V9.336H126.718V8.376H125.718ZM126.191 8.83671C117.645 9.29339 110.787 13.2189 105.648 20.5695L106.468 21.1425C111.441 14.0291 118.023 10.2746 126.245 9.83529L126.191 8.83671ZM105.65 20.5674C102.993 24.3258 100.86 28.6923 99.2463 33.6616L100.197 33.9704C101.784 29.0837 103.875 24.8102 106.466 21.1446L105.65 20.5674ZM99.2458 33.6633L81.1978 89.9193L82.15 90.2247L100.198 33.9687L99.2458 33.6633ZM81.1962 89.9243C80.0966 93.4818 79.5419 96.7962 79.5419 99.864H80.5419C80.5419 96.9158 81.0752 93.7022 82.1516 90.2197L81.1962 89.9243ZM79.5419 99.864C79.5419 99.8646 79.5419 99.8652 79.5419 99.8659C79.5419 99.8665 79.5419 99.8671 79.5419 99.8677C79.5419 99.8684 79.5419 99.869 79.5419 99.8696C79.5419 99.8702 79.5419 99.8709 79.5419 99.8715C79.5419 99.8721 79.5419 99.8727 79.5419 99.8734C79.5419 99.874 79.5419 99.8746 79.5419 99.8752C79.5419 99.8759 79.5419 99.8765 79.5419 99.8771C79.5419 99.8777 79.5419 99.8784 79.5419 99.879C79.5419 99.8796 79.5419 99.8802 79.5419 99.8808C79.5419 99.8815 79.5419 99.8821 79.5419 99.8827C79.5419 99.8833 79.5419 99.884 79.5419 99.8846C79.5419 99.8852 79.5419 99.8858 79.5419 99.8864C79.5419 99.8871 79.5419 99.8877 79.5419 99.8883C79.5419 99.8889 79.5419 99.8896 79.5419 99.8902C79.5419 99.8908 79.5419 99.8914 79.5419 99.892C79.5419 99.8927 79.5419 99.8933 79.5419 99.8939C79.5419 99.8945 79.5419 99.8951 79.5419 99.8958C79.5419 99.8964 79.5419 99.897 79.5419 99.8976C79.5419 99.8983 79.5419 99.8989 79.5419 99.8995C79.5419 99.9001 79.5419 99.9007 79.5419 99.9014C79.5419 99.902 79.5419 99.9026 79.5419 99.9032C79.5419 99.9038 79.5419 99.9045 79.5419 99.9051C79.5419 99.9057 79.5419 99.9063 79.5419 99.9069C79.5419 99.9075 79.5419 99.9082 79.5419 99.9088C79.5419 99.9094 79.5419 99.91 79.5419 99.9106C79.5419 99.9113 79.5419 99.9119 79.5419 99.9125C79.5419 99.9131 79.5419 99.9137 79.5419 99.9144C79.5419 99.915 79.5419 99.9156 79.5419 99.9162C79.5419 99.9168 79.5419 99.9174 79.5419 99.9181C79.5419 99.9187 79.5419 99.9193 79.5419 99.9199C79.5419 99.9205 79.5419 99.9212 79.5419 99.9218C79.5419 99.9224 79.5419 99.923 79.5419 99.9236C79.5419 99.9242 79.5419 99.9249 79.5419 99.9255C79.5419 99.9261 79.5419 99.9267 79.5419 99.9273C79.5419 99.9279 79.5419 99.9286 79.5419 99.9292C79.5419 99.9298 79.5419 99.9304 79.5419 99.931C79.5419 99.9316 79.5419 99.9323 79.5419 99.9329C79.5419 99.9335 79.5419 99.9341 79.5419 99.9347C79.5419 99.9353 79.5419 99.936 79.5419 99.9366C79.5419 99.9372 79.5419 99.9378 79.5419 99.9384C79.5419 99.939 79.5419 99.9396 79.5419 99.9403C79.5419 99.9409 79.5419 99.9415 79.5419 99.9421C79.5419 99.9427 79.5419 99.9433 79.5419 99.9439C79.5419 99.9446 79.5419 99.9452 79.5419 99.9458C79.5419 99.9464 79.5419 99.947 79.5419 99.9476C79.5419 99.9482 79.5419 99.9489 79.5419 99.9495C79.5419 99.9501 79.5419 99.9507 79.5419 99.9513C79.5419 99.9519 79.5419 99.9525 79.5419 99.9532C79.5419 99.9538 79.5419 99.9544 79.5419 99.955C79.5419 99.9556 79.5419 99.9562 79.5419 99.9568C79.5419 99.9574 79.5419 99.9581 79.5419 99.9587C79.5419 99.9593 79.5419 99.9599 79.5419 99.9605C79.5419 99.9611 79.5419 99.9617 79.5419 99.9623C79.5419 99.963 79.5419 99.9636 79.5419 99.9642C79.5419 99.9648 79.5419 99.9654 79.5419 99.966C79.5419 99.9666 79.5419 99.9672 79.5419 99.9679C79.5419 99.9685 79.5419 99.9691 79.5419 99.9697C79.5419 99.9703 79.5419 99.9709 79.5419 99.9715C79.5419 99.9721 79.5419 99.9727 79.5419 99.9733C79.5419 99.974 79.5419 99.9746 79.5419 99.9752C79.5419 99.9758 79.5419 99.9764 79.5419 99.977C79.5419 99.9776 79.5419 99.9782 79.5419 99.9788C79.5419 99.9795 79.5419 99.9801 79.5419 99.9807C79.5419 99.9813 79.5419 99.9819 79.5419 99.9825C79.5419 99.9831 79.5419 99.9837 79.5419 99.9843C79.5419 99.9849 79.5419 99.9855 79.5419 99.9862C79.5419 99.9868 79.5419 99.9874 79.5419 99.988C79.5419 99.9886 79.5419 99.9892 79.5419 99.9898C79.5419 99.9904 79.5419 99.991 79.5419 99.9916C79.5419 99.9922 79.5419 99.9928 79.5419 99.9935C79.5419 99.9941 79.5419 99.9947 79.5419 99.9953C79.5419 99.9959 79.5419 99.9965 79.5419 99.9971C79.5419 99.9977 79.5419 99.9983 79.5419 99.9989C79.5419 99.9995 79.5419 100 79.5419 100.001C79.5419 100.001 79.5419 100.002 79.5419 100.003C79.5419 100.003 79.5419 100.004 79.5419 100.004C79.5419 100.005 79.5419 100.006 79.5419 100.006C79.5419 100.007 79.5419 100.007 79.5419 100.008C79.5419 100.009 79.5419 100.009 79.5419 100.01C79.5419 100.01 79.5419 100.011 79.5419 100.012C79.5419 100.012 79.5419 100.013 79.5419 100.013C79.5419 100.014 79.5419 100.015 79.5419 100.015C79.5419 100.016 79.5419 100.016 79.5419 100.017C79.5419 100.018 79.5419 100.018 79.5419 100.019C79.5419 100.02 79.5419 100.02 79.5419 100.021C79.5419 100.021 79.5419 100.022 79.5419 100.023C79.5419 100.023 79.5419 100.024 79.5419 100.024C79.5419 100.025 79.5419 100.026 79.5419 100.026C79.5419 100.027 79.5419 100.027 79.5419 100.028C79.5419 100.029 79.5419 100.029 79.5419 100.03C79.5419 100.03 79.5419 100.031 79.5419 100.032C79.5419 100.032 79.5419 100.033 79.5419 100.033C79.5419 100.034 79.5419 100.035 79.5419 100.035C79.5419 100.036 79.5419 100.036 79.5419 100.037C79.5419 100.038 79.5419 100.038 79.5419 100.039C79.5419 100.039 79.5419 100.04 79.5419 100.041C79.5419 100.041 79.5419 100.042 79.5419 100.042C79.5419 100.043 79.5419 100.044 79.5419 100.044C79.5419 100.045 79.5419 100.045 79.5419 100.046C79.5419 100.047 79.5419 100.047 79.5419 100.048C79.5419 100.048 79.5419 100.049 79.5419 100.05C79.5419 100.05 79.5419 100.051 79.5419 100.051C79.5419 100.052 79.5419 100.053 79.5419 100.053C79.5419 100.054 79.5419 100.054 79.5419 100.055C79.5419 100.056 79.5419 100.056 79.5419 100.057C79.5419 100.057 79.5419 100.058 79.5419 100.059C79.5419 100.059 79.5419 100.06 79.5419 100.06C79.5419 100.061 79.5419 100.062 79.5419 100.062C79.5419 100.063 79.5419 100.063 79.5419 100.064C79.5419 100.065 79.5419 100.065 79.5419 100.066C79.5419 100.066 79.5419 100.067 79.5419 100.068C79.5419 100.068 79.5419 100.069 79.5419 100.069C79.5419 100.07 79.5419 100.071 79.5419 100.071C79.5419 100.072 79.5419 100.072 79.5419 100.073C79.5419 100.074 79.5419 100.074 79.5419 100.075C79.5419 100.075 79.5419 100.076 79.5419 100.077C79.5419 100.077 79.5419 100.078 79.5419 100.078C79.5419 100.079 79.5419 100.08 79.5419 100.08C79.5419 100.081 79.5419 100.081 79.5419 100.082C79.5419 100.083 79.5419 100.083 79.5419 100.084C79.5419 100.084 79.5419 100.085 79.5419 100.086C79.5419 100.086 79.5419 100.087 79.5419 100.087C79.5419 100.088 79.5419 100.088 79.5419 100.089C79.5419 100.09 79.5419 100.09 79.5419 100.091C79.5419 100.091 79.5419 100.092 79.5419 100.093C79.5419 100.093 79.5419 100.094 79.5419 100.094C79.5419 100.095 79.5419 100.096 79.5419 100.096C79.5419 100.097 79.5419 100.097 79.5419 100.098C79.5419 100.099 79.5419 100.099 79.5419 100.1C79.5419 100.1 79.5419 100.101 79.5419 100.102C79.5419 100.102 79.5419 100.103 79.5419 100.103C79.5419 100.104 79.5419 100.105 79.5419 100.105C79.5419 100.106 79.5419 100.106 79.5419 100.107C79.5419 100.107 79.5419 100.108 79.5419 100.109C79.5419 100.109 79.5419 100.11 79.5419 100.11C79.5419 100.111 79.5419 100.112 79.5419 100.112C79.5419 100.113 79.5419 100.113 79.5419 100.114C79.5419 100.115 79.5419 100.115 79.5419 100.116C79.5419 100.116 79.5419 100.117 79.5419 100.118C79.5419 100.118 79.5419 100.119 79.5419 100.119C79.5419 100.12 79.5419 100.121 79.5419 100.121C79.5419 100.122 79.5419 100.122 79.5419 100.123C79.5419 100.123 79.5419 100.124 79.5419 100.125C79.5419 100.125 79.5419 100.126 79.5419 100.126C79.5419 100.127 79.5419 100.128 79.5419 100.128C79.5419 100.129 79.5419 100.129 79.5419 100.13C79.5419 100.131 79.5419 100.131 79.5419 100.132C79.5419 100.132 79.5419 100.133 79.5419 100.133C79.5419 100.134 79.5419 100.135 79.5419 100.135C79.5419 100.136 79.5419 100.136 79.5419 100.137C79.5419 100.138 79.5419 100.138 79.5419 100.139C79.5419 100.139 79.5419 100.14 79.5419 100.141C79.5419 100.141 79.5419 100.142 79.5419 100.142C79.5419 100.143 79.5419 100.143 79.5419 100.144C79.5419 100.145 79.5419 100.145 79.5419 100.146C79.5419 100.146 79.5419 100.147 79.5419 100.148C79.5419 100.148 79.5419 100.149 79.5419 100.149C79.5419 100.15 79.5419 100.151 79.5419 100.151C79.5419 100.152 79.5419 100.152 79.5419 100.153C79.5419 100.153 79.5419 100.154 79.5419 100.155C79.5419 100.155 79.5419 100.156 79.5419 100.156C79.5419 100.157 79.5419 100.158 79.5419 100.158C79.5419 100.159 79.5419 100.159 79.5419 100.16C79.5419 100.16 79.5419 100.161 79.5419 100.162C79.5419 100.162 79.5419 100.163 79.5419 100.163C79.5419 100.164 79.5419 100.165 79.5419 100.165C79.5419 100.166 79.5419 100.166 79.5419 100.167C79.5419 100.167 79.5419 100.168 79.5419 100.169C79.5419 100.169 79.5419 100.17 79.5419 100.17C79.5419 100.171 79.5419 100.172 79.5419 100.172C79.5419 100.173 79.5419 100.173 79.5419 100.174C79.5419 100.174 79.5419 100.175 79.5419 100.176C79.5419 100.176 79.5419 100.177 79.5419 100.177C79.5419 100.178 79.5419 100.179 79.5419 100.179C79.5419 100.18 79.5419 100.18 79.5419 100.181C79.5419 100.181 79.5419 100.182 79.5419 100.183C79.5419 100.183 79.5419 100.184 79.5419 100.184C79.5419 100.185 79.5419 100.186 79.5419 100.186C79.5419 100.187 79.5419 100.187 79.5419 100.188C79.5419 100.188 79.5419 100.189 79.5419 100.19C79.5419 100.19 79.5419 100.191 79.5419 100.191C79.5419 100.192 79.5419 100.193 79.5419 100.193C79.5419 100.194 79.5419 100.194 79.5419 100.195C79.5419 100.195 79.5419 100.196 79.5419 100.197C79.5419 100.197 79.5419 100.198 79.5419 100.198C79.5419 100.199 79.5419 100.2 79.5419 100.2C79.5419 100.201 79.5419 100.201 79.5419 100.202C79.5419 100.202 79.5419 100.203 79.5419 100.204C79.5419 100.204 79.5419 100.205 79.5419 100.205C79.5419 100.206 79.5419 100.206 79.5419 100.207C79.5419 100.208 79.5419 100.208 79.5419 100.209C79.5419 100.209 79.5419 100.21 79.5419 100.211C79.5419 100.211 79.5419 100.212 79.5419 100.212C79.5419 100.213 79.5419 100.213 79.5419 100.214C79.5419 100.215 79.5419 100.215 79.5419 100.216C79.5419 100.216 79.5419 100.217 79.5419 100.217C79.5419 100.218 79.5419 100.219 79.5419 100.219C79.5419 100.22 79.5419 100.22 79.5419 100.221C79.5419 100.221 79.5419 100.222 79.5419 100.223C79.5419 100.223 79.5419 100.224 79.5419 100.224C79.5419 100.225 79.5419 100.226 79.5419 100.226C79.5419 100.227 79.5419 100.227 79.5419 100.228C79.5419 100.228 79.5419 100.229 79.5419 100.23C79.5419 100.23 79.5419 100.231 79.5419 100.231C79.5419 100.232 79.5419 100.232 79.5419 100.233C79.5419 100.234 79.5419 100.234 79.5419 100.235C79.5419 100.235 79.5419 100.236 79.5419 100.236C79.5419 100.237 79.5419 100.238 79.5419 100.238C79.5419 100.239 79.5419 100.239 79.5419 100.24C79.5419 100.24 79.5419 100.241 79.5419 100.242C79.5419 100.242 79.5419 100.243 79.5419 100.243C79.5419 100.244 79.5419 100.244 79.5419 100.245C79.5419 100.246 79.5419 100.246 79.5419 100.247C79.5419 100.247 79.5419 100.248 79.5419 100.248C79.5419 100.249 79.5419 100.25 79.5419 100.25C79.5419 100.251 79.5419 100.251 79.5419 100.252C79.5419 100.252 79.5419 100.253 79.5419 100.254C79.5419 100.254 79.5419 100.255 79.5419 100.255C79.5419 100.256 79.5419 100.256 79.5419 100.257C79.5419 100.258 79.5419 100.258 79.5419 100.259C79.5419 100.259 79.5419 100.26 79.5419 100.26C79.5419 100.261 79.5419 100.262 79.5419 100.262C79.5419 100.263 79.5419 100.263 79.5419 100.264C79.5419 100.264 79.5419 100.265 79.5419 100.266C79.5419 100.266 79.5419 100.267 79.5419 100.267C79.5419 100.268 79.5419 100.268 79.5419 100.269C79.5419 100.27 79.5419 100.27 79.5419 100.271C79.5419 100.271 79.5419 100.272 79.5419 100.272C79.5419 100.273 79.5419 100.274 79.5419 100.274C79.5419 100.275 79.5419 100.275 79.5419 100.276C79.5419 100.276 79.5419 100.277 79.5419 100.278C79.5419 100.278 79.5419 100.279 79.5419 100.279C79.5419 100.28 79.5419 100.28 79.5419 100.281C79.5419 100.282 79.5419 100.282 79.5419 100.283C79.5419 100.283 79.5419 100.284 79.5419 100.284C79.5419 100.285 79.5419 100.286 79.5419 100.286C79.5419 100.287 79.5419 100.287 79.5419 100.288C79.5419 100.288 79.5419 100.289 79.5419 100.29C79.5419 100.29 79.5419 100.291 79.5419 100.291C79.5419 100.292 79.5419 100.292 79.5419 100.293C79.5419 100.293 79.5419 100.294 79.5419 100.295C79.5419 100.295 79.5419 100.296 79.5419 100.296C79.5419 100.297 79.5419 100.297 79.5419 100.298C79.5419 100.299 79.5419 100.299 79.5419 100.3C79.5419 100.3 79.5419 100.301 79.5419 100.301C79.5419 100.302 79.5419 100.303 79.5419 100.303C79.5419 100.304 79.5419 100.304 79.5419 100.305C79.5419 100.305 79.5419 100.306 79.5419 100.306C79.5419 100.307 79.5419 100.308 79.5419 100.308C79.5419 100.309 79.5419 100.309 79.5419 100.31C79.5419 100.31 79.5419 100.311 79.5419 100.312C79.5419 100.312 79.5419 100.313 79.5419 100.313C79.5419 100.314 79.5419 100.314 79.5419 100.315C79.5419 100.315 79.5419 100.316 79.5419 100.317C79.5419 100.317 79.5419 100.318 79.5419 100.318C79.5419 100.319 79.5419 100.319 79.5419 100.32C79.5419 100.321 79.5419 100.321 79.5419 100.322C79.5419 100.322 79.5419 100.323 79.5419 100.323C79.5419 100.324 79.5419 100.324 79.5419 100.325C79.5419 100.326 79.5419 100.326 79.5419 100.327C79.5419 100.327 79.5419 100.328 79.5419 100.328C79.5419 100.329 79.5419 100.33 79.5419 100.33C79.5419 100.331 79.5419 100.331 79.5419 100.332C79.5419 100.332 79.5419 100.333 79.5419 100.333C79.5419 100.334 79.5419 100.335 79.5419 100.335C79.5419 100.336 79.5419 100.336 79.5419 100.337C79.5419 100.337 79.5419 100.338 79.5419 100.339C79.5419 100.339 79.5419 100.34 79.5419 100.34C79.5419 100.341 79.5419 100.341 79.5419 100.342C79.5419 100.342 79.5419 100.343 79.5419 100.344C79.5419 100.344 79.5419 100.345 79.5419 100.345C79.5419 100.346 79.5419 100.346 79.5419 100.347C79.5419 100.347 79.5419 100.348 79.5419 100.349C79.5419 100.349 79.5419 100.35 79.5419 100.35C79.5419 100.351 79.5419 100.351 79.5419 100.352C79.5419 100.352 79.5419 100.353 79.5419 100.354C79.5419 100.354 79.5419 100.355 79.5419 100.355C79.5419 100.356 79.5419 100.356 79.5419 100.357C79.5419 100.358 79.5419 100.358 79.5419 100.359C79.5419 100.359 79.5419 100.36 79.5419 100.36C79.5419 100.361 79.5419 100.361 79.5419 100.362C79.5419 100.363 79.5419 100.363 79.5419 100.364C79.5419 100.364 79.5419 100.365 79.5419 100.365C79.5419 100.366 79.5419 100.366 79.5419 100.367C79.5419 100.368 79.5419 100.368 79.5419 100.369C79.5419 100.369 79.5419 100.37 79.5419 100.37C79.5419 100.371 79.5419 100.371 79.5419 100.372C79.5419 100.373 79.5419 100.373 79.5419 100.374C79.5419 100.374 79.5419 100.375 79.5419 100.375C79.5419 100.376 79.5419 100.376 79.5419 100.377C79.5419 100.378 79.5419 100.378 79.5419 100.379C79.5419 100.379 79.5419 100.38 79.5419 100.38C79.5419 100.381 79.5419 100.381 79.5419 100.382C79.5419 100.382 79.5419 100.383 79.5419 100.384C79.5419 100.384 79.5419 100.385 79.5419 100.385C79.5419 100.386 79.5419 100.386 79.5419 100.387C79.5419 100.387 79.5419 100.388 79.5419 100.389C79.5419 100.389 79.5419 100.39 79.5419 100.39C79.5419 100.391 79.5419 100.391 79.5419 100.392C79.5419 100.392 79.5419 100.393 79.5419 100.394C79.5419 100.394 79.5419 100.395 79.5419 100.395C79.5419 100.396 79.5419 100.396 79.5419 100.397C79.5419 100.397 79.5419 100.398 79.5419 100.399C79.5419 100.399 79.5419 100.4 79.5419 100.4C79.5419 100.401 79.5419 100.401 79.5419 100.402C79.5419 100.402 79.5419 100.403 79.5419 100.403C79.5419 100.404 79.5419 100.405 79.5419 100.405C79.5419 100.406 79.5419 100.406 79.5419 100.407C79.5419 100.407 79.5419 100.408 79.5419 100.408C79.5419 100.409 79.5419 100.41 79.5419 100.41C79.5419 100.411 79.5419 100.411 79.5419 100.412C79.5419 100.412 79.5419 100.413 79.5419 100.413C79.5419 100.414 79.5419 100.414 79.5419 100.415C79.5419 100.416 79.5419 100.416 79.5419 100.417C79.5419 100.417 79.5419 100.418 79.5419 100.418C79.5419 100.419 79.5419 100.419 79.5419 100.42C79.5419 100.42 79.5419 100.421 79.5419 100.422C79.5419 100.422 79.5419 100.423 79.5419 100.423C79.5419 100.424 79.5419 100.424 79.5419 100.425C79.5419 100.425 79.5419 100.426 79.5419 100.427C79.5419 100.427 79.5419 100.428 79.5419 100.428C79.5419 100.429 79.5419 100.429 79.5419 100.43C79.5419 100.43 79.5419 100.431 79.5419 100.431C79.5419 100.432 79.5419 100.433 79.5419 100.433C79.5419 100.434 79.5419 100.434 79.5419 100.435C79.5419 100.435 79.5419 100.436 79.5419 100.436C79.5419 100.437 79.5419 100.437 79.5419 100.438C79.5419 100.439 79.5419 100.439 79.5419 100.44C79.5419 100.44 79.5419 100.441 79.5419 100.441C79.5419 100.442 79.5419 100.442 79.5419 100.443C79.5419 100.443 79.5419 100.444 79.5419 100.445C79.5419 100.445 79.5419 100.446 79.5419 100.446C79.5419 100.447 79.5419 100.447 79.5419 100.448C79.5419 100.448 79.5419 100.449 79.5419 100.449C79.5419 100.45 79.5419 100.45 79.5419 100.451C79.5419 100.452 79.5419 100.452 79.5419 100.453C79.5419 100.453 79.5419 100.454 79.5419 100.454C79.5419 100.455 79.5419 100.455 79.5419 100.456C79.5419 100.456 79.5419 100.457 79.5419 100.458C79.5419 100.458 79.5419 100.459 79.5419 100.459C79.5419 100.46 79.5419 100.46 79.5419 100.461C79.5419 100.461 79.5419 100.462 79.5419 100.462C79.5419 100.463 79.5419 100.464 79.5419 100.464C79.5419 100.465 79.5419 100.465 79.5419 100.466C79.5419 100.466 79.5419 100.467 79.5419 100.467C79.5419 100.468 79.5419 100.468 79.5419 100.469C79.5419 100.469 79.5419 100.47 79.5419 100.471C79.5419 100.471 79.5419 100.472 79.5419 100.472C79.5419 100.473 79.5419 100.473 79.5419 100.474C79.5419 100.474 79.5419 100.475 79.5419 100.475C79.5419 100.476 79.5419 100.476 79.5419 100.477C79.5419 100.478 79.5419 100.478 79.5419 100.479C79.5419 100.479 79.5419 100.48 79.5419 100.48C79.5419 100.481 79.5419 100.481 79.5419 100.482C79.5419 100.482 79.5419 100.483 79.5419 100.483C79.5419 100.484 79.5419 100.485 79.5419 100.485C79.5419 100.486 79.5419 100.486 79.5419 100.487C79.5419 100.487 79.5419 100.488 79.5419 100.488C79.5419 100.489 79.5419 100.489 79.5419 100.49C79.5419 100.49 79.5419 100.491 79.5419 100.492C79.5419 100.492 79.5419 100.493 79.5419 100.493C79.5419 100.494 79.5419 100.494 79.5419 100.495C79.5419 100.495 79.5419 100.496 79.5419 100.496C79.5419 100.497 79.5419 100.497 79.5419 100.498C79.5419 100.499 79.5419 100.499 79.5419 100.5C79.5419 100.5 79.5419 100.501 79.5419 100.501C79.5419 100.502 79.5419 100.502 79.5419 100.503C79.5419 100.503 79.5419 100.504 79.5419 100.504C79.5419 100.505 79.5419 100.505 79.5419 100.506C79.5419 100.507 79.5419 100.507 79.5419 100.508C79.5419 100.508 79.5419 100.509 79.5419 100.509C79.5419 100.51 79.5419 100.51 79.5419 100.511C79.5419 100.511 79.5419 100.512 79.5419 100.512C79.5419 100.513 79.5419 100.513 79.5419 100.514C79.5419 100.515 79.5419 100.515 79.5419 100.516C79.5419 100.516 79.5419 100.517 79.5419 100.517C79.5419 100.518 79.5419 100.518 79.5419 100.519C79.5419 100.519 79.5419 100.52 79.5419 100.52C79.5419 100.521 79.5419 100.521 79.5419 100.522C79.5419 100.523 79.5419 100.523 79.5419 100.524C79.5419 100.524 79.5419 100.525 79.5419 100.525C79.5419 100.526 79.5419 100.526 79.5419 100.527C79.5419 100.527 79.5419 100.528 79.5419 100.528C79.5419 100.529 79.5419 100.529 79.5419 100.53C79.5419 100.531 79.5419 100.531 79.5419 100.532C79.5419 100.532 79.5419 100.533 79.5419 100.533C79.5419 100.534 79.5419 100.534 79.5419 100.535C79.5419 100.535 79.5419 100.536 79.5419 100.536C79.5419 100.537 79.5419 100.537 79.5419 100.538C79.5419 100.538 79.5419 100.539 79.5419 100.54C79.5419 100.54 79.5419 100.541 79.5419 100.541C79.5419 100.542 79.5419 100.542 79.5419 100.543C79.5419 100.543 79.5419 100.544 79.5419 100.544C79.5419 100.545 79.5419 100.545 79.5419 100.546C79.5419 100.546 79.5419 100.547 79.5419 100.547C79.5419 100.548 79.5419 100.549 79.5419 100.549C79.5419 100.55 79.5419 100.55 79.5419 100.551C79.5419 100.551 79.5419 100.552 79.5419 100.552C79.5419 100.553 79.5419 100.553 79.5419 100.554C79.5419 100.554 79.5419 100.555 79.5419 100.555C79.5419 100.556 79.5419 100.556 79.5419 100.557C79.5419 100.558 79.5419 100.558 79.5419 100.559C79.5419 100.559 79.5419 100.56 79.5419 100.56C79.5419 100.561 79.5419 100.561 79.5419 100.562C79.5419 100.562 79.5419 100.563 79.5419 100.563C79.5419 100.564 79.5419 100.564 79.5419 100.565C79.5419 100.565 79.5419 100.566 79.5419 100.566C79.5419 100.567 79.5419 100.568 79.5419 100.568C79.5419 100.569 79.5419 100.569 79.5419 100.57C79.5419 100.57 79.5419 100.571 79.5419 100.571C79.5419 100.572 79.5419 100.572 79.5419 100.573C79.5419 100.573 79.5419 100.574 79.5419 100.574C79.5419 100.575 79.5419 100.575 79.5419 100.576C79.5419 100.576 79.5419 100.577 79.5419 100.577C79.5419 100.578 79.5419 100.579 79.5419 100.579C79.5419 100.58 79.5419 100.58 79.5419 100.581C79.5419 100.581 79.5419 100.582 79.5419 100.582C79.5419 100.583 79.5419 100.583 79.5419 100.584C79.5419 100.584 79.5419 100.585 79.5419 100.585C79.5419 100.586 79.5419 100.586 79.5419 100.587C79.5419 100.587 79.5419 100.588 79.5419 100.588C79.5419 100.589 79.5419 100.59 79.5419 100.59C79.5419 100.591 79.5419 100.591 79.5419 100.592C79.5419 100.592 79.5419 100.593 79.5419 100.593C79.5419 100.594 79.5419 100.594 79.5419 100.595C79.5419 100.595 79.5419 100.596 79.5419 100.596C79.5419 100.597 79.5419 100.597 79.5419 100.598C79.5419 100.598 79.5419 100.599 79.5419 100.599C79.5419 100.6 79.5419 100.6 79.5419 100.601C79.5419 100.602 79.5419 100.602 79.5419 100.603C79.5419 100.603 79.5419 100.604 79.5419 100.604C79.5419 100.605 79.5419 100.605 79.5419 100.606C79.5419 100.606 79.5419 100.607 79.5419 100.607C79.5419 100.608 79.5419 100.608 79.5419 100.609C79.5419 100.609 79.5419 100.61 79.5419 100.61C79.5419 100.611 79.5419 100.611 79.5419 100.612C79.5419 100.612 79.5419 100.613 79.5419 100.613C79.5419 100.614 79.5419 100.614 79.5419 100.615C79.5419 100.616 79.5419 100.616 79.5419 100.617C79.5419 100.617 79.5419 100.618 79.5419 100.618C79.5419 100.619 79.5419 100.619 79.5419 100.62C79.5419 100.62 79.5419 100.621 79.5419 100.621C79.5419 100.622 79.5419 100.622 79.5419 100.623C79.5419 100.623 79.5419 100.624 79.5419 100.624C79.5419 100.625 79.5419 100.625 79.5419 100.626C79.5419 100.626 79.5419 100.627 79.5419 100.627C79.5419 100.628 79.5419 100.628 79.5419 100.629C79.5419 100.629 79.5419 100.63 79.5419 100.631C79.5419 100.631 79.5419 100.632 79.5419 100.632C79.5419 100.633 79.5419 100.633 79.5419 100.634C79.5419 100.634 79.5419 100.635 79.5419 100.635C79.5419 100.636 79.5419 100.636 79.5419 100.637C79.5419 100.637 79.5419 100.638 79.5419 100.638C79.5419 100.639 79.5419 100.639 79.5419 100.64C79.5419 100.64 79.5419 100.641 79.5419 100.641C79.5419 100.642 79.5419 100.642 79.5419 100.643C79.5419 100.643 79.5419 100.644 79.5419 100.644C79.5419 100.645 79.5419 100.645 79.5419 100.646C79.5419 100.646 79.5419 100.647 79.5419 100.647C79.5419 100.648 79.5419 100.649 79.5419 100.649C79.5419 100.65 79.5419 100.65 79.5419 100.651C79.5419 100.651 79.5419 100.652 79.5419 100.652C79.5419 100.653 79.5419 100.653 79.5419 100.654C79.5419 100.654 79.5419 100.655 79.5419 100.655C79.5419 100.656 79.5419 100.656 79.5419 100.657C79.5419 100.657 79.5419 100.658 79.5419 100.658C79.5419 100.659 79.5419 100.659 79.5419 100.66C79.5419 100.66 79.5419 100.661 79.5419 100.661C79.5419 100.662 79.5419 100.662 79.5419 100.663C79.5419 100.663 79.5419 100.664 79.5419 100.664C79.5419 100.665 79.5419 100.665 79.5419 100.666C79.5419 100.666 79.5419 100.667 79.5419 100.667C79.5419 100.668 79.5419 100.668 79.5419 100.669C79.5419 100.669 79.5419 100.67 79.5419 100.67C79.5419 100.671 79.5419 100.671 79.5419 100.672C79.5419 100.673 79.5419 100.673 79.5419 100.674C79.5419 100.674 79.5419 100.675 79.5419 100.675C79.5419 100.676 79.5419 100.676 79.5419 100.677C79.5419 100.677 79.5419 100.678 79.5419 100.678C79.5419 100.679 79.5419 100.679 79.5419 100.68C79.5419 100.68 79.5419 100.681 79.5419 100.681C79.5419 100.682 79.5419 100.682 79.5419 100.683C79.5419 100.683 79.5419 100.684 79.5419 100.684C79.5419 100.685 79.5419 100.685 79.5419 100.686C79.5419 100.686 79.5419 100.687 79.5419 100.687C79.5419 100.688 79.5419 100.688 79.5419 100.689C79.5419 100.689 79.5419 100.69 79.5419 100.69C79.5419 100.691 79.5419 100.691 79.5419 100.692C79.5419 100.692 79.5419 100.693 79.5419 100.693C79.5419 100.694 79.5419 100.694 79.5419 100.695C79.5419 100.695 79.5419 100.696 79.5419 100.696C79.5419 100.697 79.5419 100.697 79.5419 100.698C79.5419 100.698 79.5419 100.699 79.5419 100.699C79.5419 100.7 79.5419 100.7 79.5419 100.701C79.5419 100.701 79.5419 100.702 79.5419 100.702C79.5419 100.703 79.5419 100.703 79.5419 100.704C79.5419 100.704 79.5419 100.705 79.5419 100.705C79.5419 100.706 79.5419 100.706 79.5419 100.707C79.5419 100.707 79.5419 100.708 79.5419 100.708C79.5419 100.709 79.5419 100.709 79.5419 100.71C79.5419 100.71 79.5419 100.711 79.5419 100.711C79.5419 100.712 79.5419 100.712 79.5419 100.713C79.5419 100.713 79.5419 100.714 79.5419 100.714C79.5419 100.715 79.5419 100.715 79.5419 100.716C79.5419 100.716 79.5419 100.717 79.5419 100.717C79.5419 100.718 79.5419 100.718 79.5419 100.719C79.5419 100.719 79.5419 100.72 79.5419 100.72C79.5419 100.721 79.5419 100.721 79.5419 100.722C79.5419 100.722 79.5419 100.723 79.5419 100.724C79.5419 100.724 79.5419 100.725 79.5419 100.725C79.5419 100.726 79.5419 100.726 79.5419 100.727C79.5419 100.727 79.5419 100.728 79.5419 100.728H80.5419C80.5419 100.728 80.5419 100.727 80.5419 100.727C80.5419 100.726 80.5419 100.726 80.5419 100.725C80.5419 100.725 80.5419 100.724 80.5419 100.724C80.5419 100.723 80.5419 100.722 80.5419 100.722C80.5419 100.721 80.5419 100.721 80.5419 100.72C80.5419 100.72 80.5419 100.719 80.5419 100.719C80.5419 100.718 80.5419 100.718 80.5419 100.717C80.5419 100.717 80.5419 100.716 80.5419 100.716C80.5419 100.715 80.5419 100.715 80.5419 100.714C80.5419 100.714 80.5419 100.713 80.5419 100.713C80.5419 100.712 80.5419 100.712 80.5419 100.711C80.5419 100.711 80.5419 100.71 80.5419 100.71C80.5419 100.709 80.5419 100.709 80.5419 100.708C80.5419 100.708 80.5419 100.707 80.5419 100.707C80.5419 100.706 80.5419 100.706 80.5419 100.705C80.5419 100.705 80.5419 100.704 80.5419 100.704C80.5419 100.703 80.5419 100.703 80.5419 100.702C80.5419 100.702 80.5419 100.701 80.5419 100.701C80.5419 100.7 80.5419 100.7 80.5419 100.699C80.5419 100.699 80.5419 100.698 80.5419 100.698C80.5419 100.697 80.5419 100.697 80.5419 100.696C80.5419 100.696 80.5419 100.695 80.5419 100.695C80.5419 100.694 80.5419 100.694 80.5419 100.693C80.5419 100.693 80.5419 100.692 80.5419 100.692C80.5419 100.691 80.5419 100.691 80.5419 100.69C80.5419 100.69 80.5419 100.689 80.5419 100.689C80.5419 100.688 80.5419 100.688 80.5419 100.687C80.5419 100.687 80.5419 100.686 80.5419 100.686C80.5419 100.685 80.5419 100.685 80.5419 100.684C80.5419 100.684 80.5419 100.683 80.5419 100.683C80.5419 100.682 80.5419 100.682 80.5419 100.681C80.5419 100.681 80.5419 100.68 80.5419 100.68C80.5419 100.679 80.5419 100.679 80.5419 100.678C80.5419 100.678 80.5419 100.677 80.5419 100.677C80.5419 100.676 80.5419 100.676 80.5419 100.675C80.5419 100.675 80.5419 100.674 80.5419 100.674C80.5419 100.673 80.5419 100.673 80.5419 100.672C80.5419 100.671 80.5419 100.671 80.5419 100.67C80.5419 100.67 80.5419 100.669 80.5419 100.669C80.5419 100.668 80.5419 100.668 80.5419 100.667C80.5419 100.667 80.5419 100.666 80.5419 100.666C80.5419 100.665 80.5419 100.665 80.5419 100.664C80.5419 100.664 80.5419 100.663 80.5419 100.663C80.5419 100.662 80.5419 100.662 80.5419 100.661C80.5419 100.661 80.5419 100.66 80.5419 100.66C80.5419 100.659 80.5419 100.659 80.5419 100.658C80.5419 100.658 80.5419 100.657 80.5419 100.657C80.5419 100.656 80.5419 100.656 80.5419 100.655C80.5419 100.655 80.5419 100.654 80.5419 100.654C80.5419 100.653 80.5419 100.653 80.5419 100.652C80.5419 100.652 80.5419 100.651 80.5419 100.651C80.5419 100.65 80.5419 100.65 80.5419 100.649C80.5419 100.649 80.5419 100.648 80.5419 100.647C80.5419 100.647 80.5419 100.646 80.5419 100.646C80.5419 100.645 80.5419 100.645 80.5419 100.644C80.5419 100.644 80.5419 100.643 80.5419 100.643C80.5419 100.642 80.5419 100.642 80.5419 100.641C80.5419 100.641 80.5419 100.64 80.5419 100.64C80.5419 100.639 80.5419 100.639 80.5419 100.638C80.5419 100.638 80.5419 100.637 80.5419 100.637C80.5419 100.636 80.5419 100.636 80.5419 100.635C80.5419 100.635 80.5419 100.634 80.5419 100.634C80.5419 100.633 80.5419 100.633 80.5419 100.632C80.5419 100.632 80.5419 100.631 80.5419 100.631C80.5419 100.63 80.5419 100.629 80.5419 100.629C80.5419 100.628 80.5419 100.628 80.5419 100.627C80.5419 100.627 80.5419 100.626 80.5419 100.626C80.5419 100.625 80.5419 100.625 80.5419 100.624C80.5419 100.624 80.5419 100.623 80.5419 100.623C80.5419 100.622 80.5419 100.622 80.5419 100.621C80.5419 100.621 80.5419 100.62 80.5419 100.62C80.5419 100.619 80.5419 100.619 80.5419 100.618C80.5419 100.618 80.5419 100.617 80.5419 100.617C80.5419 100.616 80.5419 100.616 80.5419 100.615C80.5419 100.614 80.5419 100.614 80.5419 100.613C80.5419 100.613 80.5419 100.612 80.5419 100.612C80.5419 100.611 80.5419 100.611 80.5419 100.61C80.5419 100.61 80.5419 100.609 80.5419 100.609C80.5419 100.608 80.5419 100.608 80.5419 100.607C80.5419 100.607 80.5419 100.606 80.5419 100.606C80.5419 100.605 80.5419 100.605 80.5419 100.604C80.5419 100.604 80.5419 100.603 80.5419 100.603C80.5419 100.602 80.5419 100.602 80.5419 100.601C80.5419 100.6 80.5419 100.6 80.5419 100.599C80.5419 100.599 80.5419 100.598 80.5419 100.598C80.5419 100.597 80.5419 100.597 80.5419 100.596C80.5419 100.596 80.5419 100.595 80.5419 100.595C80.5419 100.594 80.5419 100.594 80.5419 100.593C80.5419 100.593 80.5419 100.592 80.5419 100.592C80.5419 100.591 80.5419 100.591 80.5419 100.59C80.5419 100.59 80.5419 100.589 80.5419 100.588C80.5419 100.588 80.5419 100.587 80.5419 100.587C80.5419 100.586 80.5419 100.586 80.5419 100.585C80.5419 100.585 80.5419 100.584 80.5419 100.584C80.5419 100.583 80.5419 100.583 80.5419 100.582C80.5419 100.582 80.5419 100.581 80.5419 100.581C80.5419 100.58 80.5419 100.58 80.5419 100.579C80.5419 100.579 80.5419 100.578 80.5419 100.577C80.5419 100.577 80.5419 100.576 80.5419 100.576C80.5419 100.575 80.5419 100.575 80.5419 100.574C80.5419 100.574 80.5419 100.573 80.5419 100.573C80.5419 100.572 80.5419 100.572 80.5419 100.571C80.5419 100.571 80.5419 100.57 80.5419 100.57C80.5419 100.569 80.5419 100.569 80.5419 100.568C80.5419 100.568 80.5419 100.567 80.5419 100.566C80.5419 100.566 80.5419 100.565 80.5419 100.565C80.5419 100.564 80.5419 100.564 80.5419 100.563C80.5419 100.563 80.5419 100.562 80.5419 100.562C80.5419 100.561 80.5419 100.561 80.5419 100.56C80.5419 100.56 80.5419 100.559 80.5419 100.559C80.5419 100.558 80.5419 100.558 80.5419 100.557C80.5419 100.556 80.5419 100.556 80.5419 100.555C80.5419 100.555 80.5419 100.554 80.5419 100.554C80.5419 100.553 80.5419 100.553 80.5419 100.552C80.5419 100.552 80.5419 100.551 80.5419 100.551C80.5419 100.55 80.5419 100.55 80.5419 100.549C80.5419 100.549 80.5419 100.548 80.5419 100.547C80.5419 100.547 80.5419 100.546 80.5419 100.546C80.5419 100.545 80.5419 100.545 80.5419 100.544C80.5419 100.544 80.5419 100.543 80.5419 100.543C80.5419 100.542 80.5419 100.542 80.5419 100.541C80.5419 100.541 80.5419 100.54 80.5419 100.54C80.5419 100.539 80.5419 100.538 80.5419 100.538C80.5419 100.537 80.5419 100.537 80.5419 100.536C80.5419 100.536 80.5419 100.535 80.5419 100.535C80.5419 100.534 80.5419 100.534 80.5419 100.533C80.5419 100.533 80.5419 100.532 80.5419 100.532C80.5419 100.531 80.5419 100.531 80.5419 100.53C80.5419 100.529 80.5419 100.529 80.5419 100.528C80.5419 100.528 80.5419 100.527 80.5419 100.527C80.5419 100.526 80.5419 100.526 80.5419 100.525C80.5419 100.525 80.5419 100.524 80.5419 100.524C80.5419 100.523 80.5419 100.523 80.5419 100.522C80.5419 100.521 80.5419 100.521 80.5419 100.52C80.5419 100.52 80.5419 100.519 80.5419 100.519C80.5419 100.518 80.5419 100.518 80.5419 100.517C80.5419 100.517 80.5419 100.516 80.5419 100.516C80.5419 100.515 80.5419 100.515 80.5419 100.514C80.5419 100.513 80.5419 100.513 80.5419 100.512C80.5419 100.512 80.5419 100.511 80.5419 100.511C80.5419 100.51 80.5419 100.51 80.5419 100.509C80.5419 100.509 80.5419 100.508 80.5419 100.508C80.5419 100.507 80.5419 100.507 80.5419 100.506C80.5419 100.505 80.5419 100.505 80.5419 100.504C80.5419 100.504 80.5419 100.503 80.5419 100.503C80.5419 100.502 80.5419 100.502 80.5419 100.501C80.5419 100.501 80.5419 100.5 80.5419 100.5C80.5419 100.499 80.5419 100.499 80.5419 100.498C80.5419 100.497 80.5419 100.497 80.5419 100.496C80.5419 100.496 80.5419 100.495 80.5419 100.495C80.5419 100.494 80.5419 100.494 80.5419 100.493C80.5419 100.493 80.5419 100.492 80.5419 100.492C80.5419 100.491 80.5419 100.49 80.5419 100.49C80.5419 100.489 80.5419 100.489 80.5419 100.488C80.5419 100.488 80.5419 100.487 80.5419 100.487C80.5419 100.486 80.5419 100.486 80.5419 100.485C80.5419 100.485 80.5419 100.484 80.5419 100.483C80.5419 100.483 80.5419 100.482 80.5419 100.482C80.5419 100.481 80.5419 100.481 80.5419 100.48C80.5419 100.48 80.5419 100.479 80.5419 100.479C80.5419 100.478 80.5419 100.478 80.5419 100.477C80.5419 100.476 80.5419 100.476 80.5419 100.475C80.5419 100.475 80.5419 100.474 80.5419 100.474C80.5419 100.473 80.5419 100.473 80.5419 100.472C80.5419 100.472 80.5419 100.471 80.5419 100.471C80.5419 100.47 80.5419 100.469 80.5419 100.469C80.5419 100.468 80.5419 100.468 80.5419 100.467C80.5419 100.467 80.5419 100.466 80.5419 100.466C80.5419 100.465 80.5419 100.465 80.5419 100.464C80.5419 100.464 80.5419 100.463 80.5419 100.462C80.5419 100.462 80.5419 100.461 80.5419 100.461C80.5419 100.46 80.5419 100.46 80.5419 100.459C80.5419 100.459 80.5419 100.458 80.5419 100.458C80.5419 100.457 80.5419 100.456 80.5419 100.456C80.5419 100.455 80.5419 100.455 80.5419 100.454C80.5419 100.454 80.5419 100.453 80.5419 100.453C80.5419 100.452 80.5419 100.452 80.5419 100.451C80.5419 100.45 80.5419 100.45 80.5419 100.449C80.5419 100.449 80.5419 100.448 80.5419 100.448C80.5419 100.447 80.5419 100.447 80.5419 100.446C80.5419 100.446 80.5419 100.445 80.5419 100.445C80.5419 100.444 80.5419 100.443 80.5419 100.443C80.5419 100.442 80.5419 100.442 80.5419 100.441C80.5419 100.441 80.5419 100.44 80.5419 100.44C80.5419 100.439 80.5419 100.439 80.5419 100.438C80.5419 100.437 80.5419 100.437 80.5419 100.436C80.5419 100.436 80.5419 100.435 80.5419 100.435C80.5419 100.434 80.5419 100.434 80.5419 100.433C80.5419 100.433 80.5419 100.432 80.5419 100.431C80.5419 100.431 80.5419 100.43 80.5419 100.43C80.5419 100.429 80.5419 100.429 80.5419 100.428C80.5419 100.428 80.5419 100.427 80.5419 100.427C80.5419 100.426 80.5419 100.425 80.5419 100.425C80.5419 100.424 80.5419 100.424 80.5419 100.423C80.5419 100.423 80.5419 100.422 80.5419 100.422C80.5419 100.421 80.5419 100.42 80.5419 100.42C80.5419 100.419 80.5419 100.419 80.5419 100.418C80.5419 100.418 80.5419 100.417 80.5419 100.417C80.5419 100.416 80.5419 100.416 80.5419 100.415C80.5419 100.414 80.5419 100.414 80.5419 100.413C80.5419 100.413 80.5419 100.412 80.5419 100.412C80.5419 100.411 80.5419 100.411 80.5419 100.41C80.5419 100.41 80.5419 100.409 80.5419 100.408C80.5419 100.408 80.5419 100.407 80.5419 100.407C80.5419 100.406 80.5419 100.406 80.5419 100.405C80.5419 100.405 80.5419 100.404 80.5419 100.403C80.5419 100.403 80.5419 100.402 80.5419 100.402C80.5419 100.401 80.5419 100.401 80.5419 100.4C80.5419 100.4 80.5419 100.399 80.5419 100.399C80.5419 100.398 80.5419 100.397 80.5419 100.397C80.5419 100.396 80.5419 100.396 80.5419 100.395C80.5419 100.395 80.5419 100.394 80.5419 100.394C80.5419 100.393 80.5419 100.392 80.5419 100.392C80.5419 100.391 80.5419 100.391 80.5419 100.39C80.5419 100.39 80.5419 100.389 80.5419 100.389C80.5419 100.388 80.5419 100.387 80.5419 100.387C80.5419 100.386 80.5419 100.386 80.5419 100.385C80.5419 100.385 80.5419 100.384 80.5419 100.384C80.5419 100.383 80.5419 100.382 80.5419 100.382C80.5419 100.381 80.5419 100.381 80.5419 100.38C80.5419 100.38 80.5419 100.379 80.5419 100.379C80.5419 100.378 80.5419 100.378 80.5419 100.377C80.5419 100.376 80.5419 100.376 80.5419 100.375C80.5419 100.375 80.5419 100.374 80.5419 100.374C80.5419 100.373 80.5419 100.373 80.5419 100.372C80.5419 100.371 80.5419 100.371 80.5419 100.37C80.5419 100.37 80.5419 100.369 80.5419 100.369C80.5419 100.368 80.5419 100.368 80.5419 100.367C80.5419 100.366 80.5419 100.366 80.5419 100.365C80.5419 100.365 80.5419 100.364 80.5419 100.364C80.5419 100.363 80.5419 100.363 80.5419 100.362C80.5419 100.361 80.5419 100.361 80.5419 100.36C80.5419 100.36 80.5419 100.359 80.5419 100.359C80.5419 100.358 80.5419 100.358 80.5419 100.357C80.5419 100.356 80.5419 100.356 80.5419 100.355C80.5419 100.355 80.5419 100.354 80.5419 100.354C80.5419 100.353 80.5419 100.352 80.5419 100.352C80.5419 100.351 80.5419 100.351 80.5419 100.35C80.5419 100.35 80.5419 100.349 80.5419 100.349C80.5419 100.348 80.5419 100.347 80.5419 100.347C80.5419 100.346 80.5419 100.346 80.5419 100.345C80.5419 100.345 80.5419 100.344 80.5419 100.344C80.5419 100.343 80.5419 100.342 80.5419 100.342C80.5419 100.341 80.5419 100.341 80.5419 100.34C80.5419 100.34 80.5419 100.339 80.5419 100.339C80.5419 100.338 80.5419 100.337 80.5419 100.337C80.5419 100.336 80.5419 100.336 80.5419 100.335C80.5419 100.335 80.5419 100.334 80.5419 100.333C80.5419 100.333 80.5419 100.332 80.5419 100.332C80.5419 100.331 80.5419 100.331 80.5419 100.33C80.5419 100.33 80.5419 100.329 80.5419 100.328C80.5419 100.328 80.5419 100.327 80.5419 100.327C80.5419 100.326 80.5419 100.326 80.5419 100.325C80.5419 100.324 80.5419 100.324 80.5419 100.323C80.5419 100.323 80.5419 100.322 80.5419 100.322C80.5419 100.321 80.5419 100.321 80.5419 100.32C80.5419 100.319 80.5419 100.319 80.5419 100.318C80.5419 100.318 80.5419 100.317 80.5419 100.317C80.5419 100.316 80.5419 100.315 80.5419 100.315C80.5419 100.314 80.5419 100.314 80.5419 100.313C80.5419 100.313 80.5419 100.312 80.5419 100.312C80.5419 100.311 80.5419 100.31 80.5419 100.31C80.5419 100.309 80.5419 100.309 80.5419 100.308C80.5419 100.308 80.5419 100.307 80.5419 100.306C80.5419 100.306 80.5419 100.305 80.5419 100.305C80.5419 100.304 80.5419 100.304 80.5419 100.303C80.5419 100.303 80.5419 100.302 80.5419 100.301C80.5419 100.301 80.5419 100.3 80.5419 100.3C80.5419 100.299 80.5419 100.299 80.5419 100.298C80.5419 100.297 80.5419 100.297 80.5419 100.296C80.5419 100.296 80.5419 100.295 80.5419 100.295C80.5419 100.294 80.5419 100.293 80.5419 100.293C80.5419 100.292 80.5419 100.292 80.5419 100.291C80.5419 100.291 80.5419 100.29 80.5419 100.29C80.5419 100.289 80.5419 100.288 80.5419 100.288C80.5419 100.287 80.5419 100.287 80.5419 100.286C80.5419 100.286 80.5419 100.285 80.5419 100.284C80.5419 100.284 80.5419 100.283 80.5419 100.283C80.5419 100.282 80.5419 100.282 80.5419 100.281C80.5419 100.28 80.5419 100.28 80.5419 100.279C80.5419 100.279 80.5419 100.278 80.5419 100.278C80.5419 100.277 80.5419 100.276 80.5419 100.276C80.5419 100.275 80.5419 100.275 80.5419 100.274C80.5419 100.274 80.5419 100.273 80.5419 100.272C80.5419 100.272 80.5419 100.271 80.5419 100.271C80.5419 100.27 80.5419 100.27 80.5419 100.269C80.5419 100.268 80.5419 100.268 80.5419 100.267C80.5419 100.267 80.5419 100.266 80.5419 100.266C80.5419 100.265 80.5419 100.264 80.5419 100.264C80.5419 100.263 80.5419 100.263 80.5419 100.262C80.5419 100.262 80.5419 100.261 80.5419 100.26C80.5419 100.26 80.5419 100.259 80.5419 100.259C80.5419 100.258 80.5419 100.258 80.5419 100.257C80.5419 100.256 80.5419 100.256 80.5419 100.255C80.5419 100.255 80.5419 100.254 80.5419 100.254C80.5419 100.253 80.5419 100.252 80.5419 100.252C80.5419 100.251 80.5419 100.251 80.5419 100.25C80.5419 100.25 80.5419 100.249 80.5419 100.248C80.5419 100.248 80.5419 100.247 80.5419 100.247C80.5419 100.246 80.5419 100.246 80.5419 100.245C80.5419 100.244 80.5419 100.244 80.5419 100.243C80.5419 100.243 80.5419 100.242 80.5419 100.242C80.5419 100.241 80.5419 100.24 80.5419 100.24C80.5419 100.239 80.5419 100.239 80.5419 100.238C80.5419 100.238 80.5419 100.237 80.5419 100.236C80.5419 100.236 80.5419 100.235 80.5419 100.235C80.5419 100.234 80.5419 100.234 80.5419 100.233C80.5419 100.232 80.5419 100.232 80.5419 100.231C80.5419 100.231 80.5419 100.23 80.5419 100.23C80.5419 100.229 80.5419 100.228 80.5419 100.228C80.5419 100.227 80.5419 100.227 80.5419 100.226C80.5419 100.226 80.5419 100.225 80.5419 100.224C80.5419 100.224 80.5419 100.223 80.5419 100.223C80.5419 100.222 80.5419 100.221 80.5419 100.221C80.5419 100.22 80.5419 100.22 80.5419 100.219C80.5419 100.219 80.5419 100.218 80.5419 100.217C80.5419 100.217 80.5419 100.216 80.5419 100.216C80.5419 100.215 80.5419 100.215 80.5419 100.214C80.5419 100.213 80.5419 100.213 80.5419 100.212C80.5419 100.212 80.5419 100.211 80.5419 100.211C80.5419 100.21 80.5419 100.209 80.5419 100.209C80.5419 100.208 80.5419 100.208 80.5419 100.207C80.5419 100.206 80.5419 100.206 80.5419 100.205C80.5419 100.205 80.5419 100.204 80.5419 100.204C80.5419 100.203 80.5419 100.202 80.5419 100.202C80.5419 100.201 80.5419 100.201 80.5419 100.2C80.5419 100.2 80.5419 100.199 80.5419 100.198C80.5419 100.198 80.5419 100.197 80.5419 100.197C80.5419 100.196 80.5419 100.195 80.5419 100.195C80.5419 100.194 80.5419 100.194 80.5419 100.193C80.5419 100.193 80.5419 100.192 80.5419 100.191C80.5419 100.191 80.5419 100.19 80.5419 100.19C80.5419 100.189 80.5419 100.188 80.5419 100.188C80.5419 100.187 80.5419 100.187 80.5419 100.186C80.5419 100.186 80.5419 100.185 80.5419 100.184C80.5419 100.184 80.5419 100.183 80.5419 100.183C80.5419 100.182 80.5419 100.181 80.5419 100.181C80.5419 100.18 80.5419 100.18 80.5419 100.179C80.5419 100.179 80.5419 100.178 80.5419 100.177C80.5419 100.177 80.5419 100.176 80.5419 100.176C80.5419 100.175 80.5419 100.174 80.5419 100.174C80.5419 100.173 80.5419 100.173 80.5419 100.172C80.5419 100.172 80.5419 100.171 80.5419 100.17C80.5419 100.17 80.5419 100.169 80.5419 100.169C80.5419 100.168 80.5419 100.167 80.5419 100.167C80.5419 100.166 80.5419 100.166 80.5419 100.165C80.5419 100.165 80.5419 100.164 80.5419 100.163C80.5419 100.163 80.5419 100.162 80.5419 100.162C80.5419 100.161 80.5419 100.16 80.5419 100.16C80.5419 100.159 80.5419 100.159 80.5419 100.158C80.5419 100.158 80.5419 100.157 80.5419 100.156C80.5419 100.156 80.5419 100.155 80.5419 100.155C80.5419 100.154 80.5419 100.153 80.5419 100.153C80.5419 100.152 80.5419 100.152 80.5419 100.151C80.5419 100.151 80.5419 100.15 80.5419 100.149C80.5419 100.149 80.5419 100.148 80.5419 100.148C80.5419 100.147 80.5419 100.146 80.5419 100.146C80.5419 100.145 80.5419 100.145 80.5419 100.144C80.5419 100.143 80.5419 100.143 80.5419 100.142C80.5419 100.142 80.5419 100.141 80.5419 100.141C80.5419 100.14 80.5419 100.139 80.5419 100.139C80.5419 100.138 80.5419 100.138 80.5419 100.137C80.5419 100.136 80.5419 100.136 80.5419 100.135C80.5419 100.135 80.5419 100.134 80.5419 100.133C80.5419 100.133 80.5419 100.132 80.5419 100.132C80.5419 100.131 80.5419 100.131 80.5419 100.13C80.5419 100.129 80.5419 100.129 80.5419 100.128C80.5419 100.128 80.5419 100.127 80.5419 100.126C80.5419 100.126 80.5419 100.125 80.5419 100.125C80.5419 100.124 80.5419 100.123 80.5419 100.123C80.5419 100.122 80.5419 100.122 80.5419 100.121C80.5419 100.121 80.5419 100.12 80.5419 100.119C80.5419 100.119 80.5419 100.118 80.5419 100.118C80.5419 100.117 80.5419 100.116 80.5419 100.116C80.5419 100.115 80.5419 100.115 80.5419 100.114C80.5419 100.113 80.5419 100.113 80.5419 100.112C80.5419 100.112 80.5419 100.111 80.5419 100.11C80.5419 100.11 80.5419 100.109 80.5419 100.109C80.5419 100.108 80.5419 100.107 80.5419 100.107C80.5419 100.106 80.5419 100.106 80.5419 100.105C80.5419 100.105 80.5419 100.104 80.5419 100.103C80.5419 100.103 80.5419 100.102 80.5419 100.102C80.5419 100.101 80.5419 100.1 80.5419 100.1C80.5419 100.099 80.5419 100.099 80.5419 100.098C80.5419 100.097 80.5419 100.097 80.5419 100.096C80.5419 100.096 80.5419 100.095 80.5419 100.094C80.5419 100.094 80.5419 100.093 80.5419 100.093C80.5419 100.092 80.5419 100.091 80.5419 100.091C80.5419 100.09 80.5419 100.09 80.5419 100.089C80.5419 100.088 80.5419 100.088 80.5419 100.087C80.5419 100.087 80.5419 100.086 80.5419 100.086C80.5419 100.085 80.5419 100.084 80.5419 100.084C80.5419 100.083 80.5419 100.083 80.5419 100.082C80.5419 100.081 80.5419 100.081 80.5419 100.08C80.5419 100.08 80.5419 100.079 80.5419 100.078C80.5419 100.078 80.5419 100.077 80.5419 100.077C80.5419 100.076 80.5419 100.075 80.5419 100.075C80.5419 100.074 80.5419 100.074 80.5419 100.073C80.5419 100.072 80.5419 100.072 80.5419 100.071C80.5419 100.071 80.5419 100.07 80.5419 100.069C80.5419 100.069 80.5419 100.068 80.5419 100.068C80.5419 100.067 80.5419 100.066 80.5419 100.066C80.5419 100.065 80.5419 100.065 80.5419 100.064C80.5419 100.063 80.5419 100.063 80.5419 100.062C80.5419 100.062 80.5419 100.061 80.5419 100.06C80.5419 100.06 80.5419 100.059 80.5419 100.059C80.5419 100.058 80.5419 100.057 80.5419 100.057C80.5419 100.056 80.5419 100.056 80.5419 100.055C80.5419 100.054 80.5419 100.054 80.5419 100.053C80.5419 100.053 80.5419 100.052 80.5419 100.051C80.5419 100.051 80.5419 100.05 80.5419 100.05C80.5419 100.049 80.5419 100.048 80.5419 100.048C80.5419 100.047 80.5419 100.047 80.5419 100.046C80.5419 100.045 80.5419 100.045 80.5419 100.044C80.5419 100.044 80.5419 100.043 80.5419 100.042C80.5419 100.042 80.5419 100.041 80.5419 100.041C80.5419 100.04 80.5419 100.039 80.5419 100.039C80.5419 100.038 80.5419 100.038 80.5419 100.037C80.5419 100.036 80.5419 100.036 80.5419 100.035C80.5419 100.035 80.5419 100.034 80.5419 100.033C80.5419 100.033 80.5419 100.032 80.5419 100.032C80.5419 100.031 80.5419 100.03 80.5419 100.03C80.5419 100.029 80.5419 100.029 80.5419 100.028C80.5419 100.027 80.5419 100.027 80.5419 100.026C80.5419 100.026 80.5419 100.025 80.5419 100.024C80.5419 100.024 80.5419 100.023 80.5419 100.023C80.5419 100.022 80.5419 100.021 80.5419 100.021C80.5419 100.02 80.5419 100.02 80.5419 100.019C80.5419 100.018 80.5419 100.018 80.5419 100.017C80.5419 100.016 80.5419 100.016 80.5419 100.015C80.5419 100.015 80.5419 100.014 80.5419 100.013C80.5419 100.013 80.5419 100.012 80.5419 100.012C80.5419 100.011 80.5419 100.01 80.5419 100.01C80.5419 100.009 80.5419 100.009 80.5419 100.008C80.5419 100.007 80.5419 100.007 80.5419 100.006C80.5419 100.006 80.5419 100.005 80.5419 100.004C80.5419 100.004 80.5419 100.003 80.5419 100.003C80.5419 100.002 80.5419 100.001 80.5419 100.001C80.5419 100 80.5419 99.9995 80.5419 99.9989C80.5419 99.9983 80.5419 99.9977 80.5419 99.9971C80.5419 99.9965 80.5419 99.9959 80.5419 99.9953C80.5419 99.9947 80.5419 99.9941 80.5419 99.9935C80.5419 99.9928 80.5419 99.9922 80.5419 99.9916C80.5419 99.991 80.5419 99.9904 80.5419 99.9898C80.5419 99.9892 80.5419 99.9886 80.5419 99.988C80.5419 99.9874 80.5419 99.9868 80.5419 99.9862C80.5419 99.9855 80.5419 99.9849 80.5419 99.9843C80.5419 99.9837 80.5419 99.9831 80.5419 99.9825C80.5419 99.9819 80.5419 99.9813 80.5419 99.9807C80.5419 99.9801 80.5419 99.9795 80.5419 99.9788C80.5419 99.9782 80.5419 99.9776 80.5419 99.977C80.5419 99.9764 80.5419 99.9758 80.5419 99.9752C80.5419 99.9746 80.5419 99.974 80.5419 99.9733C80.5419 99.9727 80.5419 99.9721 80.5419 99.9715C80.5419 99.9709 80.5419 99.9703 80.5419 99.9697C80.5419 99.9691 80.5419 99.9685 80.5419 99.9679C80.5419 99.9672 80.5419 99.9666 80.5419 99.966C80.5419 99.9654 80.5419 99.9648 80.5419 99.9642C80.5419 99.9636 80.5419 99.963 80.5419 99.9623C80.5419 99.9617 80.5419 99.9611 80.5419 99.9605C80.5419 99.9599 80.5419 99.9593 80.5419 99.9587C80.5419 99.9581 80.5419 99.9574 80.5419 99.9568C80.5419 99.9562 80.5419 99.9556 80.5419 99.955C80.5419 99.9544 80.5419 99.9538 80.5419 99.9532C80.5419 99.9525 80.5419 99.9519 80.5419 99.9513C80.5419 99.9507 80.5419 99.9501 80.5419 99.9495C80.5419 99.9489 80.5419 99.9482 80.5419 99.9476C80.5419 99.947 80.5419 99.9464 80.5419 99.9458C80.5419 99.9452 80.5419 99.9446 80.5419 99.9439C80.5419 99.9433 80.5419 99.9427 80.5419 99.9421C80.5419 99.9415 80.5419 99.9409 80.5419 99.9403C80.5419 99.9396 80.5419 99.939 80.5419 99.9384C80.5419 99.9378 80.5419 99.9372 80.5419 99.9366C80.5419 99.936 80.5419 99.9353 80.5419 99.9347C80.5419 99.9341 80.5419 99.9335 80.5419 99.9329C80.5419 99.9323 80.5419 99.9316 80.5419 99.931C80.5419 99.9304 80.5419 99.9298 80.5419 99.9292C80.5419 99.9286 80.5419 99.9279 80.5419 99.9273C80.5419 99.9267 80.5419 99.9261 80.5419 99.9255C80.5419 99.9249 80.5419 99.9242 80.5419 99.9236C80.5419 99.923 80.5419 99.9224 80.5419 99.9218C80.5419 99.9212 80.5419 99.9205 80.5419 99.9199C80.5419 99.9193 80.5419 99.9187 80.5419 99.9181C80.5419 99.9174 80.5419 99.9168 80.5419 99.9162C80.5419 99.9156 80.5419 99.915 80.5419 99.9144C80.5419 99.9137 80.5419 99.9131 80.5419 99.9125C80.5419 99.9119 80.5419 99.9113 80.5419 99.9106C80.5419 99.91 80.5419 99.9094 80.5419 99.9088C80.5419 99.9082 80.5419 99.9075 80.5419 99.9069C80.5419 99.9063 80.5419 99.9057 80.5419 99.9051C80.5419 99.9045 80.5419 99.9038 80.5419 99.9032C80.5419 99.9026 80.5419 99.902 80.5419 99.9014C80.5419 99.9007 80.5419 99.9001 80.5419 99.8995C80.5419 99.8989 80.5419 99.8983 80.5419 99.8976C80.5419 99.897 80.5419 99.8964 80.5419 99.8958C80.5419 99.8951 80.5419 99.8945 80.5419 99.8939C80.5419 99.8933 80.5419 99.8927 80.5419 99.892C80.5419 99.8914 80.5419 99.8908 80.5419 99.8902C80.5419 99.8896 80.5419 99.8889 80.5419 99.8883C80.5419 99.8877 80.5419 99.8871 80.5419 99.8864C80.5419 99.8858 80.5419 99.8852 80.5419 99.8846C80.5419 99.884 80.5419 99.8833 80.5419 99.8827C80.5419 99.8821 80.5419 99.8815 80.5419 99.8808C80.5419 99.8802 80.5419 99.8796 80.5419 99.879C80.5419 99.8784 80.5419 99.8777 80.5419 99.8771C80.5419 99.8765 80.5419 99.8759 80.5419 99.8752C80.5419 99.8746 80.5419 99.874 80.5419 99.8734C80.5419 99.8727 80.5419 99.8721 80.5419 99.8715C80.5419 99.8709 80.5419 99.8702 80.5419 99.8696C80.5419 99.869 80.5419 99.8684 80.5419 99.8677C80.5419 99.8671 80.5419 99.8665 80.5419 99.8659C80.5419 99.8652 80.5419 99.8646 80.5419 99.864H79.5419ZM80.0419 100.228H79.0819V101.228H80.0419V100.228ZM79.5378 100.523L58.7058 54.2507L57.794 54.6613L78.626 100.933L79.5378 100.523ZM57.789 54.2621L40.701 94.8701L41.6227 95.2579L58.7107 54.6499L57.789 54.2621ZM40.6991 94.8747C38.9931 99.0449 36.494 103.097 33.1948 107.031L33.961 107.673C37.3178 103.671 39.8746 99.5311 41.6247 95.2533L40.6991 94.8747ZM33.1966 107.029C29.6757 111.178 25.411 113.904 20.3949 115.22L20.6488 116.188C25.8728 114.816 30.3121 111.974 33.9591 107.675L33.1966 107.029ZM20.3713 115.227C19.2066 115.595 17.9776 115.78 16.6819 115.78V116.78C18.0742 116.78 19.4052 116.581 20.6724 116.181L20.3713 115.227ZM16.6819 115.78C15.3933 115.78 14.0008 115.565 12.5019 115.128L12.2219 116.088C13.795 116.547 15.2825 116.78 16.6819 116.78V115.78ZM12.8594 115.658L12.9554 114.698L11.9604 114.598L11.8644 115.558L12.8594 115.658ZM12.4849 115.147C14.928 115.015 17.2703 114.354 19.5078 113.17L19.0399 112.286C16.9254 113.406 14.7238 114.025 12.4309 114.149L12.4849 115.147ZM19.5026 113.173C21.7854 111.999 23.7803 110.561 25.4834 108.858L24.7763 108.15C23.1515 109.775 21.2424 111.153 19.0452 112.283L19.5026 113.173ZM25.4764 108.864C27.1665 107.239 28.7868 105.326 30.3384 103.128L29.5214 102.552C28.001 104.706 26.4213 106.569 24.7833 108.144L25.4764 108.864ZM30.3377 103.129C32.8562 99.5776 34.986 95.7047 36.7276 91.5118L35.8041 91.1282C34.0898 95.2553 31.9956 99.0625 29.522 102.551L30.3377 103.129ZM36.7351 91.1474L17.2471 38.1554L16.3086 38.5006L35.7966 91.4926L36.7351 91.1474ZM17.2341 38.1235C16.3658 36.1864 15.1166 34.7241 13.4778 33.7681L12.9739 34.6319C14.4072 35.4679 15.5259 36.7576 16.3216 38.5325L17.2341 38.1235ZM13.4909 33.776C11.8862 32.7731 10.2275 32.26 8.52188 32.26V33.26C10.0162 33.26 11.4936 33.7069 12.9609 34.624L13.4909 33.776ZM8.52188 32.26H7.75388V33.26H8.52188V32.26ZM8.25388 32.76V31.8H7.25388V32.76H8.25388ZM7.75388 32.3H37.0339V31.3H7.75388V32.3ZM36.5339 31.8V32.76H37.5339V31.8H36.5339ZM37.0339 32.26H36.1699V33.26H37.0339V32.26ZM36.1699 32.26C34.7033 32.26 33.5211 32.7561 32.7047 33.7951L33.491 34.4129C34.0827 33.6599 34.9484 33.26 36.1699 33.26V32.26ZM32.7016 33.7991C32.0187 34.6869 31.6379 35.5915 31.6379 36.504H32.6379C32.6379 35.8805 32.8971 35.1851 33.4942 34.4089L32.7016 33.7991ZM31.6379 36.504C31.6379 37.3288 31.7756 38.1227 32.052 38.8829L32.9918 38.5411C32.7562 37.8933 32.6379 37.2152 32.6379 36.504H31.6379ZM32.0506 38.879L43.8586 72.1911L44.8011 71.857L32.9931 38.545L32.0506 38.879ZM44.7915 72.2161L62.1675 30.4561L61.2442 30.0719L43.8682 71.8319L44.7915 72.2161ZM61.6507 30.7609L62.5147 30.8569L62.6251 29.8631L61.7611 29.7671L61.6507 30.7609ZM62.1145 30.5664L81.2185 72.7104L82.1293 72.2976L63.0253 30.1536L62.1145 30.5664ZM82.1547 72.6412L93.1947 33.9532L92.2331 33.6788L81.1931 72.3668L82.1547 72.6412ZM93.1944 33.9541C94.777 28.4468 97.2752 23.5792 100.687 19.3458L99.9086 18.7182C96.4086 23.0608 93.8508 28.0492 92.2333 33.6779L93.1944 33.9541ZM100.689 19.3437C104.663 14.3605 109.342 11.1978 114.726 9.8204L114.478 8.8516C108.854 10.2902 103.997 13.5915 99.907 18.7203L100.689 19.3437Z" fill="#387742"/>
</svg>
