<svg width="126" height="135" viewBox="0 0 126 135" fill="none" xmlns="http://www.w3.org/2000/svg">
<circle cx="57.5" cy="57.5" r="57.5" fill="#387742"/>
<path d="M113.68 9.336C116.624 8.568 119.024 8.184 120.88 8.184C122.736 8.184 124.208 8.248 125.296 8.37599V9.336C116.912 9.784 110.192 13.624 105.136 20.856C102.512 24.568 100.4 28.888 98.8 33.816L80.752 90.072C79.664 93.592 79.12 96.856 79.12 99.864C79.12 100.184 79.12 100.472 79.12 100.728H78.16L57.328 54.456L40.24 95.064C38.512 99.288 35.984 103.384 32.656 107.352C29.072 111.576 24.72 114.36 19.6 115.704C18.384 116.088 17.104 116.28 15.76 116.28C14.416 116.28 12.976 116.056 11.44 115.608L11.536 114.648C13.904 114.52 16.176 113.88 18.352 112.728C20.592 111.576 22.544 110.168 24.208 108.504C25.872 106.904 27.472 105.016 29.008 102.84C31.504 99.32 33.616 95.48 35.344 91.32L15.856 38.328C15.024 36.472 13.84 35.096 12.304 34.2C10.768 33.24 9.2 32.76 7.6 32.76H6.832V31.8H36.112V32.76H35.248C33.904 32.76 32.88 33.208 32.176 34.104C31.536 34.936 31.216 35.736 31.216 36.504C31.216 37.272 31.344 38.008 31.6 38.712L43.408 72.024L60.784 30.264L61.648 30.36L80.752 72.504L91.792 33.816C93.392 28.248 95.92 23.32 99.376 19.032C103.408 13.976 108.176 10.744 113.68 9.336Z" fill="white"/>
<path d="M113.68 9.336L113.804 9.82041L113.806 9.81981L113.68 9.336ZM125.296 8.37599H125.796V7.93137L125.354 7.87942L125.296 8.37599ZM125.296 9.336L125.323 9.83529L125.796 9.80999V9.336H125.296ZM105.136 20.856L105.544 21.1446L105.546 21.1425L105.136 20.856ZM98.8 33.816L98.3244 33.6616L98.3239 33.6633L98.8 33.816ZM80.752 90.072L80.2759 89.9192L80.2743 89.9243L80.752 90.072ZM79.12 100.728V101.228H79.62V100.728H79.12ZM78.16 100.728L77.7041 100.933L77.8368 101.228H78.16V100.728ZM57.328 54.456L57.7839 54.2507L57.3125 53.2037L56.8671 54.2621L57.328 54.456ZM40.24 95.064L39.7791 94.8701L39.7772 94.8747L40.24 95.064ZM32.656 107.352L33.0373 107.675L33.0391 107.673L32.656 107.352ZM19.6 115.704L19.4731 115.22L19.4612 115.224L19.4494 115.227L19.6 115.704ZM11.44 115.608L10.9425 115.558L10.9011 115.972L11.3 116.088L11.44 115.608ZM11.536 114.648L11.509 114.149L11.0811 114.172L11.0385 114.598L11.536 114.648ZM18.352 112.728L18.1233 112.283L18.1181 112.286L18.352 112.728ZM24.208 108.504L23.8614 108.144L23.8544 108.15L24.208 108.504ZM29.008 102.84L28.6001 102.551L28.5995 102.552L29.008 102.84ZM35.344 91.32L35.8057 91.5118L35.8808 91.3311L35.8133 91.1474L35.344 91.32ZM15.856 38.328L16.3253 38.1554L16.3193 38.1392L16.3123 38.1235L15.856 38.328ZM12.304 34.2L12.039 34.624L12.0455 34.628L12.0521 34.6319L12.304 34.2ZM6.832 32.76H6.332V33.26H6.832V32.76ZM6.832 31.8V31.3H6.332V31.8H6.832ZM36.112 31.8H36.612V31.3H36.112V31.8ZM36.112 32.76V33.26H36.612V32.76H36.112ZM32.176 34.104L31.7828 33.7951L31.7797 33.7991L32.176 34.104ZM31.6 38.712L32.0713 38.5449L32.0699 38.5411L31.6 38.712ZM43.408 72.024L42.9367 72.191L43.3707 73.4152L43.8696 72.2161L43.408 72.024ZM60.784 30.264L60.8392 29.7671L60.4665 29.7256L60.3224 30.0719L60.784 30.264ZM61.648 30.36L62.1034 30.1536L61.986 29.8945L61.7032 29.8631L61.648 30.36ZM80.752 72.504L80.2966 72.7104L80.859 73.9511L81.2328 72.6412L80.752 72.504ZM91.792 33.816L91.3115 33.6779L91.3112 33.6788L91.792 33.816ZM99.376 19.032L99.7653 19.3458L99.7669 19.3437L99.376 19.032ZM113.806 9.81981C116.732 9.05665 119.085 8.684 120.88 8.684V7.684C118.963 7.684 116.516 8.07935 113.554 8.85219L113.806 9.81981ZM120.88 8.684C122.728 8.684 124.178 8.74788 125.238 8.87257L125.354 7.87942C124.238 7.74811 122.744 7.684 120.88 7.684V8.684ZM124.796 8.37599V9.336H125.796V8.37599H124.796ZM125.269 8.83671C116.723 9.29339 109.865 13.2189 104.726 20.5695L105.546 21.1425C110.519 14.0291 117.101 10.2746 125.323 9.83529L125.269 8.83671ZM104.728 20.5674C102.071 24.3258 99.9379 28.6923 98.3244 33.6616L99.2756 33.9704C100.862 29.0837 102.953 24.8102 105.544 21.1446L104.728 20.5674ZM98.3239 33.6633L80.2759 89.9193L81.2281 90.2247L99.2761 33.9687L98.3239 33.6633ZM80.2743 89.9243C79.1747 93.4818 78.62 96.7962 78.62 99.864H79.62C79.62 96.9158 80.1533 93.7022 81.2297 90.2197L80.2743 89.9243ZM78.62 99.864C78.62 99.8646 78.62 99.8652 78.62 99.8659C78.62 99.8665 78.62 99.8671 78.62 99.8677C78.62 99.8684 78.62 99.869 78.62 99.8696C78.62 99.8702 78.62 99.8709 78.62 99.8715C78.62 99.8721 78.62 99.8727 78.62 99.8734C78.62 99.874 78.62 99.8746 78.62 99.8752C78.62 99.8759 78.62 99.8765 78.62 99.8771C78.62 99.8777 78.62 99.8784 78.62 99.879C78.62 99.8796 78.62 99.8802 78.62 99.8808C78.62 99.8815 78.62 99.8821 78.62 99.8827C78.62 99.8833 78.62 99.884 78.62 99.8846C78.62 99.8852 78.62 99.8858 78.62 99.8864C78.62 99.8871 78.62 99.8877 78.62 99.8883C78.62 99.8889 78.62 99.8896 78.62 99.8902C78.62 99.8908 78.62 99.8914 78.62 99.892C78.62 99.8927 78.62 99.8933 78.62 99.8939C78.62 99.8945 78.62 99.8951 78.62 99.8958C78.62 99.8964 78.62 99.897 78.62 99.8976C78.62 99.8983 78.62 99.8989 78.62 99.8995C78.62 99.9001 78.62 99.9007 78.62 99.9014C78.62 99.902 78.62 99.9026 78.62 99.9032C78.62 99.9038 78.62 99.9045 78.62 99.9051C78.62 99.9057 78.62 99.9063 78.62 99.9069C78.62 99.9076 78.62 99.9082 78.62 99.9088C78.62 99.9094 78.62 99.91 78.62 99.9106C78.62 99.9113 78.62 99.9119 78.62 99.9125C78.62 99.9131 78.62 99.9137 78.62 99.9144C78.62 99.915 78.62 99.9156 78.62 99.9162C78.62 99.9168 78.62 99.9174 78.62 99.9181C78.62 99.9187 78.62 99.9193 78.62 99.9199C78.62 99.9205 78.62 99.9212 78.62 99.9218C78.62 99.9224 78.62 99.923 78.62 99.9236C78.62 99.9242 78.62 99.9249 78.62 99.9255C78.62 99.9261 78.62 99.9267 78.62 99.9273C78.62 99.9279 78.62 99.9286 78.62 99.9292C78.62 99.9298 78.62 99.9304 78.62 99.931C78.62 99.9316 78.62 99.9323 78.62 99.9329C78.62 99.9335 78.62 99.9341 78.62 99.9347C78.62 99.9353 78.62 99.936 78.62 99.9366C78.62 99.9372 78.62 99.9378 78.62 99.9384C78.62 99.939 78.62 99.9396 78.62 99.9403C78.62 99.9409 78.62 99.9415 78.62 99.9421C78.62 99.9427 78.62 99.9433 78.62 99.9439C78.62 99.9446 78.62 99.9452 78.62 99.9458C78.62 99.9464 78.62 99.947 78.62 99.9476C78.62 99.9482 78.62 99.9489 78.62 99.9495C78.62 99.9501 78.62 99.9507 78.62 99.9513C78.62 99.9519 78.62 99.9525 78.62 99.9532C78.62 99.9538 78.62 99.9544 78.62 99.955C78.62 99.9556 78.62 99.9562 78.62 99.9568C78.62 99.9574 78.62 99.9581 78.62 99.9587C78.62 99.9593 78.62 99.9599 78.62 99.9605C78.62 99.9611 78.62 99.9617 78.62 99.9623C78.62 99.963 78.62 99.9636 78.62 99.9642C78.62 99.9648 78.62 99.9654 78.62 99.966C78.62 99.9666 78.62 99.9672 78.62 99.9679C78.62 99.9685 78.62 99.9691 78.62 99.9697C78.62 99.9703 78.62 99.9709 78.62 99.9715C78.62 99.9721 78.62 99.9727 78.62 99.9734C78.62 99.974 78.62 99.9746 78.62 99.9752C78.62 99.9758 78.62 99.9764 78.62 99.977C78.62 99.9776 78.62 99.9782 78.62 99.9788C78.62 99.9795 78.62 99.9801 78.62 99.9807C78.62 99.9813 78.62 99.9819 78.62 99.9825C78.62 99.9831 78.62 99.9837 78.62 99.9843C78.62 99.9849 78.62 99.9855 78.62 99.9862C78.62 99.9868 78.62 99.9874 78.62 99.988C78.62 99.9886 78.62 99.9892 78.62 99.9898C78.62 99.9904 78.62 99.991 78.62 99.9916C78.62 99.9922 78.62 99.9928 78.62 99.9935C78.62 99.9941 78.62 99.9947 78.62 99.9953C78.62 99.9959 78.62 99.9965 78.62 99.9971C78.62 99.9977 78.62 99.9983 78.62 99.9989C78.62 99.9995 78.62 100 78.62 100.001C78.62 100.001 78.62 100.002 78.62 100.003C78.62 100.003 78.62 100.004 78.62 100.004C78.62 100.005 78.62 100.006 78.62 100.006C78.62 100.007 78.62 100.007 78.62 100.008C78.62 100.009 78.62 100.009 78.62 100.01C78.62 100.01 78.62 100.011 78.62 100.012C78.62 100.012 78.62 100.013 78.62 100.013C78.62 100.014 78.62 100.015 78.62 100.015C78.62 100.016 78.62 100.016 78.62 100.017C78.62 100.018 78.62 100.018 78.62 100.019C78.62 100.02 78.62 100.02 78.62 100.021C78.62 100.021 78.62 100.022 78.62 100.023C78.62 100.023 78.62 100.024 78.62 100.024C78.62 100.025 78.62 100.026 78.62 100.026C78.62 100.027 78.62 100.027 78.62 100.028C78.62 100.029 78.62 100.029 78.62 100.03C78.62 100.03 78.62 100.031 78.62 100.032C78.62 100.032 78.62 100.033 78.62 100.033C78.62 100.034 78.62 100.035 78.62 100.035C78.62 100.036 78.62 100.036 78.62 100.037C78.62 100.038 78.62 100.038 78.62 100.039C78.62 100.039 78.62 100.04 78.62 100.041C78.62 100.041 78.62 100.042 78.62 100.042C78.62 100.043 78.62 100.044 78.62 100.044C78.62 100.045 78.62 100.045 78.62 100.046C78.62 100.047 78.62 100.047 78.62 100.048C78.62 100.048 78.62 100.049 78.62 100.05C78.62 100.05 78.62 100.051 78.62 100.051C78.62 100.052 78.62 100.053 78.62 100.053C78.62 100.054 78.62 100.054 78.62 100.055C78.62 100.056 78.62 100.056 78.62 100.057C78.62 100.057 78.62 100.058 78.62 100.059C78.62 100.059 78.62 100.06 78.62 100.06C78.62 100.061 78.62 100.062 78.62 100.062C78.62 100.063 78.62 100.063 78.62 100.064C78.62 100.065 78.62 100.065 78.62 100.066C78.62 100.066 78.62 100.067 78.62 100.068C78.62 100.068 78.62 100.069 78.62 100.069C78.62 100.07 78.62 100.071 78.62 100.071C78.62 100.072 78.62 100.072 78.62 100.073C78.62 100.074 78.62 100.074 78.62 100.075C78.62 100.075 78.62 100.076 78.62 100.077C78.62 100.077 78.62 100.078 78.62 100.078C78.62 100.079 78.62 100.08 78.62 100.08C78.62 100.081 78.62 100.081 78.62 100.082C78.62 100.083 78.62 100.083 78.62 100.084C78.62 100.084 78.62 100.085 78.62 100.086C78.62 100.086 78.62 100.087 78.62 100.087C78.62 100.088 78.62 100.088 78.62 100.089C78.62 100.09 78.62 100.09 78.62 100.091C78.62 100.091 78.62 100.092 78.62 100.093C78.62 100.093 78.62 100.094 78.62 100.094C78.62 100.095 78.62 100.096 78.62 100.096C78.62 100.097 78.62 100.097 78.62 100.098C78.62 100.099 78.62 100.099 78.62 100.1C78.62 100.1 78.62 100.101 78.62 100.102C78.62 100.102 78.62 100.103 78.62 100.103C78.62 100.104 78.62 100.105 78.62 100.105C78.62 100.106 78.62 100.106 78.62 100.107C78.62 100.107 78.62 100.108 78.62 100.109C78.62 100.109 78.62 100.11 78.62 100.11C78.62 100.111 78.62 100.112 78.62 100.112C78.62 100.113 78.62 100.113 78.62 100.114C78.62 100.115 78.62 100.115 78.62 100.116C78.62 100.116 78.62 100.117 78.62 100.118C78.62 100.118 78.62 100.119 78.62 100.119C78.62 100.12 78.62 100.121 78.62 100.121C78.62 100.122 78.62 100.122 78.62 100.123C78.62 100.123 78.62 100.124 78.62 100.125C78.62 100.125 78.62 100.126 78.62 100.126C78.62 100.127 78.62 100.128 78.62 100.128C78.62 100.129 78.62 100.129 78.62 100.13C78.62 100.131 78.62 100.131 78.62 100.132C78.62 100.132 78.62 100.133 78.62 100.133C78.62 100.134 78.62 100.135 78.62 100.135C78.62 100.136 78.62 100.136 78.62 100.137C78.62 100.138 78.62 100.138 78.62 100.139C78.62 100.139 78.62 100.14 78.62 100.141C78.62 100.141 78.62 100.142 78.62 100.142C78.62 100.143 78.62 100.143 78.62 100.144C78.62 100.145 78.62 100.145 78.62 100.146C78.62 100.146 78.62 100.147 78.62 100.148C78.62 100.148 78.62 100.149 78.62 100.149C78.62 100.15 78.62 100.151 78.62 100.151C78.62 100.152 78.62 100.152 78.62 100.153C78.62 100.153 78.62 100.154 78.62 100.155C78.62 100.155 78.62 100.156 78.62 100.156C78.62 100.157 78.62 100.158 78.62 100.158C78.62 100.159 78.62 100.159 78.62 100.16C78.62 100.16 78.62 100.161 78.62 100.162C78.62 100.162 78.62 100.163 78.62 100.163C78.62 100.164 78.62 100.165 78.62 100.165C78.62 100.166 78.62 100.166 78.62 100.167C78.62 100.167 78.62 100.168 78.62 100.169C78.62 100.169 78.62 100.17 78.62 100.17C78.62 100.171 78.62 100.172 78.62 100.172C78.62 100.173 78.62 100.173 78.62 100.174C78.62 100.174 78.62 100.175 78.62 100.176C78.62 100.176 78.62 100.177 78.62 100.177C78.62 100.178 78.62 100.179 78.62 100.179C78.62 100.18 78.62 100.18 78.62 100.181C78.62 100.181 78.62 100.182 78.62 100.183C78.62 100.183 78.62 100.184 78.62 100.184C78.62 100.185 78.62 100.186 78.62 100.186C78.62 100.187 78.62 100.187 78.62 100.188C78.62 100.188 78.62 100.189 78.62 100.19C78.62 100.19 78.62 100.191 78.62 100.191C78.62 100.192 78.62 100.193 78.62 100.193C78.62 100.194 78.62 100.194 78.62 100.195C78.62 100.195 78.62 100.196 78.62 100.197C78.62 100.197 78.62 100.198 78.62 100.198C78.62 100.199 78.62 100.2 78.62 100.2C78.62 100.201 78.62 100.201 78.62 100.202C78.62 100.202 78.62 100.203 78.62 100.204C78.62 100.204 78.62 100.205 78.62 100.205C78.62 100.206 78.62 100.206 78.62 100.207C78.62 100.208 78.62 100.208 78.62 100.209C78.62 100.209 78.62 100.21 78.62 100.211C78.62 100.211 78.62 100.212 78.62 100.212C78.62 100.213 78.62 100.213 78.62 100.214C78.62 100.215 78.62 100.215 78.62 100.216C78.62 100.216 78.62 100.217 78.62 100.217C78.62 100.218 78.62 100.219 78.62 100.219C78.62 100.22 78.62 100.22 78.62 100.221C78.62 100.221 78.62 100.222 78.62 100.223C78.62 100.223 78.62 100.224 78.62 100.224C78.62 100.225 78.62 100.226 78.62 100.226C78.62 100.227 78.62 100.227 78.62 100.228C78.62 100.228 78.62 100.229 78.62 100.23C78.62 100.23 78.62 100.231 78.62 100.231C78.62 100.232 78.62 100.232 78.62 100.233C78.62 100.234 78.62 100.234 78.62 100.235C78.62 100.235 78.62 100.236 78.62 100.236C78.62 100.237 78.62 100.238 78.62 100.238C78.62 100.239 78.62 100.239 78.62 100.24C78.62 100.24 78.62 100.241 78.62 100.242C78.62 100.242 78.62 100.243 78.62 100.243C78.62 100.244 78.62 100.244 78.62 100.245C78.62 100.246 78.62 100.246 78.62 100.247C78.62 100.247 78.62 100.248 78.62 100.248C78.62 100.249 78.62 100.25 78.62 100.25C78.62 100.251 78.62 100.251 78.62 100.252C78.62 100.252 78.62 100.253 78.62 100.254C78.62 100.254 78.62 100.255 78.62 100.255C78.62 100.256 78.62 100.256 78.62 100.257C78.62 100.258 78.62 100.258 78.62 100.259C78.62 100.259 78.62 100.26 78.62 100.26C78.62 100.261 78.62 100.262 78.62 100.262C78.62 100.263 78.62 100.263 78.62 100.264C78.62 100.264 78.62 100.265 78.62 100.266C78.62 100.266 78.62 100.267 78.62 100.267C78.62 100.268 78.62 100.268 78.62 100.269C78.62 100.27 78.62 100.27 78.62 100.271C78.62 100.271 78.62 100.272 78.62 100.272C78.62 100.273 78.62 100.274 78.62 100.274C78.62 100.275 78.62 100.275 78.62 100.276C78.62 100.276 78.62 100.277 78.62 100.278C78.62 100.278 78.62 100.279 78.62 100.279C78.62 100.28 78.62 100.28 78.62 100.281C78.62 100.282 78.62 100.282 78.62 100.283C78.62 100.283 78.62 100.284 78.62 100.284C78.62 100.285 78.62 100.286 78.62 100.286C78.62 100.287 78.62 100.287 78.62 100.288C78.62 100.288 78.62 100.289 78.62 100.29C78.62 100.29 78.62 100.291 78.62 100.291C78.62 100.292 78.62 100.292 78.62 100.293C78.62 100.293 78.62 100.294 78.62 100.295C78.62 100.295 78.62 100.296 78.62 100.296C78.62 100.297 78.62 100.297 78.62 100.298C78.62 100.299 78.62 100.299 78.62 100.3C78.62 100.3 78.62 100.301 78.62 100.301C78.62 100.302 78.62 100.303 78.62 100.303C78.62 100.304 78.62 100.304 78.62 100.305C78.62 100.305 78.62 100.306 78.62 100.306C78.62 100.307 78.62 100.308 78.62 100.308C78.62 100.309 78.62 100.309 78.62 100.31C78.62 100.31 78.62 100.311 78.62 100.312C78.62 100.312 78.62 100.313 78.62 100.313C78.62 100.314 78.62 100.314 78.62 100.315C78.62 100.315 78.62 100.316 78.62 100.317C78.62 100.317 78.62 100.318 78.62 100.318C78.62 100.319 78.62 100.319 78.62 100.32C78.62 100.321 78.62 100.321 78.62 100.322C78.62 100.322 78.62 100.323 78.62 100.323C78.62 100.324 78.62 100.324 78.62 100.325C78.62 100.326 78.62 100.326 78.62 100.327C78.62 100.327 78.62 100.328 78.62 100.328C78.62 100.329 78.62 100.33 78.62 100.33C78.62 100.331 78.62 100.331 78.62 100.332C78.62 100.332 78.62 100.333 78.62 100.333C78.62 100.334 78.62 100.335 78.62 100.335C78.62 100.336 78.62 100.336 78.62 100.337C78.62 100.337 78.62 100.338 78.62 100.339C78.62 100.339 78.62 100.34 78.62 100.34C78.62 100.341 78.62 100.341 78.62 100.342C78.62 100.342 78.62 100.343 78.62 100.344C78.62 100.344 78.62 100.345 78.62 100.345C78.62 100.346 78.62 100.346 78.62 100.347C78.62 100.347 78.62 100.348 78.62 100.349C78.62 100.349 78.62 100.35 78.62 100.35C78.62 100.351 78.62 100.351 78.62 100.352C78.62 100.352 78.62 100.353 78.62 100.354C78.62 100.354 78.62 100.355 78.62 100.355C78.62 100.356 78.62 100.356 78.62 100.357C78.62 100.358 78.62 100.358 78.62 100.359C78.62 100.359 78.62 100.36 78.62 100.36C78.62 100.361 78.62 100.361 78.62 100.362C78.62 100.363 78.62 100.363 78.62 100.364C78.62 100.364 78.62 100.365 78.62 100.365C78.62 100.366 78.62 100.366 78.62 100.367C78.62 100.368 78.62 100.368 78.62 100.369C78.62 100.369 78.62 100.37 78.62 100.37C78.62 100.371 78.62 100.371 78.62 100.372C78.62 100.373 78.62 100.373 78.62 100.374C78.62 100.374 78.62 100.375 78.62 100.375C78.62 100.376 78.62 100.376 78.62 100.377C78.62 100.378 78.62 100.378 78.62 100.379C78.62 100.379 78.62 100.38 78.62 100.38C78.62 100.381 78.62 100.381 78.62 100.382C78.62 100.382 78.62 100.383 78.62 100.384C78.62 100.384 78.62 100.385 78.62 100.385C78.62 100.386 78.62 100.386 78.62 100.387C78.62 100.387 78.62 100.388 78.62 100.389C78.62 100.389 78.62 100.39 78.62 100.39C78.62 100.391 78.62 100.391 78.62 100.392C78.62 100.392 78.62 100.393 78.62 100.394C78.62 100.394 78.62 100.395 78.62 100.395C78.62 100.396 78.62 100.396 78.62 100.397C78.62 100.397 78.62 100.398 78.62 100.399C78.62 100.399 78.62 100.4 78.62 100.4C78.62 100.401 78.62 100.401 78.62 100.402C78.62 100.402 78.62 100.403 78.62 100.403C78.62 100.404 78.62 100.405 78.62 100.405C78.62 100.406 78.62 100.406 78.62 100.407C78.62 100.407 78.62 100.408 78.62 100.408C78.62 100.409 78.62 100.41 78.62 100.41C78.62 100.411 78.62 100.411 78.62 100.412C78.62 100.412 78.62 100.413 78.62 100.413C78.62 100.414 78.62 100.414 78.62 100.415C78.62 100.416 78.62 100.416 78.62 100.417C78.62 100.417 78.62 100.418 78.62 100.418C78.62 100.419 78.62 100.419 78.62 100.42C78.62 100.42 78.62 100.421 78.62 100.422C78.62 100.422 78.62 100.423 78.62 100.423C78.62 100.424 78.62 100.424 78.62 100.425C78.62 100.425 78.62 100.426 78.62 100.427C78.62 100.427 78.62 100.428 78.62 100.428C78.62 100.429 78.62 100.429 78.62 100.43C78.62 100.43 78.62 100.431 78.62 100.431C78.62 100.432 78.62 100.433 78.62 100.433C78.62 100.434 78.62 100.434 78.62 100.435C78.62 100.435 78.62 100.436 78.62 100.436C78.62 100.437 78.62 100.437 78.62 100.438C78.62 100.439 78.62 100.439 78.62 100.44C78.62 100.44 78.62 100.441 78.62 100.441C78.62 100.442 78.62 100.442 78.62 100.443C78.62 100.443 78.62 100.444 78.62 100.445C78.62 100.445 78.62 100.446 78.62 100.446C78.62 100.447 78.62 100.447 78.62 100.448C78.62 100.448 78.62 100.449 78.62 100.449C78.62 100.45 78.62 100.45 78.62 100.451C78.62 100.452 78.62 100.452 78.62 100.453C78.62 100.453 78.62 100.454 78.62 100.454C78.62 100.455 78.62 100.455 78.62 100.456C78.62 100.456 78.62 100.457 78.62 100.458C78.62 100.458 78.62 100.459 78.62 100.459C78.62 100.46 78.62 100.46 78.62 100.461C78.62 100.461 78.62 100.462 78.62 100.462C78.62 100.463 78.62 100.463 78.62 100.464C78.62 100.465 78.62 100.465 78.62 100.466C78.62 100.466 78.62 100.467 78.62 100.467C78.62 100.468 78.62 100.468 78.62 100.469C78.62 100.469 78.62 100.47 78.62 100.471C78.62 100.471 78.62 100.472 78.62 100.472C78.62 100.473 78.62 100.473 78.62 100.474C78.62 100.474 78.62 100.475 78.62 100.475C78.62 100.476 78.62 100.476 78.62 100.477C78.62 100.478 78.62 100.478 78.62 100.479C78.62 100.479 78.62 100.48 78.62 100.48C78.62 100.481 78.62 100.481 78.62 100.482C78.62 100.482 78.62 100.483 78.62 100.483C78.62 100.484 78.62 100.485 78.62 100.485C78.62 100.486 78.62 100.486 78.62 100.487C78.62 100.487 78.62 100.488 78.62 100.488C78.62 100.489 78.62 100.489 78.62 100.49C78.62 100.49 78.62 100.491 78.62 100.492C78.62 100.492 78.62 100.493 78.62 100.493C78.62 100.494 78.62 100.494 78.62 100.495C78.62 100.495 78.62 100.496 78.62 100.496C78.62 100.497 78.62 100.497 78.62 100.498C78.62 100.499 78.62 100.499 78.62 100.5C78.62 100.5 78.62 100.501 78.62 100.501C78.62 100.502 78.62 100.502 78.62 100.503C78.62 100.503 78.62 100.504 78.62 100.504C78.62 100.505 78.62 100.505 78.62 100.506C78.62 100.507 78.62 100.507 78.62 100.508C78.62 100.508 78.62 100.509 78.62 100.509C78.62 100.51 78.62 100.51 78.62 100.511C78.62 100.511 78.62 100.512 78.62 100.512C78.62 100.513 78.62 100.513 78.62 100.514C78.62 100.515 78.62 100.515 78.62 100.516C78.62 100.516 78.62 100.517 78.62 100.517C78.62 100.518 78.62 100.518 78.62 100.519C78.62 100.519 78.62 100.52 78.62 100.52C78.62 100.521 78.62 100.521 78.62 100.522C78.62 100.523 78.62 100.523 78.62 100.524C78.62 100.524 78.62 100.525 78.62 100.525C78.62 100.526 78.62 100.526 78.62 100.527C78.62 100.527 78.62 100.528 78.62 100.528C78.62 100.529 78.62 100.529 78.62 100.53C78.62 100.531 78.62 100.531 78.62 100.532C78.62 100.532 78.62 100.533 78.62 100.533C78.62 100.534 78.62 100.534 78.62 100.535C78.62 100.535 78.62 100.536 78.62 100.536C78.62 100.537 78.62 100.537 78.62 100.538C78.62 100.538 78.62 100.539 78.62 100.54C78.62 100.54 78.62 100.541 78.62 100.541C78.62 100.542 78.62 100.542 78.62 100.543C78.62 100.543 78.62 100.544 78.62 100.544C78.62 100.545 78.62 100.545 78.62 100.546C78.62 100.546 78.62 100.547 78.62 100.547C78.62 100.548 78.62 100.549 78.62 100.549C78.62 100.55 78.62 100.55 78.62 100.551C78.62 100.551 78.62 100.552 78.62 100.552C78.62 100.553 78.62 100.553 78.62 100.554C78.62 100.554 78.62 100.555 78.62 100.555C78.62 100.556 78.62 100.556 78.62 100.557C78.62 100.558 78.62 100.558 78.62 100.559C78.62 100.559 78.62 100.56 78.62 100.56C78.62 100.561 78.62 100.561 78.62 100.562C78.62 100.562 78.62 100.563 78.62 100.563C78.62 100.564 78.62 100.564 78.62 100.565C78.62 100.565 78.62 100.566 78.62 100.566C78.62 100.567 78.62 100.568 78.62 100.568C78.62 100.569 78.62 100.569 78.62 100.57C78.62 100.57 78.62 100.571 78.62 100.571C78.62 100.572 78.62 100.572 78.62 100.573C78.62 100.573 78.62 100.574 78.62 100.574C78.62 100.575 78.62 100.575 78.62 100.576C78.62 100.576 78.62 100.577 78.62 100.577C78.62 100.578 78.62 100.579 78.62 100.579C78.62 100.58 78.62 100.58 78.62 100.581C78.62 100.581 78.62 100.582 78.62 100.582C78.62 100.583 78.62 100.583 78.62 100.584C78.62 100.584 78.62 100.585 78.62 100.585C78.62 100.586 78.62 100.586 78.62 100.587C78.62 100.587 78.62 100.588 78.62 100.588C78.62 100.589 78.62 100.59 78.62 100.59C78.62 100.591 78.62 100.591 78.62 100.592C78.62 100.592 78.62 100.593 78.62 100.593C78.62 100.594 78.62 100.594 78.62 100.595C78.62 100.595 78.62 100.596 78.62 100.596C78.62 100.597 78.62 100.597 78.62 100.598C78.62 100.598 78.62 100.599 78.62 100.599C78.62 100.6 78.62 100.6 78.62 100.601C78.62 100.601 78.62 100.602 78.62 100.603C78.62 100.603 78.62 100.604 78.62 100.604C78.62 100.605 78.62 100.605 78.62 100.606C78.62 100.606 78.62 100.607 78.62 100.607C78.62 100.608 78.62 100.608 78.62 100.609C78.62 100.609 78.62 100.61 78.62 100.61C78.62 100.611 78.62 100.611 78.62 100.612C78.62 100.612 78.62 100.613 78.62 100.613C78.62 100.614 78.62 100.614 78.62 100.615C78.62 100.616 78.62 100.616 78.62 100.617C78.62 100.617 78.62 100.618 78.62 100.618C78.62 100.619 78.62 100.619 78.62 100.62C78.62 100.62 78.62 100.621 78.62 100.621C78.62 100.622 78.62 100.622 78.62 100.623C78.62 100.623 78.62 100.624 78.62 100.624C78.62 100.625 78.62 100.625 78.62 100.626C78.62 100.626 78.62 100.627 78.62 100.627C78.62 100.628 78.62 100.628 78.62 100.629C78.62 100.629 78.62 100.63 78.62 100.631C78.62 100.631 78.62 100.632 78.62 100.632C78.62 100.633 78.62 100.633 78.62 100.634C78.62 100.634 78.62 100.635 78.62 100.635C78.62 100.636 78.62 100.636 78.62 100.637C78.62 100.637 78.62 100.638 78.62 100.638C78.62 100.639 78.62 100.639 78.62 100.64C78.62 100.64 78.62 100.641 78.62 100.641C78.62 100.642 78.62 100.642 78.62 100.643C78.62 100.643 78.62 100.644 78.62 100.644C78.62 100.645 78.62 100.645 78.62 100.646C78.62 100.646 78.62 100.647 78.62 100.647C78.62 100.648 78.62 100.648 78.62 100.649C78.62 100.65 78.62 100.65 78.62 100.651C78.62 100.651 78.62 100.652 78.62 100.652C78.62 100.653 78.62 100.653 78.62 100.654C78.62 100.654 78.62 100.655 78.62 100.655C78.62 100.656 78.62 100.656 78.62 100.657C78.62 100.657 78.62 100.658 78.62 100.658C78.62 100.659 78.62 100.659 78.62 100.66C78.62 100.66 78.62 100.661 78.62 100.661C78.62 100.662 78.62 100.662 78.62 100.663C78.62 100.663 78.62 100.664 78.62 100.664C78.62 100.665 78.62 100.665 78.62 100.666C78.62 100.666 78.62 100.667 78.62 100.667C78.62 100.668 78.62 100.668 78.62 100.669C78.62 100.669 78.62 100.67 78.62 100.67C78.62 100.671 78.62 100.671 78.62 100.672C78.62 100.673 78.62 100.673 78.62 100.674C78.62 100.674 78.62 100.675 78.62 100.675C78.62 100.676 78.62 100.676 78.62 100.677C78.62 100.677 78.62 100.678 78.62 100.678C78.62 100.679 78.62 100.679 78.62 100.68C78.62 100.68 78.62 100.681 78.62 100.681C78.62 100.682 78.62 100.682 78.62 100.683C78.62 100.683 78.62 100.684 78.62 100.684C78.62 100.685 78.62 100.685 78.62 100.686C78.62 100.686 78.62 100.687 78.62 100.687C78.62 100.688 78.62 100.688 78.62 100.689C78.62 100.689 78.62 100.69 78.62 100.69C78.62 100.691 78.62 100.691 78.62 100.692C78.62 100.692 78.62 100.693 78.62 100.693C78.62 100.694 78.62 100.694 78.62 100.695C78.62 100.695 78.62 100.696 78.62 100.696C78.62 100.697 78.62 100.697 78.62 100.698C78.62 100.698 78.62 100.699 78.62 100.699C78.62 100.7 78.62 100.7 78.62 100.701C78.62 100.701 78.62 100.702 78.62 100.702C78.62 100.703 78.62 100.703 78.62 100.704C78.62 100.704 78.62 100.705 78.62 100.705C78.62 100.706 78.62 100.706 78.62 100.707C78.62 100.707 78.62 100.708 78.62 100.708C78.62 100.709 78.62 100.709 78.62 100.71C78.62 100.71 78.62 100.711 78.62 100.711C78.62 100.712 78.62 100.712 78.62 100.713C78.62 100.713 78.62 100.714 78.62 100.714C78.62 100.715 78.62 100.715 78.62 100.716C78.62 100.716 78.62 100.717 78.62 100.717C78.62 100.718 78.62 100.718 78.62 100.719C78.62 100.719 78.62 100.72 78.62 100.72C78.62 100.721 78.62 100.721 78.62 100.722C78.62 100.722 78.62 100.723 78.62 100.723C78.62 100.724 78.62 100.724 78.62 100.725C78.62 100.725 78.62 100.726 78.62 100.726C78.62 100.727 78.62 100.728 78.62 100.728H79.62C79.62 100.728 79.62 100.727 79.62 100.726C79.62 100.726 79.62 100.725 79.62 100.725C79.62 100.724 79.62 100.724 79.62 100.723C79.62 100.723 79.62 100.722 79.62 100.722C79.62 100.721 79.62 100.721 79.62 100.72C79.62 100.72 79.62 100.719 79.62 100.719C79.62 100.718 79.62 100.718 79.62 100.717C79.62 100.717 79.62 100.716 79.62 100.716C79.62 100.715 79.62 100.715 79.62 100.714C79.62 100.714 79.62 100.713 79.62 100.713C79.62 100.712 79.62 100.712 79.62 100.711C79.62 100.711 79.62 100.71 79.62 100.71C79.62 100.709 79.62 100.709 79.62 100.708C79.62 100.708 79.62 100.707 79.62 100.707C79.62 100.706 79.62 100.706 79.62 100.705C79.62 100.705 79.62 100.704 79.62 100.704C79.62 100.703 79.62 100.703 79.62 100.702C79.62 100.702 79.62 100.701 79.62 100.701C79.62 100.7 79.62 100.7 79.62 100.699C79.62 100.699 79.62 100.698 79.62 100.698C79.62 100.697 79.62 100.697 79.62 100.696C79.62 100.696 79.62 100.695 79.62 100.695C79.62 100.694 79.62 100.694 79.62 100.693C79.62 100.693 79.62 100.692 79.62 100.692C79.62 100.691 79.62 100.691 79.62 100.69C79.62 100.69 79.62 100.689 79.62 100.689C79.62 100.688 79.62 100.688 79.62 100.687C79.62 100.687 79.62 100.686 79.62 100.686C79.62 100.685 79.62 100.685 79.62 100.684C79.62 100.684 79.62 100.683 79.62 100.683C79.62 100.682 79.62 100.682 79.62 100.681C79.62 100.681 79.62 100.68 79.62 100.68C79.62 100.679 79.62 100.679 79.62 100.678C79.62 100.678 79.62 100.677 79.62 100.677C79.62 100.676 79.62 100.676 79.62 100.675C79.62 100.675 79.62 100.674 79.62 100.674C79.62 100.673 79.62 100.673 79.62 100.672C79.62 100.671 79.62 100.671 79.62 100.67C79.62 100.67 79.62 100.669 79.62 100.669C79.62 100.668 79.62 100.668 79.62 100.667C79.62 100.667 79.62 100.666 79.62 100.666C79.62 100.665 79.62 100.665 79.62 100.664C79.62 100.664 79.62 100.663 79.62 100.663C79.62 100.662 79.62 100.662 79.62 100.661C79.62 100.661 79.62 100.66 79.62 100.66C79.62 100.659 79.62 100.659 79.62 100.658C79.62 100.658 79.62 100.657 79.62 100.657C79.62 100.656 79.62 100.656 79.62 100.655C79.62 100.655 79.62 100.654 79.62 100.654C79.62 100.653 79.62 100.653 79.62 100.652C79.62 100.652 79.62 100.651 79.62 100.651C79.62 100.65 79.62 100.65 79.62 100.649C79.62 100.648 79.62 100.648 79.62 100.647C79.62 100.647 79.62 100.646 79.62 100.646C79.62 100.645 79.62 100.645 79.62 100.644C79.62 100.644 79.62 100.643 79.62 100.643C79.62 100.642 79.62 100.642 79.62 100.641C79.62 100.641 79.62 100.64 79.62 100.64C79.62 100.639 79.62 100.639 79.62 100.638C79.62 100.638 79.62 100.637 79.62 100.637C79.62 100.636 79.62 100.636 79.62 100.635C79.62 100.635 79.62 100.634 79.62 100.634C79.62 100.633 79.62 100.633 79.62 100.632C79.62 100.632 79.62 100.631 79.62 100.631C79.62 100.63 79.62 100.629 79.62 100.629C79.62 100.628 79.62 100.628 79.62 100.627C79.62 100.627 79.62 100.626 79.62 100.626C79.62 100.625 79.62 100.625 79.62 100.624C79.62 100.624 79.62 100.623 79.62 100.623C79.62 100.622 79.62 100.622 79.62 100.621C79.62 100.621 79.62 100.62 79.62 100.62C79.62 100.619 79.62 100.619 79.62 100.618C79.62 100.618 79.62 100.617 79.62 100.617C79.62 100.616 79.62 100.616 79.62 100.615C79.62 100.614 79.62 100.614 79.62 100.613C79.62 100.613 79.62 100.612 79.62 100.612C79.62 100.611 79.62 100.611 79.62 100.61C79.62 100.61 79.62 100.609 79.62 100.609C79.62 100.608 79.62 100.608 79.62 100.607C79.62 100.607 79.62 100.606 79.62 100.606C79.62 100.605 79.62 100.605 79.62 100.604C79.62 100.604 79.62 100.603 79.62 100.603C79.62 100.602 79.62 100.601 79.62 100.601C79.62 100.6 79.62 100.6 79.62 100.599C79.62 100.599 79.62 100.598 79.62 100.598C79.62 100.597 79.62 100.597 79.62 100.596C79.62 100.596 79.62 100.595 79.62 100.595C79.62 100.594 79.62 100.594 79.62 100.593C79.62 100.593 79.62 100.592 79.62 100.592C79.62 100.591 79.62 100.591 79.62 100.59C79.62 100.59 79.62 100.589 79.62 100.588C79.62 100.588 79.62 100.587 79.62 100.587C79.62 100.586 79.62 100.586 79.62 100.585C79.62 100.585 79.62 100.584 79.62 100.584C79.62 100.583 79.62 100.583 79.62 100.582C79.62 100.582 79.62 100.581 79.62 100.581C79.62 100.58 79.62 100.58 79.62 100.579C79.62 100.579 79.62 100.578 79.62 100.577C79.62 100.577 79.62 100.576 79.62 100.576C79.62 100.575 79.62 100.575 79.62 100.574C79.62 100.574 79.62 100.573 79.62 100.573C79.62 100.572 79.62 100.572 79.62 100.571C79.62 100.571 79.62 100.57 79.62 100.57C79.62 100.569 79.62 100.569 79.62 100.568C79.62 100.568 79.62 100.567 79.62 100.566C79.62 100.566 79.62 100.565 79.62 100.565C79.62 100.564 79.62 100.564 79.62 100.563C79.62 100.563 79.62 100.562 79.62 100.562C79.62 100.561 79.62 100.561 79.62 100.56C79.62 100.56 79.62 100.559 79.62 100.559C79.62 100.558 79.62 100.558 79.62 100.557C79.62 100.556 79.62 100.556 79.62 100.555C79.62 100.555 79.62 100.554 79.62 100.554C79.62 100.553 79.62 100.553 79.62 100.552C79.62 100.552 79.62 100.551 79.62 100.551C79.62 100.55 79.62 100.55 79.62 100.549C79.62 100.549 79.62 100.548 79.62 100.547C79.62 100.547 79.62 100.546 79.62 100.546C79.62 100.545 79.62 100.545 79.62 100.544C79.62 100.544 79.62 100.543 79.62 100.543C79.62 100.542 79.62 100.542 79.62 100.541C79.62 100.541 79.62 100.54 79.62 100.54C79.62 100.539 79.62 100.538 79.62 100.538C79.62 100.537 79.62 100.537 79.62 100.536C79.62 100.536 79.62 100.535 79.62 100.535C79.62 100.534 79.62 100.534 79.62 100.533C79.62 100.533 79.62 100.532 79.62 100.532C79.62 100.531 79.62 100.531 79.62 100.53C79.62 100.529 79.62 100.529 79.62 100.528C79.62 100.528 79.62 100.527 79.62 100.527C79.62 100.526 79.62 100.526 79.62 100.525C79.62 100.525 79.62 100.524 79.62 100.524C79.62 100.523 79.62 100.523 79.62 100.522C79.62 100.521 79.62 100.521 79.62 100.52C79.62 100.52 79.62 100.519 79.62 100.519C79.62 100.518 79.62 100.518 79.62 100.517C79.62 100.517 79.62 100.516 79.62 100.516C79.62 100.515 79.62 100.515 79.62 100.514C79.62 100.513 79.62 100.513 79.62 100.512C79.62 100.512 79.62 100.511 79.62 100.511C79.62 100.51 79.62 100.51 79.62 100.509C79.62 100.509 79.62 100.508 79.62 100.508C79.62 100.507 79.62 100.507 79.62 100.506C79.62 100.505 79.62 100.505 79.62 100.504C79.62 100.504 79.62 100.503 79.62 100.503C79.62 100.502 79.62 100.502 79.62 100.501C79.62 100.501 79.62 100.5 79.62 100.5C79.62 100.499 79.62 100.499 79.62 100.498C79.62 100.497 79.62 100.497 79.62 100.496C79.62 100.496 79.62 100.495 79.62 100.495C79.62 100.494 79.62 100.494 79.62 100.493C79.62 100.493 79.62 100.492 79.62 100.492C79.62 100.491 79.62 100.49 79.62 100.49C79.62 100.489 79.62 100.489 79.62 100.488C79.62 100.488 79.62 100.487 79.62 100.487C79.62 100.486 79.62 100.486 79.62 100.485C79.62 100.485 79.62 100.484 79.62 100.483C79.62 100.483 79.62 100.482 79.62 100.482C79.62 100.481 79.62 100.481 79.62 100.48C79.62 100.48 79.62 100.479 79.62 100.479C79.62 100.478 79.62 100.478 79.62 100.477C79.62 100.476 79.62 100.476 79.62 100.475C79.62 100.475 79.62 100.474 79.62 100.474C79.62 100.473 79.62 100.473 79.62 100.472C79.62 100.472 79.62 100.471 79.62 100.471C79.62 100.47 79.62 100.469 79.62 100.469C79.62 100.468 79.62 100.468 79.62 100.467C79.62 100.467 79.62 100.466 79.62 100.466C79.62 100.465 79.62 100.465 79.62 100.464C79.62 100.463 79.62 100.463 79.62 100.462C79.62 100.462 79.62 100.461 79.62 100.461C79.62 100.46 79.62 100.46 79.62 100.459C79.62 100.459 79.62 100.458 79.62 100.458C79.62 100.457 79.62 100.456 79.62 100.456C79.62 100.455 79.62 100.455 79.62 100.454C79.62 100.454 79.62 100.453 79.62 100.453C79.62 100.452 79.62 100.452 79.62 100.451C79.62 100.45 79.62 100.45 79.62 100.449C79.62 100.449 79.62 100.448 79.62 100.448C79.62 100.447 79.62 100.447 79.62 100.446C79.62 100.446 79.62 100.445 79.62 100.445C79.62 100.444 79.62 100.443 79.62 100.443C79.62 100.442 79.62 100.442 79.62 100.441C79.62 100.441 79.62 100.44 79.62 100.44C79.62 100.439 79.62 100.439 79.62 100.438C79.62 100.437 79.62 100.437 79.62 100.436C79.62 100.436 79.62 100.435 79.62 100.435C79.62 100.434 79.62 100.434 79.62 100.433C79.62 100.433 79.62 100.432 79.62 100.431C79.62 100.431 79.62 100.43 79.62 100.43C79.62 100.429 79.62 100.429 79.62 100.428C79.62 100.428 79.62 100.427 79.62 100.427C79.62 100.426 79.62 100.425 79.62 100.425C79.62 100.424 79.62 100.424 79.62 100.423C79.62 100.423 79.62 100.422 79.62 100.422C79.62 100.421 79.62 100.42 79.62 100.42C79.62 100.419 79.62 100.419 79.62 100.418C79.62 100.418 79.62 100.417 79.62 100.417C79.62 100.416 79.62 100.416 79.62 100.415C79.62 100.414 79.62 100.414 79.62 100.413C79.62 100.413 79.62 100.412 79.62 100.412C79.62 100.411 79.62 100.411 79.62 100.41C79.62 100.41 79.62 100.409 79.62 100.408C79.62 100.408 79.62 100.407 79.62 100.407C79.62 100.406 79.62 100.406 79.62 100.405C79.62 100.405 79.62 100.404 79.62 100.403C79.62 100.403 79.62 100.402 79.62 100.402C79.62 100.401 79.62 100.401 79.62 100.4C79.62 100.4 79.62 100.399 79.62 100.399C79.62 100.398 79.62 100.397 79.62 100.397C79.62 100.396 79.62 100.396 79.62 100.395C79.62 100.395 79.62 100.394 79.62 100.394C79.62 100.393 79.62 100.392 79.62 100.392C79.62 100.391 79.62 100.391 79.62 100.39C79.62 100.39 79.62 100.389 79.62 100.389C79.62 100.388 79.62 100.387 79.62 100.387C79.62 100.386 79.62 100.386 79.62 100.385C79.62 100.385 79.62 100.384 79.62 100.384C79.62 100.383 79.62 100.382 79.62 100.382C79.62 100.381 79.62 100.381 79.62 100.38C79.62 100.38 79.62 100.379 79.62 100.379C79.62 100.378 79.62 100.378 79.62 100.377C79.62 100.376 79.62 100.376 79.62 100.375C79.62 100.375 79.62 100.374 79.62 100.374C79.62 100.373 79.62 100.373 79.62 100.372C79.62 100.371 79.62 100.371 79.62 100.37C79.62 100.37 79.62 100.369 79.62 100.369C79.62 100.368 79.62 100.368 79.62 100.367C79.62 100.366 79.62 100.366 79.62 100.365C79.62 100.365 79.62 100.364 79.62 100.364C79.62 100.363 79.62 100.363 79.62 100.362C79.62 100.361 79.62 100.361 79.62 100.36C79.62 100.36 79.62 100.359 79.62 100.359C79.62 100.358 79.62 100.358 79.62 100.357C79.62 100.356 79.62 100.356 79.62 100.355C79.62 100.355 79.62 100.354 79.62 100.354C79.62 100.353 79.62 100.352 79.62 100.352C79.62 100.351 79.62 100.351 79.62 100.35C79.62 100.35 79.62 100.349 79.62 100.349C79.62 100.348 79.62 100.347 79.62 100.347C79.62 100.346 79.62 100.346 79.62 100.345C79.62 100.345 79.62 100.344 79.62 100.344C79.62 100.343 79.62 100.342 79.62 100.342C79.62 100.341 79.62 100.341 79.62 100.34C79.62 100.34 79.62 100.339 79.62 100.339C79.62 100.338 79.62 100.337 79.62 100.337C79.62 100.336 79.62 100.336 79.62 100.335C79.62 100.335 79.62 100.334 79.62 100.333C79.62 100.333 79.62 100.332 79.62 100.332C79.62 100.331 79.62 100.331 79.62 100.33C79.62 100.33 79.62 100.329 79.62 100.328C79.62 100.328 79.62 100.327 79.62 100.327C79.62 100.326 79.62 100.326 79.62 100.325C79.62 100.324 79.62 100.324 79.62 100.323C79.62 100.323 79.62 100.322 79.62 100.322C79.62 100.321 79.62 100.321 79.62 100.32C79.62 100.319 79.62 100.319 79.62 100.318C79.62 100.318 79.62 100.317 79.62 100.317C79.62 100.316 79.62 100.315 79.62 100.315C79.62 100.314 79.62 100.314 79.62 100.313C79.62 100.313 79.62 100.312 79.62 100.312C79.62 100.311 79.62 100.31 79.62 100.31C79.62 100.309 79.62 100.309 79.62 100.308C79.62 100.308 79.62 100.307 79.62 100.306C79.62 100.306 79.62 100.305 79.62 100.305C79.62 100.304 79.62 100.304 79.62 100.303C79.62 100.303 79.62 100.302 79.62 100.301C79.62 100.301 79.62 100.3 79.62 100.3C79.62 100.299 79.62 100.299 79.62 100.298C79.62 100.297 79.62 100.297 79.62 100.296C79.62 100.296 79.62 100.295 79.62 100.295C79.62 100.294 79.62 100.293 79.62 100.293C79.62 100.292 79.62 100.292 79.62 100.291C79.62 100.291 79.62 100.29 79.62 100.29C79.62 100.289 79.62 100.288 79.62 100.288C79.62 100.287 79.62 100.287 79.62 100.286C79.62 100.286 79.62 100.285 79.62 100.284C79.62 100.284 79.62 100.283 79.62 100.283C79.62 100.282 79.62 100.282 79.62 100.281C79.62 100.28 79.62 100.28 79.62 100.279C79.62 100.279 79.62 100.278 79.62 100.278C79.62 100.277 79.62 100.276 79.62 100.276C79.62 100.275 79.62 100.275 79.62 100.274C79.62 100.274 79.62 100.273 79.62 100.272C79.62 100.272 79.62 100.271 79.62 100.271C79.62 100.27 79.62 100.27 79.62 100.269C79.62 100.268 79.62 100.268 79.62 100.267C79.62 100.267 79.62 100.266 79.62 100.266C79.62 100.265 79.62 100.264 79.62 100.264C79.62 100.263 79.62 100.263 79.62 100.262C79.62 100.262 79.62 100.261 79.62 100.26C79.62 100.26 79.62 100.259 79.62 100.259C79.62 100.258 79.62 100.258 79.62 100.257C79.62 100.256 79.62 100.256 79.62 100.255C79.62 100.255 79.62 100.254 79.62 100.254C79.62 100.253 79.62 100.252 79.62 100.252C79.62 100.251 79.62 100.251 79.62 100.25C79.62 100.25 79.62 100.249 79.62 100.248C79.62 100.248 79.62 100.247 79.62 100.247C79.62 100.246 79.62 100.246 79.62 100.245C79.62 100.244 79.62 100.244 79.62 100.243C79.62 100.243 79.62 100.242 79.62 100.242C79.62 100.241 79.62 100.24 79.62 100.24C79.62 100.239 79.62 100.239 79.62 100.238C79.62 100.238 79.62 100.237 79.62 100.236C79.62 100.236 79.62 100.235 79.62 100.235C79.62 100.234 79.62 100.234 79.62 100.233C79.62 100.232 79.62 100.232 79.62 100.231C79.62 100.231 79.62 100.23 79.62 100.23C79.62 100.229 79.62 100.228 79.62 100.228C79.62 100.227 79.62 100.227 79.62 100.226C79.62 100.226 79.62 100.225 79.62 100.224C79.62 100.224 79.62 100.223 79.62 100.223C79.62 100.222 79.62 100.221 79.62 100.221C79.62 100.22 79.62 100.22 79.62 100.219C79.62 100.219 79.62 100.218 79.62 100.217C79.62 100.217 79.62 100.216 79.62 100.216C79.62 100.215 79.62 100.215 79.62 100.214C79.62 100.213 79.62 100.213 79.62 100.212C79.62 100.212 79.62 100.211 79.62 100.211C79.62 100.21 79.62 100.209 79.62 100.209C79.62 100.208 79.62 100.208 79.62 100.207C79.62 100.206 79.62 100.206 79.62 100.205C79.62 100.205 79.62 100.204 79.62 100.204C79.62 100.203 79.62 100.202 79.62 100.202C79.62 100.201 79.62 100.201 79.62 100.2C79.62 100.2 79.62 100.199 79.62 100.198C79.62 100.198 79.62 100.197 79.62 100.197C79.62 100.196 79.62 100.195 79.62 100.195C79.62 100.194 79.62 100.194 79.62 100.193C79.62 100.193 79.62 100.192 79.62 100.191C79.62 100.191 79.62 100.19 79.62 100.19C79.62 100.189 79.62 100.188 79.62 100.188C79.62 100.187 79.62 100.187 79.62 100.186C79.62 100.186 79.62 100.185 79.62 100.184C79.62 100.184 79.62 100.183 79.62 100.183C79.62 100.182 79.62 100.181 79.62 100.181C79.62 100.18 79.62 100.18 79.62 100.179C79.62 100.179 79.62 100.178 79.62 100.177C79.62 100.177 79.62 100.176 79.62 100.176C79.62 100.175 79.62 100.174 79.62 100.174C79.62 100.173 79.62 100.173 79.62 100.172C79.62 100.172 79.62 100.171 79.62 100.17C79.62 100.17 79.62 100.169 79.62 100.169C79.62 100.168 79.62 100.167 79.62 100.167C79.62 100.166 79.62 100.166 79.62 100.165C79.62 100.165 79.62 100.164 79.62 100.163C79.62 100.163 79.62 100.162 79.62 100.162C79.62 100.161 79.62 100.16 79.62 100.16C79.62 100.159 79.62 100.159 79.62 100.158C79.62 100.158 79.62 100.157 79.62 100.156C79.62 100.156 79.62 100.155 79.62 100.155C79.62 100.154 79.62 100.153 79.62 100.153C79.62 100.152 79.62 100.152 79.62 100.151C79.62 100.151 79.62 100.15 79.62 100.149C79.62 100.149 79.62 100.148 79.62 100.148C79.62 100.147 79.62 100.146 79.62 100.146C79.62 100.145 79.62 100.145 79.62 100.144C79.62 100.143 79.62 100.143 79.62 100.142C79.62 100.142 79.62 100.141 79.62 100.141C79.62 100.14 79.62 100.139 79.62 100.139C79.62 100.138 79.62 100.138 79.62 100.137C79.62 100.136 79.62 100.136 79.62 100.135C79.62 100.135 79.62 100.134 79.62 100.133C79.62 100.133 79.62 100.132 79.62 100.132C79.62 100.131 79.62 100.131 79.62 100.13C79.62 100.129 79.62 100.129 79.62 100.128C79.62 100.128 79.62 100.127 79.62 100.126C79.62 100.126 79.62 100.125 79.62 100.125C79.62 100.124 79.62 100.123 79.62 100.123C79.62 100.122 79.62 100.122 79.62 100.121C79.62 100.121 79.62 100.12 79.62 100.119C79.62 100.119 79.62 100.118 79.62 100.118C79.62 100.117 79.62 100.116 79.62 100.116C79.62 100.115 79.62 100.115 79.62 100.114C79.62 100.113 79.62 100.113 79.62 100.112C79.62 100.112 79.62 100.111 79.62 100.11C79.62 100.11 79.62 100.109 79.62 100.109C79.62 100.108 79.62 100.107 79.62 100.107C79.62 100.106 79.62 100.106 79.62 100.105C79.62 100.105 79.62 100.104 79.62 100.103C79.62 100.103 79.62 100.102 79.62 100.102C79.62 100.101 79.62 100.1 79.62 100.1C79.62 100.099 79.62 100.099 79.62 100.098C79.62 100.097 79.62 100.097 79.62 100.096C79.62 100.096 79.62 100.095 79.62 100.094C79.62 100.094 79.62 100.093 79.62 100.093C79.62 100.092 79.62 100.091 79.62 100.091C79.62 100.09 79.62 100.09 79.62 100.089C79.62 100.088 79.62 100.088 79.62 100.087C79.62 100.087 79.62 100.086 79.62 100.086C79.62 100.085 79.62 100.084 79.62 100.084C79.62 100.083 79.62 100.083 79.62 100.082C79.62 100.081 79.62 100.081 79.62 100.08C79.62 100.08 79.62 100.079 79.62 100.078C79.62 100.078 79.62 100.077 79.62 100.077C79.62 100.076 79.62 100.075 79.62 100.075C79.62 100.074 79.62 100.074 79.62 100.073C79.62 100.072 79.62 100.072 79.62 100.071C79.62 100.071 79.62 100.07 79.62 100.069C79.62 100.069 79.62 100.068 79.62 100.068C79.62 100.067 79.62 100.066 79.62 100.066C79.62 100.065 79.62 100.065 79.62 100.064C79.62 100.063 79.62 100.063 79.62 100.062C79.62 100.062 79.62 100.061 79.62 100.06C79.62 100.06 79.62 100.059 79.62 100.059C79.62 100.058 79.62 100.057 79.62 100.057C79.62 100.056 79.62 100.056 79.62 100.055C79.62 100.054 79.62 100.054 79.62 100.053C79.62 100.053 79.62 100.052 79.62 100.051C79.62 100.051 79.62 100.05 79.62 100.05C79.62 100.049 79.62 100.048 79.62 100.048C79.62 100.047 79.62 100.047 79.62 100.046C79.62 100.045 79.62 100.045 79.62 100.044C79.62 100.044 79.62 100.043 79.62 100.042C79.62 100.042 79.62 100.041 79.62 100.041C79.62 100.04 79.62 100.039 79.62 100.039C79.62 100.038 79.62 100.038 79.62 100.037C79.62 100.036 79.62 100.036 79.62 100.035C79.62 100.035 79.62 100.034 79.62 100.033C79.62 100.033 79.62 100.032 79.62 100.032C79.62 100.031 79.62 100.03 79.62 100.03C79.62 100.029 79.62 100.029 79.62 100.028C79.62 100.027 79.62 100.027 79.62 100.026C79.62 100.026 79.62 100.025 79.62 100.024C79.62 100.024 79.62 100.023 79.62 100.023C79.62 100.022 79.62 100.021 79.62 100.021C79.62 100.02 79.62 100.02 79.62 100.019C79.62 100.018 79.62 100.018 79.62 100.017C79.62 100.016 79.62 100.016 79.62 100.015C79.62 100.015 79.62 100.014 79.62 100.013C79.62 100.013 79.62 100.012 79.62 100.012C79.62 100.011 79.62 100.01 79.62 100.01C79.62 100.009 79.62 100.009 79.62 100.008C79.62 100.007 79.62 100.007 79.62 100.006C79.62 100.006 79.62 100.005 79.62 100.004C79.62 100.004 79.62 100.003 79.62 100.003C79.62 100.002 79.62 100.001 79.62 100.001C79.62 100 79.62 99.9995 79.62 99.9989C79.62 99.9983 79.62 99.9977 79.62 99.9971C79.62 99.9965 79.62 99.9959 79.62 99.9953C79.62 99.9947 79.62 99.9941 79.62 99.9935C79.62 99.9928 79.62 99.9922 79.62 99.9916C79.62 99.991 79.62 99.9904 79.62 99.9898C79.62 99.9892 79.62 99.9886 79.62 99.988C79.62 99.9874 79.62 99.9868 79.62 99.9862C79.62 99.9855 79.62 99.9849 79.62 99.9843C79.62 99.9837 79.62 99.9831 79.62 99.9825C79.62 99.9819 79.62 99.9813 79.62 99.9807C79.62 99.9801 79.62 99.9795 79.62 99.9788C79.62 99.9782 79.62 99.9776 79.62 99.977C79.62 99.9764 79.62 99.9758 79.62 99.9752C79.62 99.9746 79.62 99.974 79.62 99.9734C79.62 99.9727 79.62 99.9721 79.62 99.9715C79.62 99.9709 79.62 99.9703 79.62 99.9697C79.62 99.9691 79.62 99.9685 79.62 99.9679C79.62 99.9672 79.62 99.9666 79.62 99.966C79.62 99.9654 79.62 99.9648 79.62 99.9642C79.62 99.9636 79.62 99.963 79.62 99.9623C79.62 99.9617 79.62 99.9611 79.62 99.9605C79.62 99.9599 79.62 99.9593 79.62 99.9587C79.62 99.9581 79.62 99.9574 79.62 99.9568C79.62 99.9562 79.62 99.9556 79.62 99.955C79.62 99.9544 79.62 99.9538 79.62 99.9532C79.62 99.9525 79.62 99.9519 79.62 99.9513C79.62 99.9507 79.62 99.9501 79.62 99.9495C79.62 99.9489 79.62 99.9482 79.62 99.9476C79.62 99.947 79.62 99.9464 79.62 99.9458C79.62 99.9452 79.62 99.9446 79.62 99.9439C79.62 99.9433 79.62 99.9427 79.62 99.9421C79.62 99.9415 79.62 99.9409 79.62 99.9403C79.62 99.9396 79.62 99.939 79.62 99.9384C79.62 99.9378 79.62 99.9372 79.62 99.9366C79.62 99.936 79.62 99.9353 79.62 99.9347C79.62 99.9341 79.62 99.9335 79.62 99.9329C79.62 99.9323 79.62 99.9316 79.62 99.931C79.62 99.9304 79.62 99.9298 79.62 99.9292C79.62 99.9286 79.62 99.9279 79.62 99.9273C79.62 99.9267 79.62 99.9261 79.62 99.9255C79.62 99.9249 79.62 99.9242 79.62 99.9236C79.62 99.923 79.62 99.9224 79.62 99.9218C79.62 99.9212 79.62 99.9205 79.62 99.9199C79.62 99.9193 79.62 99.9187 79.62 99.9181C79.62 99.9174 79.62 99.9168 79.62 99.9162C79.62 99.9156 79.62 99.915 79.62 99.9144C79.62 99.9137 79.62 99.9131 79.62 99.9125C79.62 99.9119 79.62 99.9113 79.62 99.9106C79.62 99.91 79.62 99.9094 79.62 99.9088C79.62 99.9082 79.62 99.9076 79.62 99.9069C79.62 99.9063 79.62 99.9057 79.62 99.9051C79.62 99.9045 79.62 99.9038 79.62 99.9032C79.62 99.9026 79.62 99.902 79.62 99.9014C79.62 99.9007 79.62 99.9001 79.62 99.8995C79.62 99.8989 79.62 99.8983 79.62 99.8976C79.62 99.897 79.62 99.8964 79.62 99.8958C79.62 99.8951 79.62 99.8945 79.62 99.8939C79.62 99.8933 79.62 99.8927 79.62 99.892C79.62 99.8914 79.62 99.8908 79.62 99.8902C79.62 99.8896 79.62 99.8889 79.62 99.8883C79.62 99.8877 79.62 99.8871 79.62 99.8864C79.62 99.8858 79.62 99.8852 79.62 99.8846C79.62 99.884 79.62 99.8833 79.62 99.8827C79.62 99.8821 79.62 99.8815 79.62 99.8808C79.62 99.8802 79.62 99.8796 79.62 99.879C79.62 99.8784 79.62 99.8777 79.62 99.8771C79.62 99.8765 79.62 99.8759 79.62 99.8752C79.62 99.8746 79.62 99.874 79.62 99.8734C79.62 99.8727 79.62 99.8721 79.62 99.8715C79.62 99.8709 79.62 99.8702 79.62 99.8696C79.62 99.869 79.62 99.8684 79.62 99.8677C79.62 99.8671 79.62 99.8665 79.62 99.8659C79.62 99.8652 79.62 99.8646 79.62 99.864H78.62ZM79.12 100.228H78.16V101.228H79.12V100.228ZM78.6159 100.523L57.7839 54.2507L56.8721 54.6613L77.7041 100.933L78.6159 100.523ZM56.8671 54.2621L39.7791 94.8701L40.7009 95.2579L57.7889 54.6499L56.8671 54.2621ZM39.7772 94.8747C38.0712 99.0449 35.5721 103.097 32.2729 107.031L33.0391 107.673C36.3959 103.671 38.9528 99.5311 40.7028 95.2533L39.7772 94.8747ZM32.2747 107.029C28.7538 111.178 24.4891 113.904 19.4731 115.22L19.7269 116.188C24.9509 114.816 29.3902 111.974 33.0373 107.675L32.2747 107.029ZM19.4494 115.227C18.2847 115.595 17.0557 115.78 15.76 115.78V116.78C17.1523 116.78 18.4833 116.581 19.7506 116.181L19.4494 115.227ZM15.76 115.78C14.4714 115.78 13.0789 115.565 11.58 115.128L11.3 116.088C12.8731 116.547 14.3606 116.78 15.76 116.78V115.78ZM11.9375 115.658L12.0335 114.698L11.0385 114.598L10.9425 115.558L11.9375 115.658ZM11.563 115.147C14.0061 115.015 16.3484 114.354 18.5859 113.17L18.1181 112.286C16.0036 113.406 13.8019 114.025 11.509 114.149L11.563 115.147ZM18.5807 113.173C20.8635 111.999 22.8584 110.561 24.5616 108.858L23.8544 108.15C22.2296 109.775 20.3205 111.153 18.1233 112.283L18.5807 113.173ZM24.5546 108.864C26.2446 107.239 27.8649 105.326 29.4165 103.128L28.5995 102.552C27.0791 104.706 25.4994 106.569 23.8614 108.144L24.5546 108.864ZM29.4159 103.129C31.9343 99.5775 34.0641 95.7047 35.8057 91.5118L34.8823 91.1282C33.1679 95.2553 31.0737 99.0625 28.6001 102.551L29.4159 103.129ZM35.8133 91.1474L16.3253 38.1554L15.3867 38.5006L34.8747 91.4926L35.8133 91.1474ZM16.3123 38.1235C15.4439 36.1864 14.1947 34.7241 12.5559 33.7681L12.0521 34.6319C13.4853 35.4679 14.6041 36.7576 15.3997 38.5325L16.3123 38.1235ZM12.569 33.776C10.9643 32.7731 9.30565 32.26 7.6 32.26V33.26C9.09435 33.26 10.5717 33.7069 12.039 34.624L12.569 33.776ZM7.6 32.26H6.832V33.26H7.6V32.26ZM7.332 32.76V31.8H6.332V32.76H7.332ZM6.832 32.3H36.112V31.3H6.832V32.3ZM35.612 31.8V32.76H36.612V31.8H35.612ZM36.112 32.26H35.248V33.26H36.112V32.26ZM35.248 32.26C33.7814 32.26 32.5992 32.7561 31.7828 33.7951L32.5692 34.4129C33.1608 33.6599 34.0266 33.26 35.248 33.26V32.26ZM31.7797 33.7991C31.0968 34.6869 30.716 35.5915 30.716 36.504H31.716C31.716 35.8805 31.9752 35.1851 32.5723 34.4088L31.7797 33.7991ZM30.716 36.504C30.716 37.3288 30.8537 38.1227 31.1301 38.8829L32.0699 38.5411C31.8343 37.8933 31.716 37.2152 31.716 36.504H30.716ZM31.1287 38.879L42.9367 72.191L43.8793 71.8569L32.0713 38.5449L31.1287 38.879ZM43.8696 72.2161L61.2456 30.4561L60.3224 30.0719L42.9464 71.8319L43.8696 72.2161ZM60.7288 30.7609L61.5928 30.8569L61.7032 29.8631L60.8392 29.7671L60.7288 30.7609ZM61.1926 30.5664L80.2966 72.7104L81.2074 72.2976L62.1034 30.1536L61.1926 30.5664ZM81.2328 72.6412L92.2728 33.9532L91.3112 33.6788L80.2712 72.3668L81.2328 72.6412ZM92.2726 33.9541C93.8551 28.4468 96.3533 23.5792 99.7653 19.3458L98.9867 18.7182C95.4867 23.0608 92.9289 28.0492 91.3115 33.6779L92.2726 33.9541ZM99.7669 19.3437C103.741 14.3605 108.42 11.1978 113.804 9.8204L113.556 8.8516C107.932 10.2902 103.075 13.5915 98.9851 18.7203L99.7669 19.3437Z" fill="#387742"/>
</svg>
