<svg width="446" height="269" viewBox="0 0 446 269" fill="none" xmlns="http://www.w3.org/2000/svg">
<rect width="446" height="269" fill="white"/>
<path d="M96 140L348 140" stroke="#E5E5E5" stroke-width="7" stroke-linecap="square"/>
<path d="M96 155L348 155" stroke="#E5E5E5" stroke-width="7" stroke-linecap="square"/>
<path d="M96 170L348 170" stroke="#E5E5E5" stroke-width="7" stroke-linecap="square"/>
<path d="M96 185L348 185" stroke="#E5E5E5" stroke-width="7" stroke-linecap="square"/>
<path d="M96 200L348 200" stroke="#E5E5E5" stroke-width="7" stroke-linecap="square"/>
<path d="M96 215L348 215" stroke="#E5E5E5" stroke-width="7" stroke-linecap="square"/>
<path d="M96 230L348 230" stroke="#E5E5E5" stroke-width="7" stroke-linecap="square"/>
<path d="M96 245L348 245" stroke="#E5E5E5" stroke-width="7" stroke-linecap="square"/>
<path d="M96 80L348 80" stroke="#E5E5E5" stroke-width="7" stroke-linecap="square"/>
<path d="M96 95L348 95" stroke="#E5E5E5" stroke-width="7" stroke-linecap="square"/>
<path d="M96 110L348 110" stroke="#E5E5E5" stroke-width="7" stroke-linecap="square"/>
<path d="M96 125L348 125" stroke="#E5E5E5" stroke-width="7" stroke-linecap="square"/>
<path d="M180.426 148.453L187.762 151.418V153.715L178.176 149.273V147.562L187.762 143.133V145.43L180.426 148.453ZM199.012 156C198.887 155.75 198.785 155.305 198.707 154.664C197.699 155.711 196.496 156.234 195.098 156.234C193.848 156.234 192.82 155.883 192.016 155.18C191.219 154.469 190.82 153.57 190.82 152.484C190.82 151.164 191.32 150.141 192.32 149.414C193.328 148.68 194.742 148.312 196.562 148.312H198.672V147.316C198.672 146.559 198.445 145.957 197.992 145.512C197.539 145.059 196.871 144.832 195.988 144.832C195.215 144.832 194.566 145.027 194.043 145.418C193.52 145.809 193.258 146.281 193.258 146.836H191.078C191.078 146.203 191.301 145.594 191.746 145.008C192.199 144.414 192.809 143.945 193.574 143.602C194.348 143.258 195.195 143.086 196.117 143.086C197.578 143.086 198.723 143.453 199.551 144.188C200.379 144.914 200.809 145.918 200.84 147.199V153.035C200.84 154.199 200.988 155.125 201.285 155.812V156H199.012ZM195.414 154.348C196.094 154.348 196.738 154.172 197.348 153.82C197.957 153.469 198.398 153.012 198.672 152.449V149.848H196.973C194.316 149.848 192.988 150.625 192.988 152.18C192.988 152.859 193.215 153.391 193.668 153.773C194.121 154.156 194.703 154.348 195.414 154.348ZM210.367 145.266C210.039 145.211 209.684 145.184 209.301 145.184C207.879 145.184 206.914 145.789 206.406 147V156H204.238V143.32H206.348L206.383 144.785C207.094 143.652 208.102 143.086 209.406 143.086C209.828 143.086 210.148 143.141 210.367 143.25V145.266ZM215.898 140.25V143.32H218.266V144.996H215.898V152.859C215.898 153.367 216.004 153.75 216.215 154.008C216.426 154.258 216.785 154.383 217.293 154.383C217.543 154.383 217.887 154.336 218.324 154.242V156C217.754 156.156 217.199 156.234 216.66 156.234C215.691 156.234 214.961 155.941 214.469 155.355C213.977 154.77 213.73 153.938 213.73 152.859V144.996H211.422V143.32H213.73V140.25H215.898ZM223.164 156H220.996V143.32H223.164V156ZM220.82 139.957C220.82 139.605 220.926 139.309 221.137 139.066C221.355 138.824 221.676 138.703 222.098 138.703C222.52 138.703 222.84 138.824 223.059 139.066C223.277 139.309 223.387 139.605 223.387 139.957C223.387 140.309 223.277 140.602 223.059 140.836C222.84 141.07 222.52 141.188 222.098 141.188C221.676 141.188 221.355 141.07 221.137 140.836C220.926 140.602 220.82 140.309 220.82 139.957ZM231.73 154.465C232.504 154.465 233.18 154.23 233.758 153.762C234.336 153.293 234.656 152.707 234.719 152.004H236.77C236.73 152.73 236.48 153.422 236.02 154.078C235.559 154.734 234.941 155.258 234.168 155.648C233.402 156.039 232.59 156.234 231.73 156.234C230.004 156.234 228.629 155.66 227.605 154.512C226.59 153.355 226.082 151.777 226.082 149.777V149.414C226.082 148.18 226.309 147.082 226.762 146.121C227.215 145.16 227.863 144.414 228.707 143.883C229.559 143.352 230.562 143.086 231.719 143.086C233.141 143.086 234.32 143.512 235.258 144.363C236.203 145.215 236.707 146.32 236.77 147.68H234.719C234.656 146.859 234.344 146.188 233.781 145.664C233.227 145.133 232.539 144.867 231.719 144.867C230.617 144.867 229.762 145.266 229.152 146.062C228.551 146.852 228.25 147.996 228.25 149.496V149.906C228.25 151.367 228.551 152.492 229.152 153.281C229.754 154.07 230.613 154.465 231.73 154.465ZM241.562 156H239.395V138H241.562V156ZM250.305 156.234C248.586 156.234 247.188 155.672 246.109 154.547C245.031 153.414 244.492 151.902 244.492 150.012V149.613C244.492 148.355 244.73 147.234 245.207 146.25C245.691 145.258 246.363 144.484 247.223 143.93C248.09 143.367 249.027 143.086 250.035 143.086C251.684 143.086 252.965 143.629 253.879 144.715C254.793 145.801 255.25 147.355 255.25 149.379V150.281H246.66C246.691 151.531 247.055 152.543 247.75 153.316C248.453 154.082 249.344 154.465 250.422 154.465C251.188 154.465 251.836 154.309 252.367 153.996C252.898 153.684 253.363 153.27 253.762 152.754L255.086 153.785C254.023 155.418 252.43 156.234 250.305 156.234ZM250.035 144.867C249.16 144.867 248.426 145.188 247.832 145.828C247.238 146.461 246.871 147.352 246.73 148.5H253.082V148.336C253.02 147.234 252.723 146.383 252.191 145.781C251.66 145.172 250.941 144.867 250.035 144.867ZM265.445 148.383L257.699 145.348V143.121L267.707 147.551V149.262L257.699 153.703V151.453L265.445 148.383Z" fill="#715AB1"/>
<rect width="446" height="55" fill="#715AB1"/>
<rect y="55" width="68" height="214" fill="#E5E5E5"/>
<rect x="378" y="55" width="68" height="214" fill="#E5E5E5"/>
<path d="M177.094 27.4531L184.43 30.418V32.7148L174.844 28.2734V26.5625L184.43 22.1328V24.4297L177.094 27.4531ZM190.02 23.8555C190.98 22.6758 192.23 22.0859 193.77 22.0859C196.449 22.0859 197.801 23.5977 197.824 26.6211V35H195.656V26.6094C195.648 25.6953 195.438 25.0195 195.023 24.582C194.617 24.1445 193.98 23.9258 193.113 23.9258C192.41 23.9258 191.793 24.1133 191.262 24.4883C190.73 24.8633 190.316 25.3555 190.02 25.9648V35H187.852V17H190.02V23.8555ZM206.332 35.2344C204.613 35.2344 203.215 34.6719 202.137 33.5469C201.059 32.4141 200.52 30.9023 200.52 29.0117V28.6133C200.52 27.3555 200.758 26.2344 201.234 25.25C201.719 24.2578 202.391 23.4844 203.25 22.9297C204.117 22.3672 205.055 22.0859 206.062 22.0859C207.711 22.0859 208.992 22.6289 209.906 23.7148C210.82 24.8008 211.277 26.3555 211.277 28.3789V29.2812H202.688C202.719 30.5312 203.082 31.543 203.777 32.3164C204.48 33.082 205.371 33.4648 206.449 33.4648C207.215 33.4648 207.863 33.3086 208.395 32.9961C208.926 32.6836 209.391 32.2695 209.789 31.7539L211.113 32.7852C210.051 34.418 208.457 35.2344 206.332 35.2344ZM206.062 23.8672C205.188 23.8672 204.453 24.1875 203.859 24.8281C203.266 25.4609 202.898 26.3516 202.758 27.5H209.109V27.3359C209.047 26.2344 208.75 25.3828 208.219 24.7812C207.688 24.1719 206.969 23.8672 206.062 23.8672ZM221.625 35C221.5 34.75 221.398 34.3047 221.32 33.6641C220.312 34.7109 219.109 35.2344 217.711 35.2344C216.461 35.2344 215.434 34.8828 214.629 34.1797C213.832 33.4688 213.434 32.5703 213.434 31.4844C213.434 30.1641 213.934 29.1406 214.934 28.4141C215.941 27.6797 217.355 27.3125 219.176 27.3125H221.285V26.3164C221.285 25.5586 221.059 24.957 220.605 24.5117C220.152 24.0586 219.484 23.832 218.602 23.832C217.828 23.832 217.18 24.0273 216.656 24.418C216.133 24.8086 215.871 25.2812 215.871 25.8359H213.691C213.691 25.2031 213.914 24.5938 214.359 24.0078C214.812 23.4141 215.422 22.9453 216.188 22.6016C216.961 22.2578 217.809 22.0859 218.73 22.0859C220.191 22.0859 221.336 22.4531 222.164 23.1875C222.992 23.9141 223.422 24.918 223.453 26.1992V32.0352C223.453 33.1992 223.602 34.125 223.898 34.8125V35H221.625ZM218.027 33.3477C218.707 33.3477 219.352 33.1719 219.961 32.8203C220.57 32.4688 221.012 32.0117 221.285 31.4492V28.8477H219.586C216.93 28.8477 215.602 29.625 215.602 31.1797C215.602 31.8594 215.828 32.3906 216.281 32.7734C216.734 33.1562 217.316 33.3477 218.027 33.3477ZM226.324 28.5547C226.324 26.6094 226.785 25.0469 227.707 23.8672C228.629 22.6797 229.836 22.0859 231.328 22.0859C232.812 22.0859 233.988 22.5938 234.855 23.6094V17H237.023V35H235.031L234.926 33.6406C234.059 34.7031 232.852 35.2344 231.305 35.2344C229.836 35.2344 228.637 34.6328 227.707 33.4297C226.785 32.2266 226.324 30.6562 226.324 28.7188V28.5547ZM228.492 28.8008C228.492 30.2383 228.789 31.3633 229.383 32.1758C229.977 32.9883 230.797 33.3945 231.844 33.3945C233.219 33.3945 234.223 32.7773 234.855 31.543V25.7188C234.207 24.5234 233.211 23.9258 231.867 23.9258C230.805 23.9258 229.977 24.3359 229.383 25.1562C228.789 25.9766 228.492 27.1914 228.492 28.8008ZM245.66 35.2344C243.941 35.2344 242.543 34.6719 241.465 33.5469C240.387 32.4141 239.848 30.9023 239.848 29.0117V28.6133C239.848 27.3555 240.086 26.2344 240.562 25.25C241.047 24.2578 241.719 23.4844 242.578 22.9297C243.445 22.3672 244.383 22.0859 245.391 22.0859C247.039 22.0859 248.32 22.6289 249.234 23.7148C250.148 24.8008 250.605 26.3555 250.605 28.3789V29.2812H242.016C242.047 30.5312 242.41 31.543 243.105 32.3164C243.809 33.082 244.699 33.4648 245.777 33.4648C246.543 33.4648 247.191 33.3086 247.723 32.9961C248.254 32.6836 248.719 32.2695 249.117 31.7539L250.441 32.7852C249.379 34.418 247.785 35.2344 245.66 35.2344ZM245.391 23.8672C244.516 23.8672 243.781 24.1875 243.188 24.8281C242.594 25.4609 242.227 26.3516 242.086 27.5H248.438V27.3359C248.375 26.2344 248.078 25.3828 247.547 24.7812C247.016 24.1719 246.297 23.8672 245.391 23.8672ZM259.254 24.2656C258.926 24.2109 258.57 24.1836 258.188 24.1836C256.766 24.1836 255.801 24.7891 255.293 26V35H253.125V22.3203H255.234L255.27 23.7852C255.98 22.6523 256.988 22.0859 258.293 22.0859C258.715 22.0859 259.035 22.1406 259.254 22.25V24.2656ZM268.934 27.3828L261.188 24.3477V22.1211L271.195 26.5508V28.2617L261.188 32.7031V30.4531L268.934 27.3828Z" fill="white"/>
<path d="M6.35156 140.453L13.6875 143.418V145.715L4.10156 141.273V139.562L13.6875 135.133V137.43L6.35156 140.453ZM19.1602 135.32L19.2305 136.914C20.1992 135.695 21.4648 135.086 23.0273 135.086C25.707 135.086 27.0586 136.598 27.082 139.621V148H24.9141V139.609C24.9062 138.695 24.6953 138.02 24.2812 137.582C23.875 137.145 23.2383 136.926 22.3711 136.926C21.668 136.926 21.0508 137.113 20.5195 137.488C19.9883 137.863 19.5742 138.355 19.2773 138.965V148H17.1094V135.32H19.1602ZM38.1797 148C38.0547 147.75 37.9531 147.305 37.875 146.664C36.8672 147.711 35.6641 148.234 34.2656 148.234C33.0156 148.234 31.9883 147.883 31.1836 147.18C30.3867 146.469 29.9883 145.57 29.9883 144.484C29.9883 143.164 30.4883 142.141 31.4883 141.414C32.4961 140.68 33.9102 140.312 35.7305 140.312H37.8398V139.316C37.8398 138.559 37.6133 137.957 37.1602 137.512C36.707 137.059 36.0391 136.832 35.1562 136.832C34.3828 136.832 33.7344 137.027 33.2109 137.418C32.6875 137.809 32.4258 138.281 32.4258 138.836H30.2461C30.2461 138.203 30.4688 137.594 30.9141 137.008C31.3672 136.414 31.9766 135.945 32.7422 135.602C33.5156 135.258 34.3633 135.086 35.2852 135.086C36.7461 135.086 37.8906 135.453 38.7188 136.188C39.5469 136.914 39.9766 137.918 40.0078 139.199V145.035C40.0078 146.199 40.1562 147.125 40.4531 147.812V148H38.1797ZM34.582 146.348C35.2617 146.348 35.9062 146.172 36.5156 145.82C37.125 145.469 37.5664 145.012 37.8398 144.449V141.848H36.1406C33.4844 141.848 32.1562 142.625 32.1562 144.18C32.1562 144.859 32.3828 145.391 32.8359 145.773C33.2891 146.156 33.8711 146.348 34.582 146.348ZM47.4023 145.059L50.543 135.32H52.7578L48.2109 148H46.5586L41.9648 135.32H44.1797L47.4023 145.059ZM62.5195 140.383L54.7734 137.348V135.121L64.7812 139.551V141.262L54.7734 145.703V143.453L62.5195 140.383ZM16.4297 163.806C16.4297 162.481 16.6055 161.21 16.957 159.991C17.3145 158.772 17.8447 157.665 18.5479 156.669C19.251 155.673 19.9805 154.97 20.7363 154.56L21.0703 155.632C20.2148 156.288 19.5117 157.29 18.9609 158.638C18.416 159.985 18.1172 161.494 18.0645 163.164L18.0557 163.911C18.0557 166.173 18.4688 168.136 19.2949 169.8C19.793 170.796 20.3848 171.575 21.0703 172.138L20.7363 173.131C19.957 172.697 19.2129 171.971 18.5039 170.951C17.1211 168.959 16.4297 166.577 16.4297 163.806ZM24.4102 169H22.7842V155.5H24.4102V169ZM30.9668 169.176C29.6777 169.176 28.6289 168.754 27.8203 167.91C27.0117 167.061 26.6074 165.927 26.6074 164.509V164.21C26.6074 163.267 26.7861 162.426 27.1436 161.688C27.5068 160.943 28.0107 160.363 28.6553 159.947C29.3057 159.525 30.0088 159.314 30.7646 159.314C32.001 159.314 32.9619 159.722 33.6475 160.536C34.333 161.351 34.6758 162.517 34.6758 164.034V164.711H28.2334C28.2568 165.648 28.5293 166.407 29.0508 166.987C29.5781 167.562 30.2461 167.849 31.0547 167.849C31.6289 167.849 32.1152 167.731 32.5137 167.497C32.9121 167.263 33.2607 166.952 33.5596 166.565L34.5527 167.339C33.7559 168.563 32.5605 169.176 30.9668 169.176ZM30.7646 160.65C30.1084 160.65 29.5576 160.891 29.1123 161.371C28.667 161.846 28.3916 162.514 28.2861 163.375H33.0498V163.252C33.0029 162.426 32.7803 161.787 32.3818 161.336C31.9834 160.879 31.4443 160.65 30.7646 160.65ZM37.3652 169V160.747H35.8623V159.49H37.3652V158.515C37.3652 157.495 37.6377 156.707 38.1826 156.15C38.7275 155.594 39.498 155.315 40.4941 155.315C40.8691 155.315 41.2412 155.365 41.6104 155.465L41.5225 156.783C41.2471 156.73 40.9541 156.704 40.6436 156.704C40.1162 156.704 39.709 156.859 39.4219 157.17C39.1348 157.475 38.9912 157.914 38.9912 158.488V159.49H41.0215V160.747H38.9912V169H37.3652ZM45.0293 157.188V159.49H46.8047V160.747H45.0293V166.645C45.0293 167.025 45.1084 167.312 45.2666 167.506C45.4248 167.693 45.6943 167.787 46.0752 167.787C46.2627 167.787 46.5205 167.752 46.8486 167.682V169C46.4209 169.117 46.0049 169.176 45.6006 169.176C44.874 169.176 44.3262 168.956 43.957 168.517C43.5879 168.077 43.4033 167.453 43.4033 166.645V160.747H41.6719V159.49H43.4033V157.188H45.0293ZM52.4648 163.894C52.4648 165.2 52.292 166.454 51.9463 167.655C51.6064 168.851 51.082 169.955 50.373 170.969C49.6699 171.982 48.9316 172.703 48.1582 173.131L47.8154 172.138C48.7178 171.446 49.4414 170.374 49.9863 168.921C50.5371 167.462 50.8184 165.845 50.8301 164.069V163.788C50.8301 162.558 50.7012 161.415 50.4434 160.36C50.1855 159.3 49.8252 158.351 49.3623 157.513C48.9053 156.675 48.3896 156.021 47.8154 155.553L48.1582 154.56C48.9316 154.987 49.667 155.702 50.3643 156.704C51.0674 157.706 51.5918 158.811 51.9375 160.018C52.2891 161.225 52.4648 162.517 52.4648 163.894Z" fill="#715AB1"/>
<path d="M384.352 140.453L391.688 143.418V145.715L382.102 141.273V139.562L391.688 135.133V137.43L384.352 140.453ZM397.16 135.32L397.23 136.914C398.199 135.695 399.465 135.086 401.027 135.086C403.707 135.086 405.059 136.598 405.082 139.621V148H402.914V139.609C402.906 138.695 402.695 138.02 402.281 137.582C401.875 137.145 401.238 136.926 400.371 136.926C399.668 136.926 399.051 137.113 398.52 137.488C397.988 137.863 397.574 138.355 397.277 138.965V148H395.109V135.32H397.16ZM416.18 148C416.055 147.75 415.953 147.305 415.875 146.664C414.867 147.711 413.664 148.234 412.266 148.234C411.016 148.234 409.988 147.883 409.184 147.18C408.387 146.469 407.988 145.57 407.988 144.484C407.988 143.164 408.488 142.141 409.488 141.414C410.496 140.68 411.91 140.312 413.73 140.312H415.84V139.316C415.84 138.559 415.613 137.957 415.16 137.512C414.707 137.059 414.039 136.832 413.156 136.832C412.383 136.832 411.734 137.027 411.211 137.418C410.688 137.809 410.426 138.281 410.426 138.836H408.246C408.246 138.203 408.469 137.594 408.914 137.008C409.367 136.414 409.977 135.945 410.742 135.602C411.516 135.258 412.363 135.086 413.285 135.086C414.746 135.086 415.891 135.453 416.719 136.188C417.547 136.914 417.977 137.918 418.008 139.199V145.035C418.008 146.199 418.156 147.125 418.453 147.812V148H416.18ZM412.582 146.348C413.262 146.348 413.906 146.172 414.516 145.82C415.125 145.469 415.566 145.012 415.84 144.449V141.848H414.141C411.484 141.848 410.156 142.625 410.156 144.18C410.156 144.859 410.383 145.391 410.836 145.773C411.289 146.156 411.871 146.348 412.582 146.348ZM425.402 145.059L428.543 135.32H430.758L426.211 148H424.559L419.965 135.32H422.18L425.402 145.059ZM440.52 140.383L432.773 137.348V135.121L442.781 139.551V141.262L432.773 145.703V143.453L440.52 140.383ZM389.271 163.806C389.271 162.481 389.446 161.21 389.798 159.991C390.155 158.772 390.686 157.665 391.389 156.669C392.092 155.673 392.821 154.97 393.577 154.56L393.911 155.632C393.056 156.288 392.353 157.29 391.802 158.638C391.257 159.985 390.958 161.494 390.905 163.164L390.896 163.911C390.896 166.173 391.31 168.136 392.136 169.8C392.634 170.796 393.226 171.575 393.911 172.138L393.577 173.131C392.798 172.697 392.054 171.971 391.345 170.951C389.962 168.959 389.271 166.577 389.271 163.806ZM400.081 160.949C399.835 160.908 399.568 160.888 399.281 160.888C398.215 160.888 397.491 161.342 397.11 162.25V169H395.484V159.49H397.066L397.093 160.589C397.626 159.739 398.382 159.314 399.36 159.314C399.677 159.314 399.917 159.355 400.081 159.438V160.949ZM403.351 169H401.725V159.49H403.351V169ZM401.593 156.968C401.593 156.704 401.672 156.481 401.83 156.3C401.994 156.118 402.234 156.027 402.551 156.027C402.867 156.027 403.107 156.118 403.271 156.3C403.436 156.481 403.518 156.704 403.518 156.968C403.518 157.231 403.436 157.451 403.271 157.627C403.107 157.803 402.867 157.891 402.551 157.891C402.234 157.891 401.994 157.803 401.83 157.627C401.672 157.451 401.593 157.231 401.593 156.968ZM405.574 164.166C405.574 162.684 405.917 161.506 406.603 160.633C407.288 159.754 408.196 159.314 409.327 159.314C410.487 159.314 411.393 159.725 412.043 160.545L412.122 159.49H413.607V168.771C413.607 170.002 413.241 170.972 412.509 171.681C411.782 172.39 410.804 172.744 409.573 172.744C408.888 172.744 408.217 172.598 407.561 172.305C406.904 172.012 406.403 171.61 406.058 171.101L406.901 170.125C407.599 170.986 408.451 171.417 409.459 171.417C410.25 171.417 410.865 171.194 411.305 170.749C411.75 170.304 411.973 169.677 411.973 168.868V168.051C411.322 168.801 410.435 169.176 409.31 169.176C408.196 169.176 407.294 168.728 406.603 167.831C405.917 166.935 405.574 165.713 405.574 164.166ZM407.209 164.351C407.209 165.423 407.429 166.267 407.868 166.882C408.308 167.491 408.923 167.796 409.714 167.796C410.739 167.796 411.492 167.33 411.973 166.398V162.057C411.475 161.148 410.728 160.694 409.731 160.694C408.94 160.694 408.322 161.002 407.877 161.617C407.432 162.232 407.209 163.144 407.209 164.351ZM417.694 160.642C418.415 159.757 419.353 159.314 420.507 159.314C422.517 159.314 423.53 160.448 423.548 162.716V169H421.922V162.707C421.916 162.021 421.758 161.515 421.447 161.187C421.143 160.858 420.665 160.694 420.015 160.694C419.487 160.694 419.024 160.835 418.626 161.116C418.228 161.397 417.917 161.767 417.694 162.224V169H416.068V155.5H417.694V160.642ZM428.188 157.188V159.49H429.964V160.747H428.188V166.645C428.188 167.025 428.268 167.312 428.426 167.506C428.584 167.693 428.854 167.787 429.234 167.787C429.422 167.787 429.68 167.752 430.008 167.682V169C429.58 169.117 429.164 169.176 428.76 169.176C428.033 169.176 427.485 168.956 427.116 168.517C426.747 168.077 426.562 167.453 426.562 166.645V160.747H424.831V159.49H426.562V157.188H428.188ZM435.624 163.894C435.624 165.2 435.451 166.454 435.105 167.655C434.766 168.851 434.241 169.955 433.532 170.969C432.829 171.982 432.091 172.703 431.317 173.131L430.975 172.138C431.877 171.446 432.601 170.374 433.146 168.921C433.696 167.462 433.978 165.845 433.989 164.069V163.788C433.989 162.558 433.86 161.415 433.603 160.36C433.345 159.3 432.984 158.351 432.521 157.513C432.064 156.675 431.549 156.021 430.975 155.553L431.317 154.56C432.091 154.987 432.826 155.702 433.523 156.704C434.227 157.706 434.751 158.811 435.097 160.018C435.448 161.225 435.624 162.517 435.624 163.894Z" fill="#715AB1"/>
</svg>
