<svg width="446" height="269" viewBox="0 0 446 269" fill="none" xmlns="http://www.w3.org/2000/svg">
<rect width="446" height="269" fill="white"/>
<path d="M96 140L348 140" stroke="#E5E5E5" stroke-width="7" stroke-linecap="square"/>
<path d="M96 155L348 155" stroke="#E5E5E5" stroke-width="7" stroke-linecap="square"/>
<path d="M96 170L348 170" stroke="#E5E5E5" stroke-width="7" stroke-linecap="square"/>
<path d="M96 185L348 185" stroke="#E5E5E5" stroke-width="7" stroke-linecap="square"/>
<path d="M96 200L348 200" stroke="#E5E5E5" stroke-width="7" stroke-linecap="square"/>
<path d="M96 215L348 215" stroke="#E5E5E5" stroke-width="7" stroke-linecap="square"/>
<path d="M96 230L348 230" stroke="#E5E5E5" stroke-width="7" stroke-linecap="square"/>
<path d="M96 245L348 245" stroke="#E5E5E5" stroke-width="7" stroke-linecap="square"/>
<path d="M96 80L348 80" stroke="#E5E5E5" stroke-width="7" stroke-linecap="square"/>
<path d="M96 95L348 95" stroke="#E5E5E5" stroke-width="7" stroke-linecap="square"/>
<path d="M96 110L348 110" stroke="#E5E5E5" stroke-width="7" stroke-linecap="square"/>
<path d="M96 125L348 125" stroke="#E5E5E5" stroke-width="7" stroke-linecap="square"/>
<path d="M153.199 148.395C151.27 147.84 149.863 147.16 148.98 146.355C148.105 145.543 147.668 144.543 147.668 143.355C147.668 142.012 148.203 140.902 149.273 140.027C150.352 139.145 151.75 138.703 153.469 138.703C154.641 138.703 155.684 138.93 156.598 139.383C157.52 139.836 158.23 140.461 158.73 141.258C159.238 142.055 159.492 142.926 159.492 143.871H157.23C157.23 142.84 156.902 142.031 156.246 141.445C155.59 140.852 154.664 140.555 153.469 140.555C152.359 140.555 151.492 140.801 150.867 141.293C150.25 141.777 149.941 142.453 149.941 143.32C149.941 144.016 150.234 144.605 150.82 145.09C151.414 145.566 152.418 146.004 153.832 146.402C155.254 146.801 156.363 147.242 157.16 147.727C157.965 148.203 158.559 148.762 158.941 149.402C159.332 150.043 159.527 150.797 159.527 151.664C159.527 153.047 158.988 154.156 157.91 154.992C156.832 155.82 155.391 156.234 153.586 156.234C152.414 156.234 151.32 156.012 150.305 155.566C149.289 155.113 148.504 154.496 147.949 153.715C147.402 152.934 147.129 152.047 147.129 151.055H149.391C149.391 152.086 149.77 152.902 150.527 153.504C151.293 154.098 152.312 154.395 153.586 154.395C154.773 154.395 155.684 154.152 156.316 153.668C156.949 153.184 157.266 152.523 157.266 151.688C157.266 150.852 156.973 150.207 156.387 149.754C155.801 149.293 154.738 148.84 153.199 148.395ZM165.023 140.25V143.32H167.391V144.996H165.023V152.859C165.023 153.367 165.129 153.75 165.34 154.008C165.551 154.258 165.91 154.383 166.418 154.383C166.668 154.383 167.012 154.336 167.449 154.242V156C166.879 156.156 166.324 156.234 165.785 156.234C164.816 156.234 164.086 155.941 163.594 155.355C163.102 154.77 162.855 153.938 162.855 152.859V144.996H160.547V143.32H162.855V140.25H165.023ZM169.125 149.543C169.125 148.301 169.367 147.184 169.852 146.191C170.344 145.199 171.023 144.434 171.891 143.895C172.766 143.355 173.762 143.086 174.879 143.086C176.605 143.086 178 143.684 179.062 144.879C180.133 146.074 180.668 147.664 180.668 149.648V149.801C180.668 151.035 180.43 152.145 179.953 153.129C179.484 154.105 178.809 154.867 177.926 155.414C177.051 155.961 176.043 156.234 174.902 156.234C173.184 156.234 171.789 155.637 170.719 154.441C169.656 153.246 169.125 151.664 169.125 149.695V149.543ZM171.305 149.801C171.305 151.207 171.629 152.336 172.277 153.188C172.934 154.039 173.809 154.465 174.902 154.465C176.004 154.465 176.879 154.035 177.527 153.176C178.176 152.309 178.5 151.098 178.5 149.543C178.5 148.152 178.168 147.027 177.504 146.168C176.848 145.301 175.973 144.867 174.879 144.867C173.809 144.867 172.945 145.293 172.289 146.145C171.633 146.996 171.305 148.215 171.305 149.801ZM189.516 145.266C189.188 145.211 188.832 145.184 188.449 145.184C187.027 145.184 186.062 145.789 185.555 147V156H183.387V143.32H185.496L185.531 144.785C186.242 143.652 187.25 143.086 188.555 143.086C188.977 143.086 189.297 143.141 189.516 143.25V145.266ZM195.879 152.824L198.832 143.32H201.152L196.055 157.957C195.266 160.066 194.012 161.121 192.293 161.121L191.883 161.086L191.074 160.934V159.176L191.66 159.223C192.395 159.223 192.965 159.074 193.371 158.777C193.785 158.48 194.125 157.938 194.391 157.148L194.871 155.859L190.348 143.32H192.715L195.879 152.824ZM214.137 154.465C214.91 154.465 215.586 154.23 216.164 153.762C216.742 153.293 217.062 152.707 217.125 152.004H219.176C219.137 152.73 218.887 153.422 218.426 154.078C217.965 154.734 217.348 155.258 216.574 155.648C215.809 156.039 214.996 156.234 214.137 156.234C212.41 156.234 211.035 155.66 210.012 154.512C208.996 153.355 208.488 151.777 208.488 149.777V149.414C208.488 148.18 208.715 147.082 209.168 146.121C209.621 145.16 210.27 144.414 211.113 143.883C211.965 143.352 212.969 143.086 214.125 143.086C215.547 143.086 216.727 143.512 217.664 144.363C218.609 145.215 219.113 146.32 219.176 147.68H217.125C217.062 146.859 216.75 146.188 216.188 145.664C215.633 145.133 214.945 144.867 214.125 144.867C213.023 144.867 212.168 145.266 211.559 146.062C210.957 146.852 210.656 147.996 210.656 149.496V149.906C210.656 151.367 210.957 152.492 211.559 153.281C212.16 154.07 213.02 154.465 214.137 154.465ZM223.781 144.855C224.742 143.676 225.992 143.086 227.531 143.086C230.211 143.086 231.562 144.598 231.586 147.621V156H229.418V147.609C229.41 146.695 229.199 146.02 228.785 145.582C228.379 145.145 227.742 144.926 226.875 144.926C226.172 144.926 225.555 145.113 225.023 145.488C224.492 145.863 224.078 146.355 223.781 146.965V156H221.613V138H223.781V144.855ZM242.66 156C242.535 155.75 242.434 155.305 242.355 154.664C241.348 155.711 240.145 156.234 238.746 156.234C237.496 156.234 236.469 155.883 235.664 155.18C234.867 154.469 234.469 153.57 234.469 152.484C234.469 151.164 234.969 150.141 235.969 149.414C236.977 148.68 238.391 148.312 240.211 148.312H242.32V147.316C242.32 146.559 242.094 145.957 241.641 145.512C241.188 145.059 240.52 144.832 239.637 144.832C238.863 144.832 238.215 145.027 237.691 145.418C237.168 145.809 236.906 146.281 236.906 146.836H234.727C234.727 146.203 234.949 145.594 235.395 145.008C235.848 144.414 236.457 143.945 237.223 143.602C237.996 143.258 238.844 143.086 239.766 143.086C241.227 143.086 242.371 143.453 243.199 144.188C244.027 144.914 244.457 145.918 244.488 147.199V153.035C244.488 154.199 244.637 155.125 244.934 155.812V156H242.66ZM239.062 154.348C239.742 154.348 240.387 154.172 240.996 153.82C241.605 153.469 242.047 153.012 242.32 152.449V149.848H240.621C237.965 149.848 236.637 150.625 236.637 152.18C236.637 152.859 236.863 153.391 237.316 153.773C237.77 154.156 238.352 154.348 239.062 154.348ZM258.598 149.801C258.598 151.73 258.156 153.285 257.273 154.465C256.391 155.645 255.195 156.234 253.688 156.234C252.148 156.234 250.938 155.746 250.055 154.77V160.875H247.887V143.32H249.867L249.973 144.727C250.855 143.633 252.082 143.086 253.652 143.086C255.176 143.086 256.379 143.66 257.262 144.809C258.152 145.957 258.598 147.555 258.598 149.602V149.801ZM256.43 149.555C256.43 148.125 256.125 146.996 255.516 146.168C254.906 145.34 254.07 144.926 253.008 144.926C251.695 144.926 250.711 145.508 250.055 146.672V152.73C250.703 153.887 251.695 154.465 253.031 154.465C254.07 154.465 254.895 154.055 255.504 153.234C256.121 152.406 256.43 151.18 256.43 149.555ZM264.305 140.25V143.32H266.672V144.996H264.305V152.859C264.305 153.367 264.41 153.75 264.621 154.008C264.832 154.258 265.191 154.383 265.699 154.383C265.949 154.383 266.293 154.336 266.73 154.242V156C266.16 156.156 265.605 156.234 265.066 156.234C264.098 156.234 263.367 155.941 262.875 155.355C262.383 154.77 262.137 153.938 262.137 152.859V144.996H259.828V143.32H262.137V140.25H264.305ZM274.477 156.234C272.758 156.234 271.359 155.672 270.281 154.547C269.203 153.414 268.664 151.902 268.664 150.012V149.613C268.664 148.355 268.902 147.234 269.379 146.25C269.863 145.258 270.535 144.484 271.395 143.93C272.262 143.367 273.199 143.086 274.207 143.086C275.855 143.086 277.137 143.629 278.051 144.715C278.965 145.801 279.422 147.355 279.422 149.379V150.281H270.832C270.863 151.531 271.227 152.543 271.922 153.316C272.625 154.082 273.516 154.465 274.594 154.465C275.359 154.465 276.008 154.309 276.539 153.996C277.07 153.684 277.535 153.27 277.934 152.754L279.258 153.785C278.195 155.418 276.602 156.234 274.477 156.234ZM274.207 144.867C273.332 144.867 272.598 145.188 272.004 145.828C271.41 146.461 271.043 147.352 270.902 148.5H277.254V148.336C277.191 147.234 276.895 146.383 276.363 145.781C275.832 145.172 275.113 144.867 274.207 144.867ZM288.07 145.266C287.742 145.211 287.387 145.184 287.004 145.184C285.582 145.184 284.617 145.789 284.109 147V156H281.941V143.32H284.051L284.086 144.785C284.797 143.652 285.805 143.086 287.109 143.086C287.531 143.086 287.852 143.141 288.07 143.25V145.266ZM297.457 152.637C297.457 152.051 297.234 151.598 296.789 151.277C296.352 150.949 295.582 150.668 294.48 150.434C293.387 150.199 292.516 149.918 291.867 149.59C291.227 149.262 290.75 148.871 290.438 148.418C290.133 147.965 289.98 147.426 289.98 146.801C289.98 145.762 290.418 144.883 291.293 144.164C292.176 143.445 293.301 143.086 294.668 143.086C296.105 143.086 297.27 143.457 298.16 144.199C299.059 144.941 299.508 145.891 299.508 147.047H297.328C297.328 146.453 297.074 145.941 296.566 145.512C296.066 145.082 295.434 144.867 294.668 144.867C293.879 144.867 293.262 145.039 292.816 145.383C292.371 145.727 292.148 146.176 292.148 146.73C292.148 147.254 292.355 147.648 292.77 147.914C293.184 148.18 293.93 148.434 295.008 148.676C296.094 148.918 296.973 149.207 297.645 149.543C298.316 149.879 298.812 150.285 299.133 150.762C299.461 151.23 299.625 151.805 299.625 152.484C299.625 153.617 299.172 154.527 298.266 155.215C297.359 155.895 296.184 156.234 294.738 156.234C293.723 156.234 292.824 156.055 292.043 155.695C291.262 155.336 290.648 154.836 290.203 154.195C289.766 153.547 289.547 152.848 289.547 152.098H291.715C291.754 152.824 292.043 153.402 292.582 153.832C293.129 154.254 293.848 154.465 294.738 154.465C295.559 154.465 296.215 154.301 296.707 153.973C297.207 153.637 297.457 153.191 297.457 152.637Z" fill="#715AB1"/>
<rect width="446" height="55" fill="#715AB1"/>
<rect y="55" width="68" height="214" fill="#E5E5E5"/>
<rect x="378" y="55" width="68" height="214" fill="#E5E5E5"/>
<path d="M75.0078 27.3945C73.0781 26.8398 71.6719 26.1602 70.7891 25.3555C69.9141 24.543 69.4766 23.543 69.4766 22.3555C69.4766 21.0117 70.0117 19.9023 71.082 19.0273C72.1602 18.1445 73.5586 17.7031 75.2773 17.7031C76.4492 17.7031 77.4922 17.9297 78.4062 18.3828C79.3281 18.8359 80.0391 19.4609 80.5391 20.2578C81.0469 21.0547 81.3008 21.9258 81.3008 22.8711H79.0391C79.0391 21.8398 78.7109 21.0312 78.0547 20.4453C77.3984 19.8516 76.4727 19.5547 75.2773 19.5547C74.168 19.5547 73.3008 19.8008 72.6758 20.293C72.0586 20.7773 71.75 21.4531 71.75 22.3203C71.75 23.0156 72.043 23.6055 72.6289 24.0898C73.2227 24.5664 74.2266 25.0039 75.6406 25.4023C77.0625 25.8008 78.1719 26.2422 78.9688 26.7266C79.7734 27.2031 80.3672 27.7617 80.75 28.4023C81.1406 29.043 81.3359 29.7969 81.3359 30.6641C81.3359 32.0469 80.7969 33.1562 79.7188 33.9922C78.6406 34.8203 77.1992 35.2344 75.3945 35.2344C74.2227 35.2344 73.1289 35.0117 72.1133 34.5664C71.0977 34.1133 70.3125 33.4961 69.7578 32.7148C69.2109 31.9336 68.9375 31.0469 68.9375 30.0547H71.1992C71.1992 31.0859 71.5781 31.9023 72.3359 32.5039C73.1016 33.0977 74.1211 33.3945 75.3945 33.3945C76.582 33.3945 77.4922 33.1523 78.125 32.668C78.7578 32.1836 79.0742 31.5234 79.0742 30.6875C79.0742 29.8516 78.7812 29.207 78.1953 28.7539C77.6094 28.293 76.5469 27.8398 75.0078 27.3945ZM86.832 19.25V22.3203H89.1992V23.9961H86.832V31.8594C86.832 32.3672 86.9375 32.75 87.1484 33.0078C87.3594 33.2578 87.7188 33.3828 88.2266 33.3828C88.4766 33.3828 88.8203 33.3359 89.2578 33.2422V35C88.6875 35.1562 88.1328 35.2344 87.5938 35.2344C86.625 35.2344 85.8945 34.9414 85.4023 34.3555C84.9102 33.7695 84.6641 32.9375 84.6641 31.8594V23.9961H82.3555V22.3203H84.6641V19.25H86.832ZM90.9336 28.543C90.9336 27.3008 91.1758 26.1836 91.6602 25.1914C92.1523 24.1992 92.832 23.4336 93.6992 22.8945C94.5742 22.3555 95.5703 22.0859 96.6875 22.0859C98.4141 22.0859 99.8086 22.6836 100.871 23.8789C101.941 25.0742 102.477 26.6641 102.477 28.6484V28.8008C102.477 30.0352 102.238 31.1445 101.762 32.1289C101.293 33.1055 100.617 33.8672 99.7344 34.4141C98.8594 34.9609 97.8516 35.2344 96.7109 35.2344C94.9922 35.2344 93.5977 34.6367 92.5273 33.4414C91.4648 32.2461 90.9336 30.6641 90.9336 28.6953V28.543ZM93.1133 28.8008C93.1133 30.207 93.4375 31.3359 94.0859 32.1875C94.7422 33.0391 95.6172 33.4648 96.7109 33.4648C97.8125 33.4648 98.6875 33.0352 99.3359 32.1758C99.9844 31.3086 100.309 30.0977 100.309 28.543C100.309 27.1523 99.9766 26.0273 99.3125 25.168C98.6562 24.3008 97.7812 23.8672 96.6875 23.8672C95.6172 23.8672 94.7539 24.293 94.0977 25.1445C93.4414 25.9961 93.1133 27.2148 93.1133 28.8008ZM111.324 24.2656C110.996 24.2109 110.641 24.1836 110.258 24.1836C108.836 24.1836 107.871 24.7891 107.363 26V35H105.195V22.3203H107.305L107.34 23.7852C108.051 22.6523 109.059 22.0859 110.363 22.0859C110.785 22.0859 111.105 22.1406 111.324 22.25V24.2656ZM117.688 31.8242L120.641 22.3203H122.961L117.863 36.957C117.074 39.0664 115.82 40.1211 114.102 40.1211L113.691 40.0859L112.883 39.9336V38.1758L113.469 38.2227C114.203 38.2227 114.773 38.0742 115.18 37.7773C115.594 37.4805 115.934 36.9375 116.199 36.1484L116.68 34.8594L112.156 22.3203H114.523L117.688 31.8242ZM133.801 19.25V22.3203H136.168V23.9961H133.801V31.8594C133.801 32.3672 133.906 32.75 134.117 33.0078C134.328 33.2578 134.688 33.3828 135.195 33.3828C135.445 33.3828 135.789 33.3359 136.227 33.2422V35C135.656 35.1562 135.102 35.2344 134.562 35.2344C133.594 35.2344 132.863 34.9414 132.371 34.3555C131.879 33.7695 131.633 32.9375 131.633 31.8594V23.9961H129.324V22.3203H131.633V19.25H133.801ZM141.066 35H138.898V22.3203H141.066V35ZM138.723 18.957C138.723 18.6055 138.828 18.3086 139.039 18.0664C139.258 17.8242 139.578 17.7031 140 17.7031C140.422 17.7031 140.742 17.8242 140.961 18.0664C141.18 18.3086 141.289 18.6055 141.289 18.957C141.289 19.3086 141.18 19.6016 140.961 19.8359C140.742 20.0703 140.422 20.1875 140 20.1875C139.578 20.1875 139.258 20.0703 139.039 19.8359C138.828 19.6016 138.723 19.3086 138.723 18.957ZM147.488 19.25V22.3203H149.855V23.9961H147.488V31.8594C147.488 32.3672 147.594 32.75 147.805 33.0078C148.016 33.2578 148.375 33.3828 148.883 33.3828C149.133 33.3828 149.477 33.3359 149.914 33.2422V35C149.344 35.1562 148.789 35.2344 148.25 35.2344C147.281 35.2344 146.551 34.9414 146.059 34.3555C145.566 33.7695 145.32 32.9375 145.32 31.8594V23.9961H143.012V22.3203H145.32V19.25H147.488ZM154.754 35H152.586V17H154.754V35ZM163.496 35.2344C161.777 35.2344 160.379 34.6719 159.301 33.5469C158.223 32.4141 157.684 30.9023 157.684 29.0117V28.6133C157.684 27.3555 157.922 26.2344 158.398 25.25C158.883 24.2578 159.555 23.4844 160.414 22.9297C161.281 22.3672 162.219 22.0859 163.227 22.0859C164.875 22.0859 166.156 22.6289 167.07 23.7148C167.984 24.8008 168.441 26.3555 168.441 28.3789V29.2812H159.852C159.883 30.5312 160.246 31.543 160.941 32.3164C161.645 33.082 162.535 33.4648 163.613 33.4648C164.379 33.4648 165.027 33.3086 165.559 32.9961C166.09 32.6836 166.555 32.2695 166.953 31.7539L168.277 32.7852C167.215 34.418 165.621 35.2344 163.496 35.2344ZM163.227 23.8672C162.352 23.8672 161.617 24.1875 161.023 24.8281C160.43 25.4609 160.062 26.3516 159.922 27.5H166.273V27.3359C166.211 26.2344 165.914 25.3828 165.383 24.7812C164.852 24.1719 164.133 23.8672 163.227 23.8672Z" fill="white"/>
<path d="M4.53809 148.806C4.53809 147.481 4.71387 146.21 5.06543 144.991C5.42285 143.772 5.95312 142.665 6.65625 141.669C7.35938 140.673 8.08887 139.97 8.84473 139.56L9.17871 140.632C8.32324 141.288 7.62012 142.29 7.06934 143.638C6.52441 144.985 6.22559 146.494 6.17285 148.164L6.16406 148.911C6.16406 151.173 6.57715 153.136 7.40332 154.8C7.90137 155.796 8.49316 156.575 9.17871 157.138L8.84473 158.131C8.06543 157.697 7.32129 156.971 6.6123 155.951C5.22949 153.959 4.53809 151.577 4.53809 148.806ZM14.6982 154.176C13.4092 154.176 12.3604 153.754 11.5518 152.91C10.7432 152.061 10.3389 150.927 10.3389 149.509V149.21C10.3389 148.267 10.5176 147.426 10.875 146.688C11.2383 145.943 11.7422 145.363 12.3867 144.947C13.0371 144.525 13.7402 144.314 14.4961 144.314C15.7324 144.314 16.6934 144.722 17.3789 145.536C18.0645 146.351 18.4072 147.517 18.4072 149.034V149.711H11.9648C11.9883 150.648 12.2607 151.407 12.7822 151.987C13.3096 152.562 13.9775 152.849 14.7861 152.849C15.3604 152.849 15.8467 152.731 16.2451 152.497C16.6436 152.263 16.9922 151.952 17.291 151.565L18.2842 152.339C17.4873 153.563 16.292 154.176 14.6982 154.176ZM14.4961 145.65C13.8398 145.65 13.2891 145.891 12.8438 146.371C12.3984 146.846 12.123 147.514 12.0176 148.375H16.7812V148.252C16.7344 147.426 16.5117 146.787 16.1133 146.336C15.7148 145.879 15.1758 145.65 14.4961 145.65ZM21.8262 144.49L21.8701 145.545C22.5674 144.725 23.5078 144.314 24.6914 144.314C26.0215 144.314 26.9268 144.824 27.4072 145.844C27.7236 145.387 28.1338 145.018 28.6377 144.736C29.1475 144.455 29.748 144.314 30.4395 144.314C32.5254 144.314 33.5859 145.419 33.6211 147.628V154H31.9951V147.725C31.9951 147.045 31.8398 146.538 31.5293 146.204C31.2188 145.864 30.6973 145.694 29.9648 145.694C29.3613 145.694 28.8604 145.876 28.4619 146.239C28.0635 146.597 27.832 147.08 27.7676 147.689V154H26.1328V147.769C26.1328 146.386 25.4561 145.694 24.1025 145.694C23.0361 145.694 22.3066 146.148 21.9141 147.057V154H20.2881V144.49H21.8262ZM44.1152 149.351C44.1152 150.798 43.7842 151.964 43.1221 152.849C42.46 153.733 41.5635 154.176 40.4326 154.176C39.2783 154.176 38.3701 153.81 37.708 153.077V157.656H36.082V144.49H37.5674L37.6465 145.545C38.3086 144.725 39.2285 144.314 40.4062 144.314C41.5488 144.314 42.4512 144.745 43.1133 145.606C43.7812 146.468 44.1152 147.666 44.1152 149.201V149.351ZM42.4893 149.166C42.4893 148.094 42.2607 147.247 41.8037 146.626C41.3467 146.005 40.7197 145.694 39.9229 145.694C38.9385 145.694 38.2002 146.131 37.708 147.004V151.548C38.1943 152.415 38.9385 152.849 39.9404 152.849C40.7197 152.849 41.3379 152.541 41.7949 151.926C42.2578 151.305 42.4893 150.385 42.4893 149.166ZM48.3955 142.188V144.49H50.1709V145.747H48.3955V151.645C48.3955 152.025 48.4746 152.312 48.6328 152.506C48.791 152.693 49.0605 152.787 49.4414 152.787C49.6289 152.787 49.8867 152.752 50.2148 152.682V154C49.7871 154.117 49.3711 154.176 48.9668 154.176C48.2402 154.176 47.6924 153.956 47.3232 153.517C46.9541 153.077 46.7695 152.453 46.7695 151.645V145.747H45.0381V144.49H46.7695V142.188H48.3955ZM55.1895 151.618L57.4043 144.49H59.1445L55.3213 155.468C54.7295 157.05 53.7891 157.841 52.5 157.841L52.1924 157.814L51.5859 157.7V156.382L52.0254 156.417C52.5762 156.417 53.0039 156.306 53.3086 156.083C53.6191 155.86 53.874 155.453 54.0732 154.861L54.4336 153.895L51.041 144.49H52.8164L55.1895 151.618ZM64.3564 148.894C64.3564 150.2 64.1836 151.454 63.8379 152.655C63.498 153.851 62.9736 154.955 62.2646 155.969C61.5615 156.982 60.8232 157.703 60.0498 158.131L59.707 157.138C60.6094 156.446 61.333 155.374 61.8779 153.921C62.4287 152.462 62.71 150.845 62.7217 149.069V148.788C62.7217 147.558 62.5928 146.415 62.335 145.36C62.0771 144.3 61.7168 143.351 61.2539 142.513C60.7969 141.675 60.2812 141.021 59.707 140.553L60.0498 139.56C60.8232 139.987 61.5586 140.702 62.2559 141.704C62.959 142.706 63.4834 143.811 63.8291 145.018C64.1807 146.225 64.3564 147.517 64.3564 148.894Z" fill="#715AB1"/>
<path d="M383.538 148.806C383.538 147.481 383.714 146.21 384.065 144.991C384.423 143.772 384.953 142.665 385.656 141.669C386.359 140.673 387.089 139.97 387.845 139.56L388.179 140.632C387.323 141.288 386.62 142.29 386.069 143.638C385.524 144.985 385.226 146.494 385.173 148.164L385.164 148.911C385.164 151.173 385.577 153.136 386.403 154.8C386.901 155.796 387.493 156.575 388.179 157.138L387.845 158.131C387.065 157.697 386.321 156.971 385.612 155.951C384.229 153.959 383.538 151.577 383.538 148.806ZM393.698 154.176C392.409 154.176 391.36 153.754 390.552 152.91C389.743 152.061 389.339 150.927 389.339 149.509V149.21C389.339 148.267 389.518 147.426 389.875 146.688C390.238 145.943 390.742 145.363 391.387 144.947C392.037 144.525 392.74 144.314 393.496 144.314C394.732 144.314 395.693 144.722 396.379 145.536C397.064 146.351 397.407 147.517 397.407 149.034V149.711H390.965C390.988 150.648 391.261 151.407 391.782 151.987C392.31 152.562 392.978 152.849 393.786 152.849C394.36 152.849 394.847 152.731 395.245 152.497C395.644 152.263 395.992 151.952 396.291 151.565L397.284 152.339C396.487 153.563 395.292 154.176 393.698 154.176ZM393.496 145.65C392.84 145.65 392.289 145.891 391.844 146.371C391.398 146.846 391.123 147.514 391.018 148.375H395.781V148.252C395.734 147.426 395.512 146.787 395.113 146.336C394.715 145.879 394.176 145.65 393.496 145.65ZM400.826 144.49L400.87 145.545C401.567 144.725 402.508 144.314 403.691 144.314C405.021 144.314 405.927 144.824 406.407 145.844C406.724 145.387 407.134 145.018 407.638 144.736C408.147 144.455 408.748 144.314 409.439 144.314C411.525 144.314 412.586 145.419 412.621 147.628V154H410.995V147.725C410.995 147.045 410.84 146.538 410.529 146.204C410.219 145.864 409.697 145.694 408.965 145.694C408.361 145.694 407.86 145.876 407.462 146.239C407.063 146.597 406.832 147.08 406.768 147.689V154H405.133V147.769C405.133 146.386 404.456 145.694 403.103 145.694C402.036 145.694 401.307 146.148 400.914 147.057V154H399.288V144.49H400.826ZM423.115 149.351C423.115 150.798 422.784 151.964 422.122 152.849C421.46 153.733 420.563 154.176 419.433 154.176C418.278 154.176 417.37 153.81 416.708 153.077V157.656H415.082V144.49H416.567L416.646 145.545C417.309 144.725 418.229 144.314 419.406 144.314C420.549 144.314 421.451 144.745 422.113 145.606C422.781 146.468 423.115 147.666 423.115 149.201V149.351ZM421.489 149.166C421.489 148.094 421.261 147.247 420.804 146.626C420.347 146.005 419.72 145.694 418.923 145.694C417.938 145.694 417.2 146.131 416.708 147.004V151.548C417.194 152.415 417.938 152.849 418.94 152.849C419.72 152.849 420.338 152.541 420.795 151.926C421.258 151.305 421.489 150.385 421.489 149.166ZM427.396 142.188V144.49H429.171V145.747H427.396V151.645C427.396 152.025 427.475 152.312 427.633 152.506C427.791 152.693 428.061 152.787 428.441 152.787C428.629 152.787 428.887 152.752 429.215 152.682V154C428.787 154.117 428.371 154.176 427.967 154.176C427.24 154.176 426.692 153.956 426.323 153.517C425.954 153.077 425.77 152.453 425.77 151.645V145.747H424.038V144.49H425.77V142.188H427.396ZM434.189 151.618L436.404 144.49H438.145L434.321 155.468C433.729 157.05 432.789 157.841 431.5 157.841L431.192 157.814L430.586 157.7V156.382L431.025 156.417C431.576 156.417 432.004 156.306 432.309 156.083C432.619 155.86 432.874 155.453 433.073 154.861L433.434 153.895L430.041 144.49H431.816L434.189 151.618ZM443.356 148.894C443.356 150.2 443.184 151.454 442.838 152.655C442.498 153.851 441.974 154.955 441.265 155.969C440.562 156.982 439.823 157.703 439.05 158.131L438.707 157.138C439.609 156.446 440.333 155.374 440.878 153.921C441.429 152.462 441.71 150.845 441.722 149.069V148.788C441.722 147.558 441.593 146.415 441.335 145.36C441.077 144.3 440.717 143.351 440.254 142.513C439.797 141.675 439.281 141.021 438.707 140.553L439.05 139.56C439.823 139.987 440.559 140.702 441.256 141.704C441.959 142.706 442.483 143.811 442.829 145.018C443.181 146.225 443.356 147.517 443.356 148.894Z" fill="#715AB1"/>
<rect x="391" y="6" width="42" height="42" fill="#C96161"/>
<path d="M398.462 27.2612H396.292V31H395.066V21.7578H398.126C399.167 21.7578 399.967 21.9948 400.525 22.4688C401.088 22.9427 401.37 23.6325 401.37 24.5381C401.37 25.1136 401.213 25.6151 400.9 26.0425C400.591 26.4699 400.159 26.7894 399.605 27.001L401.776 30.9238V31H400.468L398.462 27.2612ZM396.292 26.2646H398.164C398.769 26.2646 399.25 26.1081 399.605 25.7949C399.965 25.4818 400.145 25.0628 400.145 24.5381C400.145 23.9668 399.973 23.5288 399.63 23.2241C399.292 22.9194 398.801 22.765 398.158 22.7607H396.292V26.2646ZM408.308 26.728H404.302V30.0034H408.955V31H403.083V21.7578H408.892V22.7607H404.302V25.7314H408.308V26.728ZM413.195 26.8804C412.15 26.5799 411.388 26.2118 410.91 25.7759C410.436 25.3358 410.199 24.7941 410.199 24.1509C410.199 23.423 410.489 22.8221 411.069 22.3481C411.653 21.87 412.41 21.6309 413.341 21.6309C413.976 21.6309 414.541 21.7536 415.036 21.999C415.535 22.2445 415.921 22.583 416.191 23.0146C416.466 23.4463 416.604 23.9181 416.604 24.4302H415.379C415.379 23.8716 415.201 23.4336 414.846 23.1162C414.49 22.7946 413.989 22.6338 413.341 22.6338C412.74 22.6338 412.271 22.7671 411.932 23.0337C411.598 23.2961 411.431 23.6621 411.431 24.1318C411.431 24.5085 411.589 24.828 411.907 25.0903C412.228 25.3485 412.772 25.5854 413.538 25.8013C414.308 26.0171 414.909 26.2562 415.341 26.5186C415.777 26.7767 416.098 27.0793 416.306 27.4263C416.517 27.7733 416.623 28.1816 416.623 28.6514C416.623 29.4004 416.331 30.0013 415.747 30.4541C415.163 30.9027 414.382 31.127 413.405 31.127C412.77 31.127 412.178 31.0063 411.627 30.7651C411.077 30.5197 410.652 30.1854 410.352 29.7622C410.055 29.339 409.907 28.8587 409.907 28.3213H411.132C411.132 28.8799 411.338 29.3221 411.748 29.6479C412.163 29.9696 412.715 30.1304 413.405 30.1304C414.048 30.1304 414.541 29.9992 414.884 29.7368C415.227 29.4744 415.398 29.1169 415.398 28.6641C415.398 28.2113 415.239 27.8621 414.922 27.6167C414.604 27.367 414.029 27.1216 413.195 26.8804ZM423.415 26.728H419.41V30.0034H424.062V31H418.191V21.7578H423.999V22.7607H419.41V25.7314H423.415V26.728ZM432.092 22.7607H429.122V31H427.909V22.7607H424.945V21.7578H432.092V22.7607Z" fill="white"/>
</svg>
