<?xml version="1.0" encoding="UTF-8"?>
<svg width="1200pt" height="1200pt" version="1.1" viewBox="0 0 1200 1200" xmlns="http://www.w3.org/2000/svg">
 <path d="m984.37 463.13c0.42188-19.344 17.746-52.188 33.551-81.887 31.934-60 71.641-134.68 13.094-171.25-5.4375-3.3828-11.016-6-16.656-8.3047-1.3086-0.51562-2.5938-0.99609-3.8984-1.4414-64.848-23.484-142.82 18.77-206.71 53.555-39.59 21.539-80.508 43.871-95.941 36.098l-0.3125 0.625c-34.969-8.4375-71.508-13.078-109.38-13.078-37.871 0-74.41 4.6445-109.37 13.078l-0.3125-0.625c-15.457 7.7773-56.398-14.543-95.965-36.098-63.852-34.754-141.74-76.992-206.57-53.605-1.3789 0.48047-2.7617 0.97266-4.1523 1.5469-5.6055 2.2812-11.148 4.9062-16.512 8.2578-58.586 36.562-18.863 111.25 13.066 171.25 15.793 29.699 33.133 62.543 33.551 81.887-81.73 92.906-129.55 204.68-129.55 295.77 0 47.914 13.945 88.078 40.332 116.12 29.125 30.938 71.688 46.609 126.54 46.609 131.03 0 144.89 6.9258 181.88 25.43 16.621 8.3047 30.574 19.477 45.336 31.262 31.141 24.934 63.324 50.672 121.72 50.672 58.367 0 90.562-25.738 121.7-50.676 14.785-11.785 28.738-22.957 45.348-31.262 37.008-18.504 50.844-25.43 181.88-25.43 54.863 0 97.43-15.672 126.53-46.609 26.387-28.043 40.332-68.207 40.332-116.12 0-91.086-47.832-202.86-129.54-295.77zm-20.051-237.9c12.371-4.1172 24.434-3.8984 36.562 0.15625 1.3906 0.48047 2.8086 0.86328 4.1758 1.4414 3.875 1.5977 7.8125 3.4922 11.746 5.9297 34.656 21.66 12.504 69.961-22.57 135.89-13.656 25.633-26.219 49.355-32.531 70.273-30.77-31.355-65.52-59.867-103.77-83.988 13.129-29.594 53.906-112.27 106.38-129.7zm-762.32 143.4c-35.062-65.93-57.203-114.23-22.547-135.89 3.9258-2.4375 7.8242-4.3203 11.723-5.9297 1.3555-0.57422 2.7734-0.97266 4.1641-1.4414 12.109-4.0547 24.168-4.2734 36.574-0.15625 52.477 17.438 93.254 100.11 106.39 129.71-38.316 24.168-73.176 52.766-104 84.191-6.1992-20.938-18.586-44.684-32.301-70.484zm852.06 488c-23.832 25.32-59.844 38.172-107 38.172-137.38 0-152.76 7.7031-193.88 28.246-19.176 9.6016-34.895 22.176-50.125 34.332-28.785 23.016-55.93 44.785-104.93 44.785-48.984 0-76.164-21.758-104.94-44.773-15.215-12.168-30.949-24.742-50.102-34.332-41.125-20.555-56.508-28.246-193.89-28.246-47.16 0-83.16-12.84-107-38.172-21.602-22.957-33.023-56.746-33.023-97.727 0-122.86 99.07-291.43 251.53-384.96 135.35-7.4766 197.06 59.844 208.97 120.37 4.5 22.934 1.5977 44.148-6.8281 59.113-17.242-20.832-42.973-34.414-72.07-34.414-3.0977 0-308.68 2.6289-308.68 228.16 0 51.793 35.902 89.988 98.484 104.76 45.48 10.727 102.31 6.793 114.83-18.238 19.836-39.672 72.266-144.52 107.69-142.6 12.348 0.88672 31.992 16.727 55.477 87.156 4.9922 14.988-8.9141 28.906-32.426 50.016-6.1094 5.4727-12.289 11.027-18.012 16.766-14.879 14.855-19.117 32.641-11.914 50.016 13.656 33 63.551 53.426 101.93 53.426 38.375 0 88.246-20.426 101.94-53.426 7.1875-17.375 2.9297-35.16-11.93-50.016-5.7461-5.7461-11.93-11.293-18.012-16.766-23.531-21.109-37.43-35.027-32.449-50.016 23.484-70.43 43.152-86.258 55.5-87.156 35.797-2.0273 87.828 102.93 107.68 142.6 12.504 25.031 69.336 28.906 114.84 18.238 62.594-14.773 98.473-52.969 98.473-104.76 0-225.53-305.58-228.16-308.68-228.16-29.102 0-54.805 13.586-72.059 34.414-8.4375-14.965-11.352-36.18-6.8398-59.113 11.867-60.516 73.836-127.95 208.97-120.37 152.45 93.527 251.53 262.09 251.53 384.96-0.019531 40.953-11.441 74.758-33.043 97.715zm-557.32-243.67c0 18.109-14.734 32.832-32.844 32.832s-32.844-14.734-32.844-32.832c0-18.109 14.734-32.844 32.844-32.844s32.844 14.734 32.844 32.844zm202.74 0c0-18.109 14.734-32.844 32.844-32.844s32.832 14.734 32.832 32.844c0 18.109-14.734 32.832-32.832 32.832-18.109 0-32.844-14.727-32.844-32.832z"/>
</svg>
