<svg xmlns="http://www.w3.org/2000/svg" xmlns:xlink="http://www.w3.org/1999/xlink" version="1.1" x="0px" y="0px" viewBox="0 0 100 100" style="enable-background:new 0 0 100 100;" xml:space="preserve"><g><path d="M91.7,47.5l-30.4-0.6c-0.2-1.9-1.3-2.3-2.3-2.3c-0.9,0-1.9,0.3-2.8,0.8l-3-3l-2.3,2.3l-2.3-2.3l-2.3,2.3L44,42.4l-3,3   C40,45,39,44.6,38.2,44.6c-1,0-2.1,0.4-2.3,2.3L5.4,47.5l30.4,0.6c0.2,1.9,1.3,2.3,2.3,2.3l0,0c0.9,0,1.9-0.3,2.8-0.8l3,3l2.3-2.3   l2.3,2.3l2.3-2.3l2.3,2.3l3-3c0.9,0.4,1.9,0.8,2.8,0.8c1,0,2.1-0.4,2.3-2.3L91.7,47.5z M58.9,45.2c0.7,0,1.5,0.2,1.7,1.7l-3.1-0.1   l-1-1C57.4,45.5,58.2,45.2,58.9,45.2z M53.7,47.5c0.4-0.3,1.2-0.8,2.1-1.3l1.1,1.1v0.4l-1.1,1.1C54.9,48.4,54.1,47.9,53.7,47.5   L53.7,47.5L53.7,47.5z M53.1,43.5l2.2,2.2c-0.9,0.5-1.7,1-2.1,1.3l-1.8-1.8L53.1,43.5z M52.6,47.5l-1.7,1.7l-1.7-1.7l1.7-1.7   L52.6,47.5z M48.6,43.5l1.7,1.7L48.6,47l-1.7-1.7L48.6,43.5z M48,47.5l-1.7,1.7l-1.7-1.7l1.7-1.7L48,47.5z M44,43.5l1.7,1.7   l-1.8,1.8c-0.4-0.3-1.2-0.8-2.1-1.3L44,43.5z M43.4,47.6c-0.4,0.3-1.2,0.8-2.1,1.3l-1.1-1.1v-0.4l1.1-1.1   C42.2,46.7,43,47.2,43.4,47.6L43.4,47.6L43.4,47.6z M38.2,45.2c0.7,0,1.5,0.3,2.3,0.6l-1,1l-3.1,0.1C36.7,45.4,37.5,45.2,38.2,45.2   z M38.2,49.9c-0.7,0-1.5-0.2-1.7-1.7l3.1,0.1l1,1C39.7,49.6,38.9,49.9,38.2,49.9z M44,51.5l-2.2-2.2c0.9-0.5,1.7-1,2.1-1.3l1.8,1.8   L44,51.5z M48.6,51.5l-1.7-1.7l1.7-1.7l1.7,1.7L48.6,51.5z M53.1,51.5l-1.7-1.7l1.8-1.8c0.4,0.3,1.2,0.8,2.1,1.3L53.1,51.5z    M58.9,49.9c-0.7,0-1.5-0.3-2.3-0.6l1-1l3.1-0.1C60.5,49.7,59.6,49.9,58.9,49.9z"></path></g></svg>